SplineFontDB: 2.0
FontName: THFahkwang-Italic
FullName: THFahkwang-Italic
FamilyName: TH Fah kwang
Weight: Book
Copyright: Copyright (c) 2006 by Department of Intellectual Property (DIP), Ministry of Commerce and Software Industry Promotion Agency (Public Organization) (SIPA). All rights reserved.
Version: 1.1
ItalicAngle: -10
UnderlinePosition: -35
UnderlineWidth: 30
Ascent: 800
Descent: 200
NeedsXUIDChange: 1
XUID: [1021 375 425136265 6802079]
FSType: 0
OS2Version: 3
OS2_WeightWidthSlopeOnly: 0
OS2_UseTypoMetrics: 1
CreationTime: 1158667020
ModificationTime: 1204728330
PfmFamily: 17
TTFWeight: 400
TTFWidth: 5
LineGap: 60
VLineGap: 0
Panose: 2 0 5 6 0 0 0 2 0 4
OS2TypoAscent: 0
OS2TypoAOffset: 1
OS2TypoDescent: 0
OS2TypoDOffset: 1
OS2TypoLinegap: 0
OS2WinAscent: -164
OS2WinAOffset: 1
OS2WinDescent: -214
OS2WinDOffset: 1
HheadAscent: 5
HheadAOffset: 1
HheadDescent: 196
HheadDOffset: 1
OS2SubXSize: 700
OS2SubYSize: 650
OS2SubXOff: 0
OS2SubYOff: 140
OS2SupXSize: 700
OS2SupYSize: 650
OS2SupXOff: 0
OS2SupYOff: 477
OS2StrikeYSize: 30
OS2StrikeYPos: 250
OS2FamilyClass: 773
OS2Vendor: 'ipth'
Lookup: 4 0 0 "'frac' Diagonal Fractions in Latin lookup 0"  {"'frac' Diagonal Fractions in Latin lookup 0 subtable"  } ['frac' ('latn' <'dflt' > ) ]
Lookup: 6 0 0 "'liga' Standard Ligatures in Latin lookup 1"  {"'liga' Standard Ligatures in Latin lookup 1 subtable"  } ['liga' ('latn' <'dflt' > ) ]
Lookup: 6 0 0 "'liga' Standard Ligatures in Latin lookup 2"  {"'liga' Standard Ligatures in Latin lookup 2 subtable"  } ['liga' ('latn' <'dflt' > ) ]
Lookup: 6 0 0 "'liga' Standard Ligatures in Latin lookup 3"  {"'liga' Standard Ligatures in Latin lookup 3 subtable"  } ['liga' ('latn' <'dflt' > ) ]
Lookup: 6 0 0 "'liga' Standard Ligatures in Latin lookup 4"  {"'liga' Standard Ligatures in Latin lookup 4 subtable"  } ['liga' ('latn' <'dflt' > ) ]

StartChar: .notdef
Encoding: 65536 -1 0
Width: 547
VWidth: 1533
Flags: W
HStem: 0 44<78 483> 681 20G<609.333 622.484> 739 44<198 604>
Fore
0 0 m 1
 138 783 l 1
 685 783 l 1
 547 0 l 1
 0 0 l 1
604 739 m 1
 198 739 l 1
 348 431 l 1
 604 739 l 1
313 389 m 1
 167 698 l 1
 58 84 l 1
 313 389 l 1
78 44 m 1
 483 44 l 1
 334 350 l 1
 78 44 l 1
366 389 m 1
 517 81 l 1
 626 701 l 1
 366 389 l 1
EndSplineSet
EndChar
StartChar: numbersign
Encoding: 35 35 4
Width: 732
VWidth: 1533
Flags: W
HStem: 0 21G<199 253.306 402 455.306> 222 42<151 269 331 471 533 637> 423 42<217 333 393 536 596 702>
Fore
582 423 m 1
 533 264 l 1
 645 264 l 1
 637 222 l 1
 519 222 l 1
 449 0 l 1
 402 0 l 1
 471 222 l 1
 317 222 l 1
 247 0 l 1
 199 0 l 1
 269 222 l 1
 143 222 l 1
 151 264 l 1
 283 264 l 1
 333 423 l 1
 210 423 l 1
 217 465 l 1
 346 465 l 1
 415 687 l 1
 463 687 l 1
 393 465 l 1
 550 465 l 1
 619 687 l 1
 665 687 l 1
 596 465 l 1
 709 465 l 1
 702 423 l 1
 582 423 l 1
380 423 m 1
 331 264 l 1
 485 264 l 1
 536 423 l 1
 380 423 l 1
EndSplineSet
EndChar
StartChar: dollar
Encoding: 36 36 5
Width: 732
VWidth: 1533
Flags: W
HStem: 21 30<276.109 369 401 491.121> 647 25<377.672 483 515 577.789>
VStem: 110 89<124.81 201.488 199.977 203 203 210> 195 86<469.545 553.909> 614 84<157.998 259.948> 658 79<521 585.671>
Fore
195 479 m 0xd8
 195 602 340 672 483 672 c 1
 501 771 l 1
 533 771 l 1
 515 672 l 1
 646 665 724 604 737 521 c 1
 658 521 l 1
 633 627 542 647 487 647 c 0
 375 647 281 592 281 509 c 0xd4
 281 380 698 428 698 243 c 0
 698 160 639 41 401 21 c 1
 382 -83 l 1
 350 -83 l 1
 369 21 l 1
 231 21 110 93 110 196 c 0
 110 201 111 205 111 210 c 1
 200 210 l 1
 199 203 199 196 199 190 c 0xe8
 199 108 272 51 366 51 c 0
 505 51 614 115 614 212 c 0
 614 365 195 304 195 479 c 0xd8
EndSplineSet
EndChar
StartChar: percent
Encoding: 37 37 6
Width: 754
VWidth: 1533
Flags: W
HStem: -2 19<526.051 620.377> 301 16<203.876 296.705> 370 16<582.003 676.133> 672 16<260.803 352.172>
VStem: 116 61<366.472 552.14> 380 60<436.215 622.656> 438 60<64.4905 249.643> 704 59<134.189 323.801>
Fore
438 153 m 0xfb
 438 269 529 386 635 386 c 256
 723 386 763 310 763 233 c 0
 763 121 673 -2 567 -2 c 256
 488 -2 438 69 438 153 c 0xfb
183 -17 m 1
 143 -17 l 1
 694 705 l 1
 734 705 l 1
 183 -17 l 1
116 457 m 0
 116 559 201 688 311 688 c 256
 399 688 440 611 440 533 c 0xfd
 440 424 351 301 245 301 c 256
 159 301 116 377 116 457 c 0
634 370 m 256
 568 370 498 256 498 144 c 0xfb
 498 84 516 17 570 17 c 256
 641 17 704 141 704 238 c 0
 704 296 689 370 634 370 c 256
310 672 m 256
 241 672 177 550 177 444 c 0
 177 388 191 317 248 317 c 256
 312 317 380 434 380 540 c 0xfd
 380 598 365 672 310 672 c 256
EndSplineSet
EndChar
StartChar: ampersand
Encoding: 38 38 7
Width: 794
VWidth: 1533
Flags: W
HStem: -21 21<272.113 448.319> 668 19<381.916 506.623>
VStem: 89 95<88.0627 213.937> 257 70<455.636 566.939> 537 68<510.331 638.252>
Fore
603 143 m 1
 649 202 664 280 664 332 c 0
 664 339 664 345 663 351 c 1
 761 351 l 1
 740 256 689 177 631 117 c 1
 678 74 731 35 787 0 c 1
 644 0 l 1
 627 9 609 20 566 60 c 1
 483 1 394 -21 318 -21 c 0
 227 -21 89 10 89 129 c 0
 89 204 134 275 235 324 c 2
 305 359 l 1
 265 415 257 456 257 483 c 0
 257 573 339 687 472 687 c 0
 537 687 605 655 605 585 c 0
 605 457 437 395 397 377 c 1
 506 225 580 163 603 143 c 1
443 668 m 0
 392 668 327 622 327 533 c 0
 327 493 343 458 386 396 c 1
 431 417 537 469 537 578 c 0
 537 633 499 668 443 668 c 0
319 339 m 1
 279 318 184 269 184 165 c 0
 184 77 260 0 350 0 c 0
 418 0 490 26 546 80 c 1
 504 119 464 160 427 204 c 2
 319 339 l 1
EndSplineSet
EndChar
StartChar: quotesingle
Encoding: 39 39 8
Width: 239
VWidth: 1533
Flags: W
HStem: 386 351
VStem: 180 100<386 701 386 701 386 386> 203 77<598.704 729.263>
Fore
280 701 m 0xc0
 280 649 226 497 195 386 c 1
 180 386 l 1xc0
 192 553 184 584 203 690 c 0xa0
 206 709 218 737 250 737 c 256
 274 737 280 718 280 701 c 0xc0
EndSplineSet
EndChar
StartChar: parenleft
Encoding: 40 40 9
Width: 306
VWidth: 1533
Flags: W
HStem: 719 20G<225.5 371>
VStem: 85 61<-34.9579 183.272>
Fore
85 136 m 0
 85 225 99 461 352 739 c 1
 371 739 l 1
 247 575 205 462 169 258 c 256
 154 172 146 104 146 43 c 0
 146 -48 163 -125 202 -224 c 1
 183 -224 l 1
 114 -99 85 21 85 136 c 0
EndSplineSet
EndChar
StartChar: parenright
Encoding: 41 41 10
Width: 306
VWidth: 1533
Flags: W
HStem: 719 20G<182 228.5>
VStem: 236 62<329.135 544.812>
Fore
298 376 m 0
 298 177 209 -25 30 -224 c 1
 13 -224 l 1
 136 -58 180 65 214 258 c 256
 228 336 236 404 236 470 c 0
 236 560 220 644 182 739 c 1
 199 739 l 1
 258 632 298 510 298 376 c 0
EndSplineSet
EndChar
StartChar: asterisk
Encoding: 42 42 11
Width: 512
VWidth: 1533
Flags: W
HStem: 333 383<338 398 338 338>
VStem: 158 386<538 538 538 538>
Fore
363 512 m 1
 474 383 l 1
 398 333 l 1
 344 500 l 1
 232 333 l 1
 174 383 l 1
 329 512 l 1
 158 538 l 1
 198 616 l 1
 338 535 l 1
 338 716 l 1
 422 716 l 1
 359 534 l 1
 534 616 l 1
 544 538 l 1
 363 512 l 1
EndSplineSet
EndChar
StartChar: plus
Encoding: 43 43 12
Width: 677
VWidth: 1533
Flags: W
HStem: 0 21G<311 369.511> 262 57<110 357 422 670>
Fore
412 262 m 1
 366 0 l 1
 311 0 l 1
 357 262 l 1
 100 262 l 1
 110 319 l 1
 367 319 l 1
 413 581 l 1
 468 581 l 1
 422 319 l 1
 680 319 l 1
 670 262 l 1
 412 262 l 1
EndSplineSet
EndChar
StartChar: comma
Encoding: 44 44 13
Width: 367
VWidth: 1533
Flags: W
HStem: -8 103<151.666 196.307>
VStem: 136 107<-1.20102 79.4629>
Fore
136 33 m 0
 136 66 164 95 198 95 c 0
 235 95 243 65 243 41 c 0
 243 -20 195 -101 131 -135 c 1
 126 -129 l 1
 151 -109 190 -68 197 -26 c 2
 201 -3 l 1
 192 -6 187 -8 178 -8 c 0
 152 -8 136 10 136 33 c 0
EndSplineSet
EndChar
StartChar: hyphen
Encoding: 45 45 14
Width: 410
VWidth: 1533
Flags: W
HStem: 273 60<82 436 71 447 82 82>
Fore
436 273 m 1
 71 273 l 1
 82 333 l 1
 447 333 l 1
 436 273 l 1
EndSplineSet
EndChar
StartChar: period
Encoding: 46 46 15
Width: 367
VWidth: 1533
Flags: W
HStem: -14 108<154.994 227.476>
VStem: 138 108<3.77156 76.7583>
Fore
138 32 m 0
 138 63 168 94 201 94 c 256
 225 94 246 77 246 51 c 0
 246 17 215 -14 182 -14 c 0
 158 -14 138 7 138 32 c 0
EndSplineSet
EndChar
StartChar: slash
Encoding: 47 47 16
Width: 317
VWidth: 1533
Flags: W
HStem: -23 21G<-16 47.1579> 717 20G<397.816 460>
VStem: -16 476<-23 737 -23 -23>
Fore
36 -23 m 1
 -16 -23 l 1
 409 737 l 1
 460 737 l 1
 36 -23 l 1
EndSplineSet
EndChar
StartChar: zero
Encoding: 48 48 17
Width: 677
VWidth: 1533
Flags: W
HStem: -11 37<254.151 442.02> 672 36<359.671 548.115>
VStem: 87 81<151.233 399.96> 634 79<299.263 548.095>
Fore
87 276 m 0
 87 481 249 708 464 708 c 256
 631 708 713 572 713 423 c 0
 713 220 555 -11 337 -11 c 256
 164 -11 87 130 87 276 c 0
344 26 m 256
 576 26 634 328 634 459 c 0
 634 601 568 672 457 672 c 256
 226 672 168 372 168 239 c 0
 168 122 211 26 344 26 c 256
EndSplineSet
EndChar
StartChar: one
Encoding: 49 49 18
Width: 677
VWidth: 1533
Flags: W
HStem: 0 21G<308 392.536> 560 33<241 380.082> 687 20G<441.5 514>
VStem: 241 273<560 707 593 593>
Fore
241 593 m 1
 356 593 411 606 472 707 c 1
 514 707 l 1
 389 0 l 1
 308 0 l 1
 407 560 l 1
 235 560 l 1
 241 593 l 1
EndSplineSet
EndChar
StartChar: two
Encoding: 50 50 19
Width: 677
VWidth: 1533
Flags: W
HStem: 0 74<149 622> 670 32<336.706 532.496>
VStem: 113 81<497.49 561.273> 615 81<435.324 595.984>
Fore
44 0 m 1
 134 280 615 252 615 521 c 0
 615 619 530 670 438 670 c 256
 334 670 216 604 194 483 c 1
 113 483 l 1
 156 626 302 702 444 702 c 0
 569 702 696 651 696 523 c 0
 696 231 210 253 149 74 c 1
 635 74 l 1
 622 0 l 1
 44 0 l 1
EndSplineSet
EndChar
StartChar: three
Encoding: 51 51 20
Width: 677
VWidth: 1533
Flags: W
HStem: -11 34<235.577 448.299> 353 32<354.169 502.614> 670 32<352.967 555.211>
VStem: 71 79<106.953 188.977 188.977 205> 168 81<527.653 600.747> 599 81<147.626 292.748> 618 82<481.607 617.57>
Fore
700 559 m 0xfa
 700 447 597 391 501 373 c 1
 585 367 680 327 680 230 c 0
 680 85 516 -11 326 -11 c 0
 179 -11 71 61 71 205 c 1
 153 205 l 1
 151 194 150 183 150 173 c 0
 150 72 243 23 332 23 c 0
 461 23 599 101 599 228 c 0xfc
 599 322 500 353 405 353 c 0
 388 353 370 352 317 345 c 1
 325 389 l 1
 345 386 366 385 387 385 c 0
 516 385 618 453 618 556 c 0
 618 639 534 670 451 670 c 0
 347 670 274 612 249 509 c 1
 168 509 l 1
 199 640 337 702 457 702 c 0
 560 702 700 673 700 559 c 0xfa
EndSplineSet
EndChar
StartChar: four
Encoding: 52 52 21
Width: 677
VWidth: 1533
Flags: W
HStem: 0 21G<389 472.529> 170 51<119 419 508 637> 687 20G<563.718 594>
Fore
637 170 m 1
 499 170 l 1
 469 0 l 1
 389 0 l 1
 419 170 l 1
 50 170 l 1
 37 192 l 1
 585 707 l 1
 594 707 l 1
 508 221 l 1
 666 221 l 1
 637 170 l 1
490 572 m 1
 119 221 l 1
 428 221 l 1
 490 572 l 1
EndSplineSet
EndChar
StartChar: five
Encoding: 53 53 22
Width: 677
VWidth: 1533
Flags: W
HStem: -11 32<239.548 441.316> 399 38<311.161 502.738> 621 74<270 687>
VStem: 77 79<108.419 188.5 188.5 205> 598 86<157.787 318.013>
Fore
338 21 m 0
 440 21 598 95 598 243 c 0
 598 351 496 399 392 399 c 0
 310 399 245 380 184 343 c 1
 156 351 l 1
 252 695 l 1
 724 695 l 1
 687 621 l 1
 270 621 l 1
 204 388 l 1
 276 431 373 437 413 437 c 0
 525 437 684 398 684 248 c 0
 684 54 471 -11 334 -11 c 0
 231 -11 77 30 77 205 c 1
 159 205 l 1
 157 194 156 183 156 172 c 0
 156 72 245 21 338 21 c 0
EndSplineSet
EndChar
StartChar: six
Encoding: 54 54 23
Width: 677
VWidth: 1533
Flags: W
HStem: -11 39<268.798 452.848> 440 43<333.492 511.832> 664 38<376.952 570.48>
VStem: 86 93<141.694 290.463> 597 91<182.857 355.18> 637 82<530 539.5 539.5 542 540.75 606.705>
Fore
86 258 m 0xf8
 86 421 202 702 483 702 c 0
 589 702 721 658 721 554 c 0
 721 546 721 538 719 530 c 1
 637 530 l 1xf4
 638 536 639 543 639 549 c 0
 639 620 561 664 474 664 c 0
 308 664 195 497 182 337 c 1
 253 462 389 483 448 483 c 0
 573 483 688 419 688 288 c 0
 688 115 527 -11 345 -11 c 0
 172 -11 86 113 86 258 c 0xf8
426 440 m 256
 298 440 179 328 179 199 c 0
 179 95 259 28 353 28 c 0
 501 28 597 153 597 272 c 0xf8
 597 365 532 440 426 440 c 256
EndSplineSet
EndChar
StartChar: seven
Encoding: 55 55 24
Width: 677
VWidth: 1533
Flags: W
HStem: 0 21G<195 289.5> 621 74<194 666>
VStem: 195 89<15.3081 82.7579>
Fore
767 695 m 1
 759 655 739 616 642 523 c 2
 539 426 l 2
 329 232 295 63 284 0 c 1
 195 0 l 1
 229 190 371 330 445 392 c 2
 548 480 l 2
 645 563 662 593 666 621 c 1
 157 621 l 1
 194 695 l 1
 767 695 l 1
EndSplineSet
EndChar
StartChar: eight
Encoding: 56 56 25
Width: 677
VWidth: 1533
Flags: W
HStem: -11 39<241.296 457.144> 676 34<345.086 567.861>
VStem: 56 93<107.133 244.34> 167 81<494.732 591.096> 608 83<148.899 254.071> 627 80<511.176 627.218>
Fore
707 576 m 0xf4
 707 476 573 415 486 400 c 1
 585 375 691 330 691 232 c 0xf8
 691 88 518 -11 334 -11 c 0
 223 -11 56 24 56 159 c 0
 56 290 185 359 291 377 c 1
 241 395 167 435 167 516 c 0
 167 654 346 710 472 710 c 0
 596 710 707 661 707 576 c 0xf4
445 422 m 1
 520 441 627 482 627 572 c 0xf4
 627 649 536 676 464 676 c 0
 358 676 248 629 248 546 c 0
 248 482 328 451 385 437 c 2
 445 422 l 1
353 357 m 0
 276 357 149 284 149 179 c 0
 149 87 238 28 341 28 c 0
 484 28 608 122 608 208 c 0xf8
 608 286 414 357 353 357 c 0
EndSplineSet
EndChar
StartChar: nine
Encoding: 57 57 26
Width: 677
VWidth: 1533
Flags: W
HStem: -11 39<227.911 424.656> 209 42<287.194 468.197> 664 38<348.473 532.636>
VStem: 79 81<84.0734 151.988 151 152.977 152.977 163> 112 90<336.995 503.348> 617 97<299.07 354 350.133 549.408>
Fore
112 402 m 0xec
 112 563 257 702 455 702 c 0
 629 702 714 579 714 434 c 0
 714 274 602 -11 317 -11 c 0
 220 -11 79 31 79 139 c 0
 79 147 80 155 81 163 c 1
 162 163 l 1
 161 156 160 149 160 143 c 0xf4
 160 68 243 28 325 28 c 0
 535 28 617 271 617 354 c 1
 545 229 408 209 351 209 c 0
 224 209 112 273 112 402 c 0xec
447 664 m 0
 301 664 202 539 202 421 c 0xec
 202 322 276 251 374 251 c 256
 504 251 621 371 621 492 c 0
 621 584 555 664 447 664 c 0
EndSplineSet
EndChar
StartChar: colon
Encoding: 58 58 27
Width: 367
VWidth: 1533
Flags: W
HStem: -14 108<154.994 227.476> 405 107<229.242 301.805>
VStem: 138 108<3.77156 76.7583> 212 108<423.189 495.074>
Fore
212 449 m 0xd0
 212 483 243 512 274 512 c 256
 298 512 320 493 320 466 c 0
 320 439 291 405 255 405 c 256
 228 405 212 425 212 449 c 0xd0
138 32 m 0xe0
 138 63 168 94 201 94 c 256
 225 94 246 77 246 51 c 0
 246 17 215 -14 182 -14 c 0
 158 -14 138 7 138 32 c 0xe0
EndSplineSet
EndChar
StartChar: semicolon
Encoding: 59 59 28
Width: 367
VWidth: 1533
Flags: W
HStem: -8 103<151.666 196.307> 405 107<229.242 301.805>
VStem: 136 107<-1.20102 79.4629> 212 108<423.189 495.074>
Fore
212 449 m 0xd0
 212 483 243 512 274 512 c 256
 298 512 320 493 320 466 c 0
 320 439 291 405 255 405 c 256
 228 405 212 425 212 449 c 0xd0
136 33 m 0xe0
 136 66 164 95 198 95 c 0
 235 95 243 65 243 41 c 0
 243 -20 195 -101 131 -135 c 1
 126 -129 l 1
 151 -109 190 -68 197 -26 c 2
 201 -3 l 1
 192 -6 187 -8 178 -8 c 0
 152 -8 136 10 136 33 c 0xe0
EndSplineSet
EndChar
StartChar: less
Encoding: 60 60 29
Width: 677
VWidth: 1533
Flags: W
Fore
106 262 m 1
 116 320 l 1
 720 581 l 1
 710 520 l 1
 175 291 l 1
 629 63 l 1
 618 2 l 1
 106 262 l 1
EndSplineSet
EndChar
StartChar: equal
Encoding: 61 61 30
Width: 677
VWidth: 1533
Flags: W
HStem: 153 57<91 651> 380 57<131 691>
Fore
121 380 m 1
 131 437 l 1
 701 437 l 1
 691 380 l 1
 121 380 l 1
81 153 m 1
 91 210 l 1
 661 210 l 1
 651 153 l 1
 81 153 l 1
EndSplineSet
EndChar
StartChar: greater
Encoding: 62 62 31
Width: 677
VWidth: 1533
Flags: W
Fore
60 2 m 1
 71 63 l 1
 604 291 l 1
 152 520 l 1
 162 581 l 1
 674 320 l 1
 664 262 l 1
 60 2 l 1
EndSplineSet
EndChar
StartChar: question
Encoding: 63 63 32
Width: 565
VWidth: 1533
Flags: W
HStem: -14 104<226.543 300.307> 707 30<312.661 470.75>
VStem: 131 82<522.84 619.756> 211 105<1.53712 74.2704> 508 101<497.135 653.335>
Fore
609 573 m 0xe8
 609 364 335 395 288 129 c 1
 270 129 l 1
 270 150 272 171 276 192 c 0
 318 429 508 392 508 595 c 0
 508 677 464 707 396 707 c 0
 278 707 230 607 213 509 c 1
 131 509 l 1
 156 655 268 737 404 737 c 0
 530 737 609 673 609 573 c 0xe8
211 28 m 0xd8
 211 62 240 90 272 90 c 256
 299 90 316 72 316 48 c 0
 316 15 288 -14 254 -14 c 256
 230 -14 211 3 211 28 c 0xd8
EndSplineSet
EndChar
StartChar: at
Encoding: 64 64 33
Width: 898
VWidth: 1533
Flags: W
HStem: -21 39<361.767 620.455> 152 36<652.467 735.284> 153 45<391.985 500.92> 511 39<531.161 638.08> 711 26<481.885 709.953>
VStem: 120 87<168.975 401.013> 340 74<207.827 346.713> 571 72<189.96 232> 871 40<361.457 563.804>
Fore
120 278 m 0xdf80
 120 490 316 737 601 737 c 0
 781 737 911 633 911 471 c 0
 911 313 779 152 653 152 c 0xdf80
 600 152 573 179 571 232 c 1
 511 171 474 153 418 153 c 0xbf80
 360 153 340 195 340 246 c 0
 340 371 455 550 595 550 c 0
 636 550 666 525 677 497 c 1
 716 538 l 1
 771 538 l 1
 700 387 l 2
 671 326 643 255 643 222 c 0
 643 188 668 188 680 188 c 0
 760 188 871 324 871 463 c 0
 871 614 747 711 596 711 c 0
 347 711 207 455 207 280 c 0
 207 126 310 18 483 18 c 0
 614 18 690 57 710 67 c 1
 721 41 l 1
 655 7 572 -21 480 -21 c 0
 298 -21 120 81 120 278 c 0xdf80
605 511 m 0
 466 511 414 313 414 261 c 0
 414 229 426 198 470 198 c 0xbf80
 562 198 649 386 649 445 c 0
 649 475 636 511 605 511 c 0
EndSplineSet
EndChar
StartChar: A
Encoding: 65 65 34
Width: 803
VWidth: 1533
Flags: W
HStem: 0 21G<0 63.2076 700.005 803> 366 37<336 568> 719 20G<520.521 558.793>
Fore
707 0 m 1
 579 366 l 1
 309 366 l 1
 49 0 l 1
 0 0 l 1
 535 739 l 1
 552 739 l 1
 803 0 l 1
 707 0 l 1
496 627 m 1
 336 403 l 1
 568 403 l 1
 496 627 l 1
EndSplineSet
EndChar
StartChar: B
Encoding: 66 66 35
Width: 820
VWidth: 1533
Flags: W
HStem: 0 37<166 589.611> 365 38<230 591.747> 678 38<279 659.563>
VStem: 722 98<143.067 292.157> 722 90<504.077 628.8>
Fore
812 578 m 0xe8
 812 450 652 392 546 386 c 1
 723 373 820 320 820 224 c 0xf0
 820 135 749 0 419 0 c 2
 77 0 l 1
 203 716 l 1
 560 716 l 2
 665 716 812 691 812 578 c 0xe8
456 403 m 2
 561 403 722 436 722 569 c 0xe8
 722 664 609 678 500 678 c 2
 279 678 l 1
 230 403 l 1
 456 403 l 2
473 37 m 2
 580 37 722 83 722 223 c 0xf0
 722 336 607 365 449 365 c 2
 223 365 l 1
 166 37 l 1
 473 37 l 2
EndSplineSet
EndChar
StartChar: C
Encoding: 67 67 36
Width: 861
VWidth: 1533
Flags: W
HStem: -23 34<351.883 575.052> 704 35<464.633 691.425>
VStem: 94 100<181.556 411.288> 808 105<509 582.525>
Fore
587 704 m 0
 355 704 194 498 194 295 c 0
 194 144 284 11 465 11 c 0
 618 11 712 118 754 205 c 1
 859 205 l 1
 746 12 564 -23 459 -23 c 0
 259 -23 94 100 94 289 c 0
 94 515 303 739 595 739 c 0
 768 739 886 646 913 509 c 1
 808 509 l 1
 797 600 740 704 587 704 c 0
EndSplineSet
EndChar
StartChar: D
Encoding: 68 68 37
Width: 853
VWidth: 1533
Flags: W
HStem: 0 37<166 519.345> 678 38<279 632.681>
VStem: 788 101<309.767 550.26>
Fore
337 0 m 2
 77 0 l 1
 203 716 l 1
 457 716 l 2
 671 716 889 660 889 445 c 0
 889 314 827 0 337 0 c 2
788 452 m 0
 788 590 700 678 473 678 c 2
 279 678 l 1
 166 37 l 1
 360 37 l 2
 727 37 788 306 788 452 c 0
EndSplineSet
EndChar
StartChar: E
Encoding: 69 69 38
Width: 691
VWidth: 1533
Flags: W
HStem: 0 37<166 676> 366 37<230 631> 678 38<279 796>
Fore
77 0 m 1
 203 716 l 1
 802 716 l 1
 796 678 l 1
 279 678 l 1
 230 403 l 1
 637 403 l 1
 631 366 l 1
 224 366 l 1
 166 37 l 1
 683 37 l 1
 676 0 l 1
 77 0 l 1
EndSplineSet
EndChar
StartChar: F
Encoding: 70 70 39
Width: 691
VWidth: 1533
Flags: W
HStem: 0 21G<77 162.552> 366 37<230 631> 678 38<279 796>
Fore
279 678 m 1
 230 403 l 1
 637 403 l 1
 631 366 l 1
 224 366 l 1
 159 0 l 1
 77 0 l 1
 203 716 l 1
 802 716 l 1
 796 678 l 1
 279 678 l 1
EndSplineSet
EndChar
StartChar: G
Encoding: 71 71 40
Width: 861
VWidth: 1533
Flags: W
HStem: -23 35<347.653 583.054> 328 38<530 779> 704 35<462.411 684.742>
VStem: 95 103<182.728 412.712>
Fore
95 293 m 0
 95 513 307 739 585 739 c 0
 816 739 888 619 913 509 c 1
 808 509 l 1
 801 629 707 704 579 704 c 0
 366 704 198 512 198 288 c 0
 198 130 292 12 453 12 c 0
 531 12 654 41 742 118 c 1
 779 328 l 1
 523 328 l 1
 530 366 l 1
 867 366 l 1
 820 101 l 1
 709 6 566 -23 447 -23 c 0
 251 -23 95 110 95 293 c 0
EndSplineSet
EndChar
StartChar: H
Encoding: 72 72 41
Width: 838
VWidth: 1533
Flags: W
HStem: 0 21G<77 162.552 681 765.52> 366 37<230 746> 696 20G<199.48 285 803.486 888>
Fore
681 0 m 1
 746 366 l 1
 224 366 l 1
 159 0 l 1
 77 0 l 1
 203 716 l 1
 285 716 l 1
 230 403 l 1
 752 403 l 1
 807 716 l 1
 888 716 l 1
 762 0 l 1
 681 0 l 1
EndSplineSet
EndChar
StartChar: I
Encoding: 73 73 42
Width: 236
VWidth: 1533
Flags: W
HStem: 0 21G<77 162.52> 696 20G<199.48 285>
VStem: 77 208<0 716 1.53064e-18 1.53064e-18>
Fore
77 0 m 1
 203 716 l 1
 285 716 l 1
 159 0 l 1
 77 0 l 1
EndSplineSet
EndChar
StartChar: J
Encoding: 74 74 43
Width: 532
VWidth: 1533
Flags: W
HStem: -31 34<149.402 303.04> 696 20G<493.48 581>
VStem: 17 88<48.1254 126.477 124.977 127.977 127.977 136>
Fore
225 3 m 0
 332 3 389 104 406 199 c 2
 497 716 l 1
 581 716 l 1
 493 218 l 2
 468 74 360 -31 223 -31 c 0
 127 -31 17 15 17 120 c 0
 17 125 17 130 18 136 c 1
 107 136 l 1
 106 128 105 121 105 114 c 0
 105 43 153 3 225 3 c 0
EndSplineSet
EndChar
StartChar: K
Encoding: 75 75 44
Width: 751
VWidth: 1533
Flags: W
HStem: 0 21G<77 162.548 626.111 736> 696 20G<199.48 285 682.229 782>
Fore
636 0 m 1
 413 451 l 1
 214 310 l 1
 159 0 l 1
 77 0 l 1
 203 716 l 1
 285 716 l 1
 224 366 l 1
 710 716 l 1
 782 716 l 1
 482 501 l 1
 736 0 l 1
 636 0 l 1
EndSplineSet
EndChar
StartChar: L
Encoding: 76 76 45
Width: 611
VWidth: 1533
Flags: W
HStem: 0 37<166 604> 696 20G<199.48 285>
Fore
77 0 m 1
 203 716 l 1
 285 716 l 1
 166 37 l 1
 611 37 l 1
 604 0 l 1
 77 0 l 1
EndSplineSet
EndChar
StartChar: M
Encoding: 77 77 46
Width: 944
VWidth: 1533
Flags: W
HStem: 0 21G<77 127.528 431.775 463.453 785 871.52> 696 20G<199.48 314.177 883.511 994>
Fore
785 0 m 1
 900 655 l 1
 450 -14 l 1
 438 -14 l 1
 236 635 l 1
 124 0 l 1
 77 0 l 1
 203 716 l 1
 308 716 l 1
 493 117 l 1
 897 716 l 1
 994 716 l 1
 868 0 l 1
 785 0 l 1
EndSplineSet
EndChar
StartChar: N
Encoding: 78 78 47
Width: 818
VWidth: 1533
Flags: W
HStem: -21 21<77 127.52 712.219 741.528> 696 20G<199.48 309.757 817.493 868>
Fore
727 -21 m 1
 237 642 l 1
 124 0 l 1
 77 0 l 1
 203 716 l 1
 295 716 l 1
 720 140 l 1
 821 716 l 1
 868 716 l 1
 738 -21 l 1
 727 -21 l 1
EndSplineSet
EndChar
StartChar: O
Encoding: 79 79 48
Width: 912
VWidth: 1533
Flags: W
HStem: -26 29<345.826 574.639> 710 29<461.689 693.606>
VStem: 95 100<175.115 409.201> 841 102<300.279 530.814>
Fore
95 290 m 0
 95 553 361 739 587 739 c 256
 792 739 943 604 943 419 c 0
 943 186 713 -26 450 -26 c 256
 256 -26 95 98 95 290 c 0
582 710 m 0
 339 710 195 483 195 274 c 0
 195 112 293 3 456 3 c 0
 692 3 841 225 841 437 c 0
 841 600 745 710 582 710 c 0
EndSplineSet
EndChar
StartChar: P
Encoding: 80 80 49
Width: 758
VWidth: 1533
Flags: W
HStem: 0 21G<77 162.547> 327 39<224 294.159 294.159 565.834> 678 38<279 614.049>
VStem: 721 96<471.418 607.442>
Fore
434 716 m 2
 573 716 817 712 817 557 c 0
 817 464 759 325 365 325 c 0
 335 325 256 327 217 327 c 1
 159 0 l 1
 77 0 l 1
 203 716 l 1
 434 716 l 2
721 550 m 0
 721 652 575 678 430 678 c 2
 279 678 l 1
 224 366 l 1
 372 366 l 2
 549 366 721 397 721 550 c 0
EndSplineSet
EndChar
StartChar: Q
Encoding: 81 81 50
Width: 912
VWidth: 1533
Flags: W
HStem: -237 41<611.544 722.65> -25 28<346.795 407> 710 29<463.555 693.606>
VStem: 95 100<184.197 413.295> 407 115<-105.304 -25> 841 102<300.669 530.814>
Fore
95 295 m 0
 95 537 341 739 587 739 c 0
 792 739 943 604 943 419 c 0
 943 206 745 16 522 -21 c 1
 520 -137 607 -196 710 -196 c 0
 725 -196 741 -194 756 -192 c 1
 739 -225 l 1
 713 -233 685 -237 658 -237 c 0
 530 -237 412 -150 407 -25 c 1
 244 -7 95 116 95 295 c 0
582 710 m 0
 339 710 195 483 195 274 c 0
 195 112 293 3 456 3 c 0
 692 3 841 225 841 437 c 0
 841 600 745 710 582 710 c 0
EndSplineSet
EndChar
StartChar: R
Encoding: 82 82 51
Width: 817
VWidth: 1533
Flags: W
HStem: 0 21G<77 162.547 644.5 787> 327 39<224 573.214> 678 38<279 543.498>
VStem: 718 105<478.546 615.591>
Fore
823 559 m 0
 823 415 658 361 576 347 c 1
 784 339 687 112 787 0 c 1
 678 0 l 1
 611 95 667 327 509 327 c 2
 217 327 l 1
 159 0 l 1
 77 0 l 1
 203 716 l 1
 443 716 l 2
 591 716 823 713 823 559 c 0
718 555 m 0
 718 678 538 678 444 678 c 2
 279 678 l 1
 224 366 l 1
 407 366 l 2
 510 366 718 368 718 555 c 0
EndSplineSet
EndChar
StartChar: S
Encoding: 83 83 52
Width: 742
VWidth: 1533
Flags: W
HStem: -25 36<270.718 498.916> 702 34<360.569 613.11>
VStem: 73 102<99.8685 195.738 194.977 196.5 196.5 207> 152 97<496.835 589.754> 646 97<145.071 258.648> 696 89<557 629.531>
Fore
492 702 m 0xd4
 309 702 249 610 249 537 c 0xd4
 249 512 258 492 276 476 c 0
 382 386 608 417 717 304 c 0
 734 286 743 262 743 233 c 0
 743 130 652 -25 364 -25 c 0
 224 -25 73 40 73 186 c 0
 73 193 73 200 74 207 c 1
 176 207 l 1
 175 199 175 190 175 183 c 0
 175 73 263 11 370 11 c 0
 524 11 646 87 646 202 c 0xe8
 646 228 637 248 619 264 c 0
 513 356 278 329 177 436 c 0
 161 454 152 477 152 506 c 0
 152 644 300 736 500 736 c 0
 633 736 786 690 785 557 c 1
 696 557 l 1
 695 667 594 702 492 702 c 0xd4
EndSplineSet
EndChar
StartChar: T
Encoding: 84 84 53
Width: 703
VWidth: 1533
Flags: W
HStem: 0 21G<308 397.54> 678 38<141 428 514 808>
Fore
514 678 m 1
 394 0 l 1
 308 0 l 1
 428 678 l 1
 135 678 l 1
 141 716 l 1
 814 716 l 1
 808 678 l 1
 514 678 l 1
EndSplineSet
EndChar
StartChar: U
Encoding: 85 85 54
Width: 878
VWidth: 1533
Flags: W
HStem: -25 34<330.548 562.701> 696 20G<199.471 285 843.471 928>
VStem: 122 80<125.713 263.374 256.609 270.139 270.139 274 291 293.833>
Fore
440 9 m 256
 602 9 741 115 769 274 c 2
 847 716 l 1
 928 716 l 1
 853 291 l 2
 815 73 638 -25 434 -25 c 256
 253 -25 122 53 122 224 c 0
 122 245 124 267 128 291 c 2
 203 716 l 1
 285 716 l 1
 207 274 l 2
 204 256 202 239 202 222 c 0
 202 86 306 9 440 9 c 256
EndSplineSet
EndChar
StartChar: V
Encoding: 86 86 55
Width: 788
VWidth: 1533
Flags: W
HStem: -20 21G<365.533 401.103> 696 20G<134 233.493 843.039 906>
Fore
387 -20 m 1
 372 -20 l 1
 134 716 l 1
 227 716 l 1
 427 100 l 1
 857 716 l 1
 906 716 l 1
 387 -20 l 1
EndSplineSet
EndChar
StartChar: W
Encoding: 87 87 56
Width: 1048
VWidth: 1533
Flags: W
HStem: -20 21G<279.924 310.479 736.377 766.196> 696 20G<134 228.126 636.336 670.563 1112.85 1167>
Fore
755 -20 m 1
 741 -20 l 1
 606 564 l 1
 300 -20 l 1
 284 -20 l 1
 134 716 l 1
 224 716 l 1
 342 144 l 1
 647 716 l 1
 666 716 l 1
 799 133 l 1
 1124 716 l 1
 1167 716 l 1
 755 -20 l 1
EndSplineSet
EndChar
StartChar: X
Encoding: 88 88 57
Width: 668
VWidth: 1533
Flags: W
HStem: -2 21G<8 72.3681 557.65 661> 696 20G<167 272.118 720.539 785>
Fore
569 -2 m 1
 384 324 l 1
 52 -2 l 1
 8 -2 l 1
 369 351 l 1
 167 716 l 1
 261 716 l 1
 430 412 l 1
 741 716 l 1
 785 716 l 1
 447 385 l 1
 661 -2 l 1
 569 -2 l 1
EndSplineSet
EndChar
StartChar: Y
Encoding: 89 89 58
Width: 737
VWidth: 1533
Flags: W
HStem: 0 21G<316 405.54> 696 20G<134 235.858 787 856>
Fore
459 322 m 1
 402 0 l 1
 316 0 l 1
 370 307 l 1
 134 716 l 1
 224 716 l 1
 441 350 l 1
 807 716 l 1
 856 716 l 1
 459 322 l 1
EndSplineSet
EndChar
StartChar: Z
Encoding: 90 90 59
Width: 657
VWidth: 1533
Flags: W
HStem: 0 37<147 616> 678 38<189 641>
Fore
147 37 m 1
 636 37 l 1
 616 0 l 1
 15 0 l 1
 641 678 l 1
 171 678 l 1
 189 716 l 1
 768 716 l 1
 147 37 l 1
EndSplineSet
EndChar
StartChar: bracketleft
Encoding: 91 91 60
Width: 305
VWidth: 1533
Flags: W
HStem: -202 21G<151.5 194> 721 16<293.009 354>
VStem: 61 296<-66 737 367.552 544.4> 61 59<-154.562 -54.4314>
Fore
191 -202 m 1xd0
 112 -202 61 -164 61 -66 c 0
 61 -45 63 -21 68 5 c 2
 161 532 l 2
 180 641 229 737 357 737 c 1xe0
 354 721 l 1
 266 709 251 658 234 564 c 2
 130 -29 l 2
 125 -58 120 -84 120 -106 c 0
 120 -148 136 -177 194 -186 c 1
 191 -202 l 1xd0
EndSplineSet
EndChar
StartChar: backslash
Encoding: 92 92 61
Width: 326
VWidth: 1533
Flags: W
HStem: -23 21G<273.789 339> 717 20G<118 183.211>
VStem: 118 221<-23 737 737 737>
Fore
278 -23 m 1
 118 737 l 1
 179 737 l 1
 339 -23 l 1
 278 -23 l 1
EndSplineSet
EndChar
StartChar: bracketright
Encoding: 93 93 62
Width: 305
VWidth: 1533
Flags: W
HStem: -202 16<45 104.042> 717 20G<205 247.5>
VStem: 42 295<-202 601 -202 -202> 280 57<583.427 689.827>
Fore
208 737 m 1xd0
 287 737 337 700 337 601 c 0
 337 581 334 558 330 532 c 2
 237 5 l 2
 210 -149 137 -202 42 -202 c 1xe0
 45 -186 l 1
 138 -173 153 -110 167 -29 c 2
 271 564 l 2
 276 591 280 616 280 638 c 0
 280 681 264 712 205 721 c 1
 208 737 l 1xd0
EndSplineSet
EndChar
StartChar: asciicircum
Encoding: 94 94 63
Width: 686
VWidth: 1533
Flags: W
HStem: 281 406<434 559 434 434>
VStem: 159 471<281 281 281 281>
Fore
559 281 m 1
 453 610 l 1
 229 281 l 1
 159 281 l 1
 434 687 l 1
 498 687 l 1
 630 281 l 1
 559 281 l 1
EndSplineSet
EndChar
StartChar: underscore
Encoding: 95 95 64
Width: 574
VWidth: 1533
Flags: W
HStem: -140 56<-7 542>
Fore
-17 -140 m 1
 -7 -84 l 1
 552 -84 l 1
 542 -140 l 1
 -17 -140 l 1
EndSplineSet
EndChar
StartChar: grave
Encoding: 96 96 65
Width: 305
VWidth: 1533
Flags: W
HStem: 650 193
VStem: 137 208<650 806 806 806>
Fore
174 843 m 0
 227 843 319 681 345 650 c 1
 311 650 l 1
 223 712 137 767 137 806 c 0
 137 821 152 843 174 843 c 0
EndSplineSet
EndChar
StartChar: a
Encoding: 97 97 66
Width: 616
VWidth: 1533
Flags: W
HStem: -15 35<200.884 377.406> 293 38<272.004 527> 512 38<302.024 488.096>
VStem: 55 89<70.4593 198.329> 495 64<20.399 155.895> 541 68<343.604 461.927>
Fore
609 394 m 0xf4
 609 292 559 189 559 70 c 0
 559 37 564 17 570 0 c 1
 500 0 l 1
 498 18 495 37 495 59 c 0xf8
 495 68 496 78 497 89 c 1
 439 22 369 -15 252 -15 c 0
 156 -15 55 24 55 123 c 0
 55 206 111 331 455 331 c 2
 533 331 l 1
 537 353 l 2
 540 367 541 380 541 391 c 0
 541 487 463 512 394 512 c 0
 323 512 225 466 211 386 c 1
 126 386 l 1
 171 496 267 550 401 550 c 0
 555 550 609 498 609 394 c 0xf4
423 293 m 2
 200 293 144 196 144 131 c 0
 144 59 216 20 286 20 c 0
 402 20 494 110 518 244 c 2
 527 293 l 1
 423 293 l 2
EndSplineSet
Substitution2: "Single Substitution lookup 22 subtable" uni0E38
Substitution2: "Single Substitution lookup 22 subtable" uni0E38
EndChar
StartChar: b
Encoding: 98 98 67
Width: 668
VWidth: 1533
Flags: W
HStem: -17 38<289.537 439.752> 515 37<351.083 519.027>
VStem: 605 85<212.019 423.318>
Fore
690 326 m 0
 690 142 533 -17 359 -17 c 0
 323 -17 203 -12 157 97 c 1
 140 0 l 1
 69 0 l 1
 200 742 l 1
 271 742 l 1
 215 425 l 1
 287 538 402 552 459 552 c 0
 611 552 690 452 690 326 c 0
434 515 m 0
 304 515 183 363 183 216 c 0
 183 110 244 21 347 21 c 0
 502 21 605 179 605 320 c 0
 605 421 554 515 434 515 c 0
EndSplineSet
Substitution2: "Single Substitution lookup 22 subtable" uni0E39
Substitution2: "Single Substitution lookup 22 subtable" uni0E39
EndChar
StartChar: c
Encoding: 99 99 68
Width: 630
VWidth: 1533
Flags: W
HStem: -17 40<248.022 431.804> 512 38<327.939 510.45>
VStem: 74 89<120.302 325.335> 579 88<386 456.565>
Fore
74 217 m 0
 74 400 243 550 433 550 c 0
 522 550 655 517 667 386 c 1
 579 386 l 1
 561 487 483 512 420 512 c 0
 280 512 163 372 163 214 c 0
 163 102 226 23 334 23 c 0
 396 23 486 47 538 147 c 1
 625 147 l 1
 566 15 416 -17 333 -17 c 0
 189 -17 74 75 74 217 c 0
EndSplineSet
Substitution2: "Single Substitution lookup 22 subtable" uni0E3A
Substitution2: "Single Substitution lookup 22 subtable" uni0E3A
EndChar
StartChar: d
Encoding: 100 100 69
Width: 668
VWidth: 1533
Flags: W
HStem: -17 38<246.125 385.002> 515 37<322.323 493.925>
VStem: 73 86<113.516 325.955>
Fore
73 216 m 0
 73 373 200 552 404 552 c 0
 459 552 571 539 604 425 c 1
 660 742 l 1
 730 742 l 1
 599 0 l 1
 529 0 l 1
 546 97 l 1
 462 -12 340 -17 304 -17 c 0
 161 -17 73 87 73 216 c 0
416 515 m 0
 260 515 159 350 159 213 c 0
 159 113 212 21 329 21 c 0
 474 21 581 181 581 316 c 0
 581 421 522 515 416 515 c 0
EndSplineSet
EndChar
StartChar: e
Encoding: 101 101 70
Width: 657
VWidth: 1533
Flags: W
HStem: -17 38<260.755 443.964> 333 38<214 592> 514 36<332.569 509.584>
VStem: 80 91<120.536 286.29> 574 75<113.086 190> 592 87<371 433.137>
Fore
80 214 m 0xf8
 80 376 226 550 434 550 c 0
 562 550 679 488 679 357 c 0xf4
 679 349 679 341 678 333 c 1
 194 333 l 1
 182 312 171 241 171 210 c 0
 171 98 239 21 355 21 c 0
 443 21 549 94 574 190 c 1
 649 190 l 1
 621 72 489 -17 347 -17 c 0
 213 -17 80 65 80 214 c 0xf8
592 371 m 1
 581 451 520 514 422 514 c 0
 329 514 251 452 214 371 c 1
 592 371 l 1
EndSplineSet
EndChar
StartChar: f
Encoding: 102 102 71
Width: 318
VWidth: 1533
Flags: W
HStem: 0 21G<112 187.547> 468 274<283 353 106 473 441 441> 468 39<129 195 273 353> 682 60<344.925 448.151>
Fore
201 507 m 1xa0
 217 593 283 742 441 742 c 0xc0
 452 742 463 741 473 741 c 1
 460 668 l 1
 440 677 421 682 404 682 c 0
 348 682 298 648 288 590 c 2
 273 507 l 1
 376 507 l 1xb0
 353 468 l 1
 267 468 l 1
 184 0 l 1
 112 0 l 1
 195 468 l 1
 106 468 l 1xc0
 129 507 l 1
 201 507 l 1xa0
EndSplineSet
EndChar
StartChar: g
Encoding: 103 103 72
Width: 659
VWidth: 1533
Flags: W
HStem: -204 34<150.401 425.736> 175 35<251.74 456.939> 509 38<299.687 484.125> 553 68<586.791 667.848>
VStem: 2 81<-121.006 -14.182> 115 85<269.523 412.317> 134 90<113.115 158.701> 538 79<-83.0202 2.80996> 557 83<302.818 456.112>
Fore
640 386 m 0xf880
 640 304 588 181 318 175 c 0
 271 175 224 169 224 144 c 0
 224 84 617 151 617 -12 c 0
 617 -127 475 -204 261 -204 c 0
 187 -204 2 -177 2 -72 c 0
 2 -19 43 33 187 63 c 1
 141 80 134 101 134 116 c 0xfb
 134 169 209 186 232 189 c 1
 171 212 115 276 115 341 c 0
 115 458 274 547 410 547 c 0
 446 547 476 543 503 534 c 1
 565 603 620 621 704 621 c 2
 718 621 l 1
 704 540 l 1
 689 545 661 553 635 553 c 0
 608 553 570 545 538 523 c 1xfd
 565 510 640 467 640 386 c 0xf880
406 509 m 0
 241 509 200 398 200 325 c 0
 200 234 278 210 353 210 c 0
 518 210 557 321 557 394 c 0xfc80
 557 485 481 509 406 509 c 0
292 -170 m 0
 342 -170 538 -150 538 -45 c 0xf9
 538 29 432 48 330 48 c 0
 131 48 83 -15 83 -74 c 0
 83 -148 199 -170 292 -170 c 0
EndSplineSet
EndChar
StartChar: h
Encoding: 104 104 73
Width: 642
VWidth: 1533
Flags: W
HStem: 0 21G<69 143.51 500 576.536> 512 38<330.042 511.474> 682 20G<189.467 264>
VStem: 565 72<351.023 362 371 380.023 380.023 384.546 382.285 461.287>
Fore
425 550 m 0
 518 550 640 518 640 398 c 0
 640 386 639 375 637 362 c 2
 573 0 l 1
 500 0 l 1
 565 371 l 2
 567 381 568 390 568 398 c 0
 568 477 496 512 418 512 c 0
 305 512 213 415 193 302 c 2
 140 0 l 1
 69 0 l 1
 193 702 l 1
 264 702 l 1
 217 435 l 1
 254 488 331 550 425 550 c 0
EndSplineSet
EndChar
StartChar: i
Encoding: 105 105 74
Width: 272
VWidth: 1533
Flags: W
HStem: 0 21G<100 173.514> 515 20G<190.486 264> 604 103<214.15 289.706>
VStem: 199 107<620.118 691.693>
Fore
199 647 m 0
 199 684 233 707 261 707 c 256
 289 707 306 690 306 665 c 0
 306 635 278 604 243 604 c 256
 216 604 199 624 199 647 c 0
100 0 m 1
 194 535 l 1
 264 535 l 1
 170 0 l 1
 100 0 l 1
EndSplineSet
EndChar
StartChar: j
Encoding: 106 106 75
Width: 288
VWidth: 1533
Flags: W
HStem: -189 49<-55.0443 51.9112> 515 20G<208.502 289> 599 108<234.572 309.476>
VStem: 217 111<617.442 689.211>
Fore
217 644 m 0
 217 679 250 707 283 707 c 0
 307 707 328 689 328 663 c 0
 328 631 297 599 264 599 c 0
 235 599 217 620 217 644 c 0
-11 -140 m 0
 72 -140 108 -54 127 49 c 2
 212 535 l 1
 289 535 l 1
 207 66 l 2
 187 -46 125 -189 -21 -189 c 0
 -45 -189 -86 -183 -114 -161 c 1
 -73 -106 l 1
 -60 -126 -45 -140 -11 -140 c 0
EndSplineSet
EndChar
StartChar: k
Encoding: 107 107 76
Width: 601
VWidth: 1533
Flags: W
HStem: 0 21G<84 158.525 493.309 586> 515 20G<519.818 614>
Fore
504 0 m 1
 326 333 l 1
 198 244 l 1
 155 0 l 1
 84 0 l 1
 215 742 l 1
 286 742 l 1
 207 293 l 1
 548 535 l 1
 614 535 l 1
 386 376 l 1
 586 0 l 1
 504 0 l 1
EndSplineSet
EndChar
StartChar: l
Encoding: 108 108 77
Width: 239
VWidth: 1533
Flags: W
HStem: 0 21G<84 158.531>
VStem: 84 202<0 742 1.53064e-18 1.53064e-18>
Fore
84 0 m 1
 215 742 l 1
 286 742 l 1
 155 0 l 1
 84 0 l 1
EndSplineSet
EndChar
StartChar: m
Encoding: 109 109 78
Width: 1008
VWidth: 1533
Flags: W
HStem: 0 21G<69 148 474 550.516 866 943.533> 511 38<330.057 483.16 711.632 880.176>
VStem: 929 73<340 351 360 365.554 365.554 375.523 370.539 461.881>
Fore
410 511 m 0
 168 511 156 88 140 0 c 1
 69 0 l 1
 163 534 l 1
 234 534 l 1
 217 434 l 1
 288 537 386 549 435 549 c 0
 549 549 591 480 602 414 c 1
 659 521 734 549 810 549 c 0
 894 549 1006 516 1006 393 c 0
 1006 380 1005 366 1002 351 c 2
 940 0 l 1
 866 0 l 1
 929 360 l 2
 931 371 932 381 932 391 c 0
 932 467 877 511 797 511 c 0
 661 511 616 389 595 273 c 2
 547 0 l 1
 474 0 l 1
 526 294 l 2
 530 317 532 341 532 364 c 0
 532 441 505 511 410 511 c 0
EndSplineSet
EndChar
StartChar: n
Encoding: 110 110 79
Width: 642
VWidth: 1533
Flags: W
HStem: 0 21G<69 143.522 500 576.5> 511 38<331.087 510.435>
VStem: 565 71<350.077 360 360 378.523 378.523 382.523 380.523 460.166>
Fore
425 549 m 0
 536 549 639 506 639 397 c 0
 639 385 638 373 636 360 c 2
 573 0 l 1
 500 0 l 1
 565 370 l 2
 567 379 567 387 567 395 c 0
 567 467 509 511 418 511 c 0
 313 511 214 420 193 301 c 2
 140 0 l 1
 69 0 l 1
 163 534 l 1
 234 534 l 1
 217 434 l 1
 259 495 341 549 425 549 c 0
EndSplineSet
EndChar
StartChar: o
Encoding: 111 111 80
Width: 682
VWidth: 1533
Flags: W
HStem: -15 38<247.722 453.205> 509 38<326.913 529.007>
VStem: 80 87<113.247 320.473> 611 85<207.353 419.814>
Fore
80 211 m 0
 80 400 245 547 438 547 c 0
 596 547 696 459 696 321 c 0
 696 124 525 -15 337 -15 c 256
 197 -15 80 66 80 211 c 0
432 509 m 0
 220 509 167 311 167 200 c 0
 167 94 222 23 347 23 c 0
 559 23 611 223 611 333 c 0
 611 464 529 509 432 509 c 0
EndSplineSet
EndChar
StartChar: p
Encoding: 112 112 81
Width: 668
VWidth: 1533
Flags: W
HStem: -198 21G<34 108.541> -20 37<266.632 439.599> 509 38<378.269 519.514>
VStem: 163 57<501.694 532> 605 84<209.078 419.012>
Fore
689 315 m 0
 689 157 562 -20 358 -20 c 0
 301 -20 191 -6 159 107 c 1
 105 -198 l 1
 34 -198 l 1
 163 532 l 1
 220 532 l 1
 214 432 l 1
 298 542 422 547 458 547 c 0
 608 547 689 439 689 315 c 0
433 509 m 0
 295 509 182 359 182 214 c 0
 182 106 243 17 346 17 c 0
 501 17 605 182 605 319 c 0
 605 419 552 509 433 509 c 0
EndSplineSet
EndChar
StartChar: q
Encoding: 113 113 82
Width: 668
VWidth: 1533
Flags: W
HStem: -198 21G<494 567.534> -20 37<244.283 415.547> 509 38<320.735 472.762>
VStem: 73 86<107.866 318.023>
Fore
73 204 m 0
 73 384 219 547 403 547 c 0
 440 547 562 542 606 432 c 1
 637 532 l 1
 693 532 l 1
 564 -198 l 1
 494 -198 l 1
 548 107 l 1
 475 -7 358 -20 303 -20 c 0
 158 -20 73 72 73 204 c 0
415 509 m 0
 260 509 159 352 159 213 c 0
 159 114 208 17 328 17 c 0
 472 17 580 181 580 316 c 0
 580 416 525 509 415 509 c 0
EndSplineSet
EndChar
StartChar: r
Encoding: 114 114 83
Width: 366
VWidth: 1533
Flags: W
HStem: 0 21G<69 143.551> 481 65<332.337 419.198>
VStem: 69 378<0 544 -108.5 0>
Fore
213 415 m 1
 242 473 327 546 418 546 c 0
 433 546 443 544 447 544 c 1
 423 472 l 1
 407 478 393 481 381 481 c 0
 256 481 205 369 189 276 c 2
 140 0 l 1
 69 0 l 1
 163 534 l 1
 234 534 l 1
 213 415 l 1
EndSplineSet
EndChar
StartChar: s
Encoding: 115 115 84
Width: 591
VWidth: 1533
Flags: W
HStem: -18 38<209.921 422.681> 509 38<274.43 475.994>
VStem: 65 75<84.3977 152> 135 77<348.42 447.195> 502 80<95.9161 192.506> 541 75<379 448.399>
Fore
135 372 m 0xd8
 135 477 242 547 397 547 c 0
 515 547 616 492 616 379 c 1
 541 379 l 1
 539 474 458 509 389 509 c 0
 314 509 212 487 212 397 c 0xd4
 212 252 582 342 582 176 c 0
 582 68 478 -18 293 -18 c 0
 202 -18 71 22 65 152 c 1
 140 152 l 1xe8
 138 81 203 20 300 20 c 0
 461 20 502 97 502 149 c 0
 502 285 135 192 135 372 c 0xd8
EndSplineSet
EndChar
StartChar: t
Encoding: 116 116 85
Width: 335
VWidth: 1533
Flags: W
HStem: -9 43<213.092 286.966> 468 36<120 193 271 370 114 376 120 120>
VStem: 135 67<44.8542 132.334 122.316 142.352 142.352 157.576>
Fore
262 34 m 0
 277 34 297 36 343 57 c 1
 335 9 l 1
 304 -3 275 -9 246 -9 c 0
 161 -9 135 41 135 105 c 0
 135 123 137 142 140 161 c 2
 195 468 l 1
 114 468 l 1
 120 504 l 1
 193 504 l 1
 279 656 l 1
 298 656 l 1
 271 504 l 1
 376 504 l 1
 370 468 l 1
 265 468 l 1
 206 138 l 2
 204 124 202 111 202 99 c 0
 202 60 217 34 262 34 c 0
EndSplineSet
EndChar
StartChar: u
Encoding: 117 117 86
Width: 642
VWidth: 1533
Flags: W
HStem: -17 38<225.183 403.091> 514 20G<159.464 237 593.478 667>
VStem: 96 74<72.2379 152.227 150.477 153.977 153.977 182.977>
Fore
318 21 m 0
 431 21 525 122 544 233 c 2
 597 534 l 1
 667 534 l 1
 573 0 l 1
 503 0 l 1
 521 100 l 1
 475 36 389 -17 311 -17 c 0
 219 -17 96 15 96 136 c 0
 96 148 97 159 99 172 c 2
 163 534 l 1
 237 534 l 1
 172 163 l 2
 170 154 170 146 170 138 c 0
 170 66 227 21 318 21 c 0
EndSplineSet
EndChar
StartChar: v
Encoding: 118 118 87
Width: 579
VWidth: 1533
Flags: W
HStem: -17 21G<277.285 307.612> 514 20G<99 184.834 614.333 669>
Fore
294 -17 m 1
 284 -17 l 1
 99 534 l 1
 178 534 l 1
 328 95 l 1
 628 534 l 1
 669 534 l 1
 294 -17 l 1
EndSplineSet
EndChar
StartChar: w
Encoding: 119 119 88
Width: 898
VWidth: 1533
Flags: W
HStem: -17 21G<249.338 276.963 624.907 653.595> 514 20G<99 180.591 541.565 569.056 933.643 988>
Fore
641 -17 m 1
 630 -17 l 1
 521 411 l 1
 265 -17 l 1
 255 -17 l 1
 99 534 l 1
 175 534 l 1
 298 94 l 1
 553 540 l 1
 564 540 l 1
 676 97 l 1
 946 534 l 1
 988 534 l 1
 641 -17 l 1
EndSplineSet
EndChar
StartChar: x
Encoding: 120 120 89
Width: 544
VWidth: 1533
Flags: W
HStem: 0 21G<5 71.4184 443.444 540> 514 20G<99 194.182 530.545 597>
Fore
457 0 m 1
 295 239 l 1
 51 0 l 1
 5 0 l 1
 277 267 l 1
 99 534 l 1
 181 534 l 1
 326 314 l 1
 551 534 l 1
 597 534 l 1
 345 288 l 1
 540 0 l 1
 457 0 l 1
EndSplineSet
EndChar
StartChar: y
Encoding: 121 121 90
Width: 584
VWidth: 1533
Flags: W
HStem: -202 49<8.35402 141.517> 514 20G<99 184.847 617.441 674>
Fore
83 -153 m 0
 153 -153 265 -55 265 22 c 0
 265 32 263 45 257 71 c 2
 99 534 l 1
 178 534 l 1
 330 90 l 1
 631 534 l 1
 674 534 l 1
 301 -15 l 2
 291 -30 182 -202 70 -202 c 0
 22 -202 -7 -186 -20 -175 c 1
 22 -120 l 1
 33 -140 49 -153 83 -153 c 0
EndSplineSet
EndChar
StartChar: z
Encoding: 122 122 91
Width: 544
VWidth: 1533
Flags: W
HStem: 0 40<137 495> 495 39<171 502>
Fore
137 40 m 1
 519 40 l 1
 495 0 l 1
 15 0 l 1
 502 495 l 1
 151 495 l 1
 171 534 l 1
 623 534 l 1
 137 40 l 1
EndSplineSet
EndChar
StartChar: braceleft
Encoding: 123 123 92
Width: 387
VWidth: 1533
Flags: W
HStem: -209 19<227.793 277> 721 20<390.352 441>
VStem: 135 79<-166.815 20.7766> 182 74<43.3712 233.57>
Fore
256 153 m 0xd0
 256 60 214 -27 214 -114 c 0
 214 -177 241 -190 280 -190 c 1
 277 -209 l 1
 275 -209 l 2
 200 -209 135 -189 135 -90 c 0xe0
 135 -9 182 80 182 168 c 0
 182 247 139 258 121 265 c 1
 338 340 121 741 445 741 c 1
 441 721 l 1
 325 721 335 560 317 459 c 0
 287 291 214 274 180 267 c 1
 237 253 256 212 256 153 c 0xd0
EndSplineSet
EndChar
StartChar: bar
Encoding: 124 124 93
Width: 263
VWidth: 1533
Flags: W
VStem: 51 261<-279 839 -279 -279>
Fore
51 -279 m 1
 248 839 l 1
 312 839 l 1
 115 -279 l 1
 51 -279 l 1
EndSplineSet
EndChar
StartChar: braceright
Encoding: 125 125 94
Width: 387
VWidth: 1533
Flags: W
HStem: -209 19<40 96.9565> 721 20<205 253.532>
VStem: 225 73<298.102 484.261> 266 80<513.904 699.649>
Fore
346 623 m 0xd0
 346 542 298 446 298 363 c 0
 298 282 346 270 361 265 c 1
 234 226 253 85 233 -40 c 0
 208 -184 124 -209 37 -209 c 1
 40 -190 l 1
 224 -190 81 215 300 267 c 1
 244 280 225 319 225 378 c 0xe0
 225 472 266 566 266 648 c 0
 266 697 248 721 201 721 c 1
 205 741 l 1
 283 741 346 721 346 623 c 0xd0
EndSplineSet
EndChar
StartChar: asciitilde
Encoding: 126 126 95
Width: 686
VWidth: 1533
Flags: W
HStem: 222 62<441.59 569.32> 297 63<213.828 357.041>
Fore
513 284 m 0
 546 284 571 298 625 363 c 1
 659 317 l 1
 591 243 553 222 500 222 c 0
 411 222 369 297 273 297 c 0
 227 297 211 277 162 218 c 1
 131 265 l 1
 183 320 210 360 290 360 c 0
 370 360 450 284 513 284 c 0
EndSplineSet
EndChar
StartChar: uni0E33.alt1
Encoding: 65537 -1 96
Width: 604
VWidth: 1533
Flags: W
HStem: 0 21<435 515.544> 593 31<279.786 462.7> 690 37<-268.713 -156.644> 895 40<-246.026 -135.181>
VStem: -326 39<745.535 854.701> -116 39<768.151 876.368> 509 76<402.041 412 422 429.009 429.009 436.559 432.784 544.986>
Back
-78 813 m 256
 -84 779 -101.167 750 -129.5 726 c 128
 -157.833 702 -188.667 690 -222 690 c 256
 -256 690 -283 702 -303 726 c 128
 -323 750 -330 779 -324 813 c 256
 -317.333 846.333 -300 875 -272 899 c 128
 -244 923 -213 935 -179 935 c 256
 -145.667 935 -119 923 -99 899 c 128
 -79 875 -72 846.333 -78 813 c 256
420 0 m 1
 494 422 l 2
 502 470.667 495.5 511.333 474.5 544 c 128
 453.5 576.667 415 593 359 593 c 0
 328.333 593 301.667 588.5 279 579.5 c 128
 256.333 570.5 236.833 558.333 220.5 543 c 128
 204.167 527.667 190.5 510.833 179.5 492.5 c 128
 168.5 474.167 159.667 455.667 153 437 c 1
 75 437 l 1
 93.6667 491 127.667 535.667 177 571 c 128
 226.333 606.333 288.333 624 363 624 c 0
 435.667 624 491.5 607.167 530.5 573.5 c 128
 569.5 539.833 582.333 486 569 412 c 2
 497 0 l 1
 420 0 l 1
-117 811 m 128
 -112.333 834.333 -117 854.167 -131 870.5 c 128
 -145 886.833 -163.667 895 -187 895 c 256
 -210.333 895 -231.5 886.833 -250.5 870.5 c 128
 -269.5 854.167 -281 834.333 -285 811 c 0
 -290.333 787.667 -286 767.833 -272 751.5 c 128
 -258 735.167 -239.333 727 -216 727 c 256
 -192.667 727 -171.5 735.167 -152.5 751.5 c 128
 -133.5 767.833 -121.667 787.667 -117 811 c 128
EndSplineSet
Refer: 284 3661 N 1 0 0 1 -216 0 2
Refer: 261 3634 N 1 0 0 1 0 0 2
EndChar
StartChar: quotedbl
Encoding: 34 34 97
Width: 377
VWidth: 1533
Flags: W
HStem: 386 351<170 183>
VStem: 168 262<386 701 386 701 386 386> 168 101<602.236 685.952>
Fore
430 701 m 0xc0
 430 646 376 498 346 386 c 1
 330 386 l 1
 343 552 332 567 353 688 c 0
 357 710 369 737 400 737 c 256
 424 737 430 718 430 701 c 0xc0
168 386 m 1
 185 629 170 737 239 737 c 256
 263 737 269 718 269 702 c 0xa0
 269 650 213 493 183 386 c 1
 168 386 l 1
EndSplineSet
EndChar
StartChar: exclam
Encoding: 33 33 98
Width: 315
VWidth: 1533
Flags: W
HStem: -15 102<129.798 203.518> 719 20G<265.5 306>
VStem: 115 216<26 686 26 26> 115 105<1.24023 71.9625>
Fore
331 686 m 0xe0
 331 604 256 385 187 129 c 1
 175 129 l 1
 196 399 182 450 216 642 c 0
 224 689 242 739 289 739 c 256
 323 739 331 713 331 686 c 0xe0
115 26 m 0
 115 62 145 87 176 87 c 0
 199 87 220 70 220 45 c 0xd0
 220 18 194 -15 158 -15 c 256
 133 -15 115 1 115 26 c 0
EndSplineSet
EndChar
StartChar: exclamdown
Encoding: 161 161 100
Width: 286
VWidth: 1533
Flags: W
HStem: 498 103<200.757 275.694>
VStem: 74 217<-101 560 -101 -101> 186 105<513.537 586.31>
Fore
116 -153 m 256xc0
 82 -153 74 -129 74 -101 c 0
 74 -88 76 -74 78 -61 c 0
 86 -19 215 448 217 460 c 1
 231 460 l 1
 195 -7 193 -33 189 -59 c 0
 181 -103 163 -153 116 -153 c 256xc0
291 560 m 0
 291 527 263 498 229 498 c 256
 205 498 186 516 186 541 c 0xa0
 186 575 215 601 247 601 c 256
 273 601 291 585 291 560 c 0
EndSplineSet
EndChar
StartChar: cent
Encoding: 162 162 101
Width: 601
VWidth: 1533
Flags: W
HStem: -18 21G<317 359.54> 95 32<278.631 337 376 446.759> 560 29<352.016 424 463 513.567> 687 20G<441.441 484>
VStem: 130 79<206.283 398.68> 574 75<448 507.836>
Fore
435 560 m 0
 322 560 209 444 209 296 c 0
 209 198 264 127 358 127 c 0
 407 127 488 148 537 238 c 1
 612 238 l 1
 573 149 480 101 376 95 c 1
 356 -18 l 1
 317 -18 l 1
 337 95 l 1
 229 101 130 175 130 298 c 0
 130 460 280 581 424 589 c 1
 445 707 l 1
 484 707 l 1
 463 589 l 1
 526 585 639 559 649 448 c 1
 574 448 l 1
 553 539 481 560 435 560 c 0
EndSplineSet
EndChar
StartChar: sterling
Encoding: 163 163 102
Width: 716
VWidth: 1533
Flags: W
HStem: -18 84<522.426 605.868> -15 41<76.8079 178.423> 166 26<117.314 249.889> 348 34<223 305 404 564> 547 21G<648 703.484> 664 29<441.351 598.058>
VStem: -3 73<34.9895 113.401> 301 71<431.439 545.644> 308 100<206.929 215 272.894 333.612 333.612 348> 315 93<225.922 333.413>
Fore
195 166 m 0x7e
 111 166 70 110 70 68 c 0
 70 34 106 26 141 26 c 0
 206 26 265 89 290 149 c 1
 264 160 233 166 195 166 c 0x7e
-3 57 m 0
 -3 120 82 192 200 192 c 0
 238 192 272 188 302 181 c 1
 304 187 305 192 305 194 c 2
 309 218 l 2
 312 233 315 248 315 272 c 0x7e40
 315 291 313 315 308 348 c 1x7e80
 202 348 l 1
 223 382 l 1
 305 382 l 1
 302 399 301 415 301 429 c 0
 301 566 384 693 541 693 c 0
 652 693 708 649 734 578 c 1
 648 547 l 1
 648 558 l 2
 648 650 547 664 509 664 c 0
 447 664 386 611 376 557 c 0
 373 540 372 524 372 508 c 0x7f
 372 492 373 477 377 462 c 2
 397 382 l 1
 585 382 l 1
 564 348 l 1
 404 348 l 1
 406 336 408 324 408 310 c 0
 408 250 391 207 363 164 c 1
 386 155 406 144 425 132 c 2
 477 100 l 2
 528 70 554 66 575 66 c 0
 622 66 675 82 733 175 c 1
 749 169 l 1
 716 93 637 -18 520 -18 c 0xbe80
 499 -18 465 -16 421 30 c 2
 379 76 l 2
 364 93 349 108 333 123 c 1
 281 65 184 -15 89 -15 c 0
 39 -15 -3 16 -3 57 c 0
EndSplineSet
EndChar
StartChar: currency
Encoding: 164 164 103
Width: 716
VWidth: 1533
Flags: W
HStem: 69 52<286.739 476.325> 566 50<358.255 547.474>
VStem: 139 51<216.878 398.599> 642 52<284.756 470.387>
Fore
377 121 m 256
 515 121 642 245 642 382 c 0
 642 485 565 566 456 566 c 256
 322 566 190 442 190 306 c 0
 190 204 263 121 377 121 c 256
694 392 m 0
 694 304 651 223 600 172 c 1
 652 109 l 1
 605 69 l 1
 553 132 l 1
 505 95 442 69 368 69 c 0
 312 69 253 86 207 129 c 1
 136 69 l 1
 103 109 l 1
 174 169 l 1
 149 207 139 251 139 294 c 0
 139 361 167 452 237 518 c 1
 186 578 l 1
 233 618 l 1
 284 558 l 1
 319 582 380 616 465 616 c 256
 521 616 582 599 627 555 c 1
 701 618 l 1
 734 578 l 1
 660 515 l 1
 684 477 694 434 694 392 c 0
EndSplineSet
EndChar
StartChar: yen
Encoding: 165 165 104
Width: 702
VWidth: 1533
Flags: W
HStem: 181 29<172 334 420 585> 302 29<193 342 444 606>
Fore
444 331 m 1
 611 331 l 1
 606 302 l 1
 436 302 l 1
 420 210 l 1
 590 210 l 1
 585 181 l 1
 415 181 l 1
 383 2 l 1
 302 2 l 1
 334 181 l 1
 167 181 l 1
 172 210 l 1
 339 210 l 1
 355 302 l 1
 188 302 l 1
 193 331 l 1
 342 331 l 1
 131 698 l 1
 220 698 l 1
 421 350 l 1
 770 698 l 1
 818 698 l 1
 444 331 l 1
EndSplineSet
EndChar
StartChar: brokenbar
Encoding: 166 166 105
Width: 246
VWidth: 1533
Flags: W
HStem: -196 21G<60 120.575>
VStem: 60 225<-196 754 -576.035 -196>
Fore
228 754 m 1
 285 754 l 1
 217 370 l 1
 160 370 l 1
 228 754 l 1
129 190 m 1
 186 190 l 1
 117 -196 l 1
 60 -196 l 1
 129 190 l 1
EndSplineSet
EndChar
StartChar: section
Encoding: 167 167 106
Width: 613
VWidth: 1533
Flags: W
HStem: -175 34<176.743 373.444> 710 29<362.38 527.083>
VStem: 41 82<-80.5117 3.23846 -0.0230713 6.5 6.5 14> 120 87<252.307 340.789> 222 77<518.069 627.144> 466 89<-34.4061 66.0084> 521 78<247.28 336.438> 568 72<595 634.396>
Fore
120 272 m 0xdc
 120 344 159 412 259 452 c 1
 228 479 222 513 222 540 c 0
 222 659 322 739 457 739 c 0
 535 739 625 711 640 595 c 1
 568 595 l 1xdd
 566 623 561 710 452 710 c 0
 320 710 299 613 299 574 c 0
 299 429 599 481 599 314 c 0xca
 599 281 585 194 498 152 c 1
 519 139 555 108 555 48 c 0
 555 -75 424 -175 254 -175 c 0
 149 -175 41 -114 41 -1 c 0
 41 4 42 9 42 14 c 1
 125 14 l 1
 124 4 123 -5 123 -14 c 0xec
 123 -93 176 -141 260 -141 c 0
 420 -141 466 -47 466 16 c 0
 466 161 120 84 120 272 c 0xdc
279 434 m 1
 217 399 207 325 207 302 c 0
 207 201 366 207 464 167 c 1
 516 197 521 270 521 284 c 0xda
 521 385 365 380 279 434 c 1
EndSplineSet
EndChar
StartChar: dieresis
Encoding: 168 168 107
Width: 392
VWidth: 1533
Flags: W
HStem: 673 112<190.791 267.208 383.14 459.208>
VStem: 171 114<690.349 764.98> 363 114<690.349 765.245>
Fore
285 739 m 0
 285 700 252 673 220 673 c 256
 191 673 171 693 171 719 c 0
 171 752 203 785 239 785 c 256
 266 785 285 765 285 739 c 0
477 739 m 0
 477 700 444 673 412 673 c 0
 382 673 363 693 363 719 c 0
 363 748 391 785 431 785 c 0
 458 785 477 765 477 739 c 0
EndSplineSet
EndChar
StartChar: copyright
Encoding: 169 169 108
Width: 896
VWidth: 1533
Flags: W
HStem: -23 48<344.846 567.628> 146 30<412.155 562.345> 546 30<471.819 621.147> 693 46<459.266 680.83>
VStem: 115 56<198.384 413.33> 276 81<242.904 416.935> 671 72<446 509.925> 851 55<303.571 523.834>
Fore
115 294 m 0
 115 530 346 739 579 739 c 256
 767 739 906 601 906 421 c 0
 906 193 682 -23 445 -23 c 256
 257 -23 115 113 115 294 c 0
571 693 m 256
 367 693 171 500 171 307 c 0
 171 156 286 25 453 25 c 0
 646 25 851 208 851 414 c 0
 851 569 732 693 571 693 c 256
547 546 m 0
 446 546 357 438 357 324 c 0
 357 248 393 176 482 176 c 0
 567 176 621 241 642 276 c 1
 713 276 l 1
 660 169 551 146 481 146 c 0
 363 146 276 222 276 326 c 0
 276 450 401 576 557 576 c 0
 627 576 728 553 743 446 c 1
 671 446 l 1
 663 484 632 546 547 546 c 0
EndSplineSet
EndChar
StartChar: ordfeminine
Encoding: 170 170 109
Width: 401
VWidth: 1533
Flags: W
HStem: 337 370<190 314 226 324 344.603 375.75> 337 25<186.345 322.204> 541 26<229.389 383.687 383.687 400> 681 26<252.549 385.424>
VStem: 92 375<430 605 430 605 450.603 481.75> 92 70<385.862 487.039> 385 59<347 357.973 357.973 377.234 367.603 398.75 386.5 394> 409 58<572.653 657.95>
Fore
405 569 m 1x28
 407 579 409 588 409 601 c 0
 409 641 389 681 319 681 c 0x31
 254 681 211 628 205 593 c 1
 137 593 l 1
 150 625 190 707 324 707 c 0
 400 707 467 685 467 605 c 0x88
 467 595 466 584 464 573 c 2
 440 438 l 2
 438 424 437 411 437 399 c 0
 437 380 439 363 444 347 c 1
 385 347 l 1
 382 358 381 369 381 379 c 0
 381 384 381 389 382 394 c 1
 355 367 314 337 226 337 c 0x82
 154 337 92 370 92 430 c 0
 92 540 238 567 345 567 c 2
 367 567 l 2
 382 567 390 569 405 569 c 1x28
340 541 m 2
 240 541 162 498 162 433 c 0
 162 392 200 362 250 362 c 0x64
 304 362 375 398 394 506 c 2
 400 541 l 1
 340 541 l 2
EndSplineSet
EndChar
StartChar: guillemotleft
Encoding: 171 171 110
Width: 561
VWidth: 1533
Flags: W
HStem: 75 432<231 307 307 307>
VStem: 125 416<291 472 291 291>
Fore
359 472 m 1
 180 291 l 1
 295 110 l 1
 231 75 l 1
 125 291 l 1
 307 507 l 1
 359 472 l 1
541 472 m 1
 362 291 l 1
 477 110 l 1
 413 75 l 1
 309 291 l 1
 489 507 l 1
 541 472 l 1
EndSplineSet
EndChar
StartChar: logicalnot
Encoding: 172 172 111
Width: 643
VWidth: 1533
Flags: W
HStem: 376 56<97 603>
Fore
603 376 m 1
 87 376 l 1
 97 432 l 1
 669 432 l 1
 616 129 l 1
 560 129 l 1
 603 376 l 1
EndSplineSet
EndChar
StartChar: registered
Encoding: 174 174 112
Width: 896
VWidth: 1533
Flags: W
HStem: -23 48<344.846 566.213> 342 29<421 554.87> 534 29<450 558.661> 693 46<459.266 680.459>
VStem: 115 56<198.384 413.33> 634 74<414.717 512.537> 851 55<302.617 520.725>
Fore
115 294 m 0
 115 530 346 739 579 739 c 256
 765 739 906 603 906 422 c 0
 906 186 674 -23 445 -23 c 256
 257 -23 115 113 115 294 c 0
571 693 m 256
 367 693 171 500 171 307 c 0
 171 156 286 25 453 25 c 0
 646 25 851 208 851 414 c 0
 851 569 732 693 571 693 c 256
708 473 m 0
 708 395 612 358 579 353 c 1
 608 349 633 339 646 270 c 2
 658 207 l 2
 662 186 671 168 683 155 c 1
 611 155 l 1
 581 200 593 342 515 342 c 2
 416 342 l 1
 383 155 l 1
 321 155 l 1
 393 563 l 1
 521 563 l 2
 613 563 708 545 708 473 c 0
467 371 m 2
 539 371 634 376 634 471 c 0
 634 531 556 534 490 534 c 2
 450 534 l 1
 421 371 l 1
 467 371 l 2
EndSplineSet
EndChar
StartChar: macron
Encoding: 175 175 113
Width: 340
VWidth: 1533
Flags: W
HStem: 698 59<133 463 133 463 133 133>
Fore
133 757 m 1
 473 757 l 1
 463 698 l 1
 123 698 l 1
 133 757 l 1
EndSplineSet
EndChar
StartChar: degree
Encoding: 176 176 114
Width: 383
VWidth: 1533
Flags: W
HStem: 382 43<202.821 337.752> 662 45<236.436 372.154>
VStem: 123 45<458.989 592.147> 408 43<493.038 627.031>
Fore
123 515 m 0
 123 609 210 707 317 707 c 256
 402 707 451 641 451 570 c 0
 451 478 365 382 259 382 c 256
 169 382 123 446 123 515 c 0
267 425 m 256
 339 425 408 489 408 563 c 0
 408 615 372 662 309 662 c 256
 224 662 168 586 168 521 c 0
 168 465 209 425 267 425 c 256
EndSplineSet
EndChar
StartChar: plusminus
Encoding: 177 177 115
Width: 662
VWidth: 1533
Flags: W
HStem: 0 49<55 616> 331 48<113 362 426 674>
Fore
417 331 m 1
 381 127 l 1
 326 127 l 1
 362 331 l 1
 104 331 l 1
 113 379 l 1
 371 379 l 1
 406 581 l 1
 461 581 l 1
 426 379 l 1
 683 379 l 1
 674 331 l 1
 417 331 l 1
46 0 m 1
 55 49 l 1
 625 49 l 1
 616 0 l 1
 46 0 l 1
EndSplineSet
EndChar
StartChar: twosuperior
Encoding: 178 178 116
Width: 424
VWidth: 1533
Flags: W
HStem: 282 49<150 433> 675 29<256.494 387.82>
VStem: 115 59<576.689 631.328> 415 61<526.813 648.12>
Fore
73 282 m 1
 130 461 415 434 415 589 c 0
 415 627 396 675 315 675 c 0
 254 675 188 642 174 566 c 1
 115 566 l 1
 157 695 284 704 320 704 c 0
 415 704 476 660 476 593 c 0
 476 425 191 423 150 331 c 1
 441 331 l 1
 433 282 l 1
 73 282 l 1
EndSplineSet
EndChar
StartChar: threesuperior
Encoding: 179 179 117
Width: 424
VWidth: 1533
Flags: W
HStem: 273 26<195.205 353.06> 485 29<261.31 379.053> 682 25<267.739 409.705>
VStem: 104 58<330.731 397.977 397.977 409> 160 60<598.374 658.911> 420 58<358.254 459.608> 432 61<561.316 660.003>
Fore
478 417 m 0xe4
 478 331 383 273 261 273 c 0
 219 273 104 282 104 409 c 1
 164 409 l 1
 163 401 162 394 162 387 c 0
 162 326 213 299 267 299 c 0
 343 299 420 347 420 416 c 0xf4
 420 466 363 485 307 485 c 0
 289 485 269 483 251 480 c 1
 257 517 l 1
 270 515 282 514 294 514 c 0
 376 514 432 563 432 613 c 0
 432 644 411 682 336 682 c 0
 277 682 235 644 220 584 c 1
 160 584 l 1
 179 661 255 707 341 707 c 0
 407 707 493 689 493 618 c 0xea
 493 549 427 515 394 503 c 1
 439 494 478 468 478 417 c 0xe4
EndSplineSet
EndChar
StartChar: acute
Encoding: 180 180 118
Width: 280
VWidth: 1533
Flags: W
HStem: 650 193<213 422 422 422>
VStem: 181 267<652 817 652 652>
Fore
422 843 m 0
 438 843 448 832 448 817 c 0
 448 794 428 782 396 760 c 2
 213 650 l 1
 181 652 l 1
 381 826 l 2
 392 837 405 843 422 843 c 0
EndSplineSet
EndChar
StartChar: mu
Encoding: 181 181 119
Width: 679
VWidth: 1533
Flags: W
HStem: -18 36<242.154 411.4>
Fore
323 18 m 0
 461 18 553 133 575 253 c 2
 632 581 l 1
 708 581 l 1
 606 0 l 1
 544 0 l 1
 551 121 l 1
 478 1 357 -18 299 -18 c 0
 239 -18 193 3 161 44 c 1
 116 -210 l 1
 37 -210 l 1
 176 581 l 1
 257 581 l 1
 196 235 l 2
 191 208 189 184 189 164 c 0
 189 39 266 18 323 18 c 0
EndSplineSet
EndChar
StartChar: paragraph
Encoding: 182 182 120
Width: 561
VWidth: 1533
Flags: W
HStem: 678 40<427 505 560 652>
Fore
111 437 m 0
 111 616 244 718 380 718 c 2
 659 718 l 1
 652 678 l 1
 560 678 l 1
 414 -150 l 1
 359 -150 l 1
 505 678 l 1
 427 678 l 1
 281 -150 l 1
 224 -150 l 1
 296 262 l 1
 152 262 111 349 111 437 c 0
EndSplineSet
EndChar
StartChar: periodcentered
Encoding: 183 183 121
Width: 259
VWidth: 1533
Flags: W
HStem: 236 112<143.5 219.893>
VStem: 124 114<254.442 329.193>
Fore
238 302 m 0
 238 265 206 236 171 236 c 0
 142 236 124 257 124 281 c 0
 124 314 154 348 190 348 c 0
 220 348 238 327 238 302 c 0
EndSplineSet
EndChar
StartChar: cedilla
Encoding: 184 184 122
Width: 225
VWidth: 1533
Flags: W
HStem: -241 32<1.81849 104.851> -104 32<85.8909 117.188> -20 20G<85.1818 126>
VStem: 124 76<-189.023 -111.948>
Fore
43 -209 m 0
 78 -209 124 -189 124 -148 c 0
 124 -121 97 -104 79 -104 c 0
 61 -104 41 -108 32 -110 c 1
 97 0 l 1
 126 0 l 1
 80 -77 l 1
 91 -74 99 -72 107 -72 c 2
 131 -72 l 2
 167 -72 200 -97 200 -136 c 0
 200 -204 121 -241 53 -241 c 0
 15 -241 -16 -240 -38 -225 c 1
 -22 -195 l 1
 -5 -204 16 -209 43 -209 c 0
EndSplineSet
EndChar
StartChar: onesuperior
Encoding: 185 185 123
Width: 323
VWidth: 1533
Flags: W
HStem: 281 433<292 330 317.653 330> 622 27<191 288.298>
VStem: 191 177<622 714 636.653 649>
Fore
191 649 m 1x60
 271 649 295 656 330 714 c 1
 368 714 l 1
 292 281 l 1
 229 281 l 1xa0
 289 622 l 1
 187 622 l 1
 191 649 l 1x60
EndSplineSet
EndChar
StartChar: ordmasculine
Encoding: 186 186 124
Width: 469
VWidth: 1533
Flags: W
HStem: 334 29<227.762 375.594> 675 29<277.605 421.62>
VStem: 118 71<410.577 574.198> 461 73<464.535 624.362>
Fore
534 548 m 0
 534 451 438 334 294 334 c 256
 187 334 118 401 118 489 c 0
 118 599 226 704 359 704 c 0
 458 704 534 637 534 548 c 0
299 363 m 0
 412 363 461 475 461 561 c 0
 461 646 406 675 354 675 c 256
 255 675 189 583 189 479 c 0
 189 422 212 363 299 363 c 0
EndSplineSet
EndChar
StartChar: guillemotright
Encoding: 187 187 125
Width: 561
VWidth: 1533
Flags: W
HStem: 75 432<356 432 432 432>
VStem: 122 417<110 291 110 110>
Fore
432 507 m 1
 539 291 l 1
 356 75 l 1
 306 110 l 1
 483 291 l 1
 370 472 l 1
 432 507 l 1
250 507 m 1
 356 291 l 1
 174 75 l 1
 122 110 l 1
 301 291 l 1
 186 472 l 1
 250 507 l 1
EndSplineSet
EndChar
StartChar: onequarter
Encoding: 188 188 126
Width: 1079
VWidth: 1533
Flags: W
HStem: -17 21<190 253.202 702 763.6> 100 33<550 720 783 860> 622 27<218 302.073> 685 20G<793.798 857>
Fore
190 -17 m 1
 811 705 l 1
 857 705 l 1
 236 -17 l 1
 190 -17 l 1
778 100 m 1
 760 0 l 1
 702 0 l 1
 720 100 l 1
 501 100 l 1
 490 118 l 1
 823 423 l 1
 835 423 l 1
 783 133 l 1
 882 133 l 1
 860 100 l 1
 778 100 l 1
550 133 m 1
 725 133 l 1
 760 327 l 1
 550 133 l 1
218 649 m 1
 301 649 309 657 344 714 c 1
 376 714 l 1
 300 285 l 1
 243 285 l 1
 303 622 l 1
 214 622 l 1
 218 649 l 1
EndSplineSet
LCarets2: 2 0 0 
Ligature2: "'frac' Diagonal Fractions in Latin lookup 0 subtable" one fraction four
Ligature2: "'frac' Diagonal Fractions in Latin lookup 0 subtable" one slash four
EndChar
StartChar: onehalf
Encoding: 189 189 127
Width: 1079
VWidth: 1533
Flags: W
HStem: 0 49<641 923> 391 31<745.891 880.722> 622 27<215 298.595> 685 20G<781.659 843>
VStem: 605 60<292.194 348.059> 909 58<245.015 363.531>
Fore
218 -17 m 1
 173 -17 l 1
 799 705 l 1
 843 705 l 1
 218 -17 l 1
566 0 m 1
 625 181 909 152 909 308 c 0
 909 347 887 391 805 391 c 0
 759 391 680 369 665 282 c 1
 605 282 l 1
 648 413 773 422 810 422 c 0
 886 422 967 391 967 313 c 0
 967 139 680 138 641 49 c 1
 932 49 l 1
 923 0 l 1
 566 0 l 1
215 649 m 1
 303 649 304 658 341 714 c 1
 373 714 l 1
 297 285 l 1
 240 285 l 1
 300 622 l 1
 211 622 l 1
 215 649 l 1
EndSplineSet
LCarets2: 2 0 0 
Ligature2: "'frac' Diagonal Fractions in Latin lookup 0 subtable" one fraction two
Ligature2: "'frac' Diagonal Fractions in Latin lookup 0 subtable" one slash two
EndChar
StartChar: threequarters
Encoding: 190 190 128
Width: 1079
VWidth: 1533
Flags: W
HStem: -17 21<308 370.313 791 852.6> 100 33<638 809 872 949> 279 28<262.288 408.595> 493 27<315.681 439.938> 682 25<319.641 464.209>
VStem: 160 58<337.641 416.58> 213 59<598.31 656.449> 475 59<365.021 468.014> 486 59<560.979 659.686>
Fore
308 -17 m 1xf8
 934 705 l 1
 978 705 l 1
 353 -17 l 1
 308 -17 l 1xf8
867 100 m 1
 849 0 l 1
 791 0 l 1
 809 100 l 1
 588 100 l 1
 579 118 l 1
 911 423 l 1
 924 423 l 1
 872 133 l 1
 969 133 l 1
 949 100 l 1
 867 100 l 1
638 133 m 1
 814 133 l 1
 849 327 l 1
 638 133 l 1
534 426 m 0xf9
 534 341 438 279 316 279 c 0
 279 279 160 289 160 408 c 0
 160 417 l 1
 220 417 l 1
 218 408 218 401 218 393 c 0
 218 325 280 307 322 307 c 0
 407 307 475 361 475 423 c 0xfd
 475 476 416 493 361 493 c 0
 343 493 324 491 305 488 c 1
 311 524 l 1
 327 521 342 520 356 520 c 0
 425 520 486 557 486 613 c 0
 486 653 454 682 390 682 c 0
 329 682 287 644 272 584 c 1
 213 584 l 1
 236 661 310 707 395 707 c 0
 464 707 545 688 545 618 c 0xfa80
 545 554 489 523 447 511 c 1
 485 503 534 479 534 426 c 0xf9
EndSplineSet
LCarets2: 2 0 0 
Ligature2: "'frac' Diagonal Fractions in Latin lookup 0 subtable" three fraction four
Ligature2: "'frac' Diagonal Fractions in Latin lookup 0 subtable" three slash four
EndChar
StartChar: questiondown
Encoding: 191 191 129
Width: 550
VWidth: 1533
Flags: W
HStem: -152 31<190.274 352.16> 497 102<364.309 438.539>
VStem: 56 99<-71.5703 87.702> 348 105<511.527 582.395> 452 82<-19.6371 77>
Fore
56 8 m 0xe8
 56 227 328 183 377 457 c 1
 395 457 l 1
 394 434 391 413 387 394 c 0
 344 150 155 195 155 -9 c 0
 155 -73 182 -121 269 -121 c 0
 328 -121 421 -95 452 77 c 1
 534 77 l 1
 507 -76 388 -152 260 -152 c 0
 180 -152 56 -119 56 8 c 0xe8
453 559 m 0xf0
 453 523 425 497 393 497 c 256
 366 497 348 516 348 540 c 0
 348 566 375 599 411 599 c 256
 438 599 453 582 453 559 c 0xf0
EndSplineSet
EndChar
StartChar: Aring
Encoding: 197 197 134
Width: 818
VWidth: 1533
Flags: W
HStem: 0 21G<8 71.153 707.005 811> 366 37<344 575> 869 37<520.359 623.323>
VStem: 451 38<736.508 836.809> 636 38<753.102 856.133>
Fore
503 627 m 1
 344 403 l 1
 575 403 l 1
 503 627 l 1
551 724 m 256
 602 724 636 768 636 809 c 0
 636 842 614 869 576 869 c 256
 528 869 489 826 489 783 c 0
 489 747 515 724 551 724 c 256
451 777 m 0
 451 843 510 906 583 906 c 0
 634 906 674 871 674 818 c 0
 674 767 641 710 574 691 c 1
 811 0 l 1
 714 0 l 1
 586 366 l 1
 316 366 l 1
 57 0 l 1
 8 0 l 1
 510 693 l 1
 477 705 451 735 451 777 c 0
EndSplineSet
EndChar
StartChar: AE
Encoding: 198 198 135
Width: 1096
VWidth: 1533
Flags: W
HStem: 0 37<646 1081> 366 37<399 620 710 1037> 678 38<635 675 759 1201>
Fore
555 0 m 1
 620 366 l 1
 367 366 l 1
 54 0 l 1
 0 0 l 1
 615 716 l 1
 1207 716 l 1
 1201 678 l 1
 759 678 l 1
 710 403 l 1
 1043 403 l 1
 1037 366 l 1
 704 366 l 1
 646 37 l 1
 1088 37 l 1
 1081 0 l 1
 555 0 l 1
675 678 m 1
 635 678 l 1
 399 403 l 1
 626 403 l 1
 675 678 l 1
EndSplineSet
EndChar
StartChar: Eth
Encoding: 208 208 145
Width: 880
VWidth: 1533
Flags: W
HStem: 0 37<192 546.226> 366 37<87 167 256 457> 678 38<304 658.508>
VStem: 813 101<311.093 550.408>
Fore
483 716 m 2
 695 716 914 666 914 443 c 0
 914 321 856 0 363 0 c 2
 103 0 l 1
 167 366 l 1
 81 366 l 1
 87 403 l 1
 173 403 l 1
 228 716 l 1
 483 716 l 2
385 37 m 2
 756 37 813 307 813 452 c 0
 813 588 729 678 497 678 c 2
 304 678 l 1
 256 403 l 1
 463 403 l 1
 457 366 l 1
 250 366 l 1
 192 37 l 1
 385 37 l 2
EndSplineSet
EndChar
StartChar: multiply
Encoding: 215 215 152
Width: 662
VWidth: 1533
Flags: W
Fore
374 250 m 1
 87 3 l 1
 54 43 l 1
 342 291 l 1
 141 538 l 1
 189 578 l 1
 389 331 l 1
 676 578 l 1
 708 538 l 1
 422 291 l 1
 621 43 l 1
 575 3 l 1
 374 250 l 1
EndSplineSet
EndChar
StartChar: Oslash
Encoding: 216 216 153
Width: 949
VWidth: 1533
Flags: W
HStem: -25 36<375.894 588.541> 702 37<489.168 706.694>
VStem: 119 101<181.477 411.85> 866 103<301.631 531.633>
Fore
119 296 m 0
 119 524 348 739 610 739 c 0
 711 739 791 707 847 664 c 1
 987 791 l 1
 1050 791 l 1
 879 638 l 1
 934 580 969 505 969 418 c 0
 969 200 749 -25 476 -25 c 0
 392 -25 305 -4 232 55 c 1
 88 -75 l 1
 25 -75 l 1
 202 84 l 1
 156 133 119 205 119 296 c 0
480 11 m 0
 679 11 866 209 866 425 c 0
 866 490 848 544 821 586 c 1
 283 101 l 1
 323 55 388 11 480 11 c 0
602 702 m 0
 413 702 220 517 220 290 c 0
 220 237 231 184 260 135 c 1
 796 618 l 1
 749 667 686 702 602 702 c 0
EndSplineSet
EndChar
StartChar: Thorn
Encoding: 222 222 159
Width: 700
VWidth: 1533
Flags: W
HStem: 0 21G<95 181.473> 167 38<214 489.336> 489 37<269 331.608 331.608 533.806>
VStem: 616 106<301.028 429.795>
Fore
722 378 m 0
 722 294 653 167 336 167 c 2
 207 167 l 1
 178 0 l 1
 95 0 l 1
 211 656 l 1
 292 656 l 1
 269 526 l 1
 307 526 340 527 395 527 c 0
 507 527 722 514 722 378 c 0
616 374 m 0
 616 474 470 489 359 489 c 2
 264 489 l 1
 214 205 l 1
 304 205 l 2
 467 205 616 233 616 374 c 0
EndSplineSet
EndChar
StartChar: uni00DF
Encoding: 223 223 160
Width: 696
VWidth: 1533
Flags: W
HStem: -18 35<355.537 486.068> 417 30<403.829 442.746 442.746 519.953> 776 35<375.186 553.489>
VStem: 588 107<149.618 332.062> 598 101<559.407 729.459>
Fore
461 448 m 0xf0
 550 448 598 567 598 656 c 0
 598 751 535 776 467 776 c 0
 364 776 284 716 252 535 c 2
 158 0 l 1
 77 0 l 1
 171 532 l 2
 209 747 357 811 473 811 c 0
 569 811 699 778 699 653 c 0xe8
 699 582 665 474 496 435 c 1
 600 435 695 360 695 243 c 0
 695 102 554 -18 411 -18 c 0
 309 -18 270 6 249 26 c 1
 300 101 l 1
 312 66 366 17 420 17 c 0
 529 17 588 162 588 262 c 0
 588 334 562 417 459 417 c 2
 426 417 l 2
 418 417 407 416 395 414 c 1
 402 451 l 1
 412 448 418 447 425 447 c 0
 433 447 442 448 461 448 c 0xf0
EndSplineSet
EndChar
StartChar: ae
Encoding: 230 230 167
Width: 1036
VWidth: 1533
Flags: W
HStem: -15 38<183.98 355.047 654.509 824.773> 294 37<255.944 500> 333 38<615 959> 509 41<297.003 472.29 713.592 891.179>
VStem: 54 90<57.0353 203.348> 500 99<243.196 294>
Fore
599 333 m 1
 582 284 573 256 573 204 c 0
 573 92 638 21 746 21 c 0
 861 21 925 134 953 216 c 1
 1036 216 l 1
 984 83 884 -17 728 -17 c 0
 683 -17 539 -4 497 126 c 1
 425 19 360 -15 225 -15 c 0
 128 -15 54 24 54 116 c 0
 54 174 78 228 124 259 c 0
 222 328 350 331 473 331 c 2
 506 331 l 1
 510 353 l 2
 513 369 514 384 514 397 c 0
 514 472 470 509 381 509 c 0
 316 509 228 466 214 386 c 1
 128 386 l 1
 149 439 203 550 388 550 c 0
 485 550 565 517 581 440 c 1
 633 501 720 550 815 550 c 0
 980 550 1041 474 1046 333 c 1
 599 333 l 1
959 371 m 1
 950 440 914 511 808 511 c 0
 761 511 678 506 615 371 c 1
 959 371 l 1
402 294 m 2
 178 294 144 190 144 120 c 0
 144 43 207 23 262 23 c 0
 414 23 474 150 491 244 c 2
 500 294 l 1
 402 294 l 2
EndSplineSet
EndChar
StartChar: eth
Encoding: 240 240 177
Width: 650
VWidth: 1533
Flags: W
HStem: -14 32<230.352 434.868> 507 33<312.033 515.694>
VStem: 70 81<112.015 321.91> 594 76<203.681 426.966>
Fore
70 210 m 0
 70 384 218 540 420 540 c 0
 469 540 513 531 548 512 c 1
 520 577 480 632 431 678 c 1
 228 589 l 1
 217 629 l 1
 395 707 l 1
 368 728 332 752 243 788 c 1
 264 829 l 1
 331 805 392 772 448 730 c 1
 594 796 l 1
 607 756 l 1
 483 701 l 1
 572 625 670 452 670 310 c 0
 670 144 523 -14 322 -14 c 256
 173 -14 70 73 70 210 c 0
414 507 m 256
 203 507 151 306 151 197 c 0
 151 90 205 18 330 18 c 256
 541 18 594 222 594 331 c 0
 594 438 539 507 414 507 c 256
EndSplineSet
EndChar
StartChar: divide
Encoding: 247 247 184
Width: 657
VWidth: 1533
Flags: W
HStem: 0 127<299.963 378.81> 262 57<100 659> 455 125<378.861 459.514>
VStem: 275 128<23.8481 102.261> 355 128<478.031 555.698>
Fore
669 319 m 1xe0
 659 262 l 1
 90 262 l 1
 100 319 l 1
 669 319 l 1xe0
483 530 m 0xe8
 483 488 447 455 408 455 c 256
 375 455 355 478 355 507 c 0
 355 543 389 580 430 580 c 256
 459 580 483 560 483 530 c 0xe8
403 75 m 0xf0
 403 34 367 0 328 0 c 256
 295 0 275 23 275 52 c 0
 275 93 313 127 350 127 c 256
 380 127 403 106 403 75 c 0xf0
EndSplineSet
EndChar
StartChar: oslash
Encoding: 248 248 185
Width: 746
VWidth: 1533
Flags: W
HStem: -12 37<294.245 475.56> 566 35<386.3 544.437>
VStem: 85 95<144.65 355.218> 683 95<235.671 444.872>
Fore
383 25 m 256
 522 25 683 167 683 349 c 0
 683 390 673 427 654 460 c 1
 227 101 l 1
 258 63 308 25 383 25 c 256
479 566 m 256
 335 566 180 421 180 245 c 0
 180 201 190 162 207 130 c 1
 636 492 l 1
 576 565 500 566 479 566 c 256
778 343 m 0
 778 162 592 -12 378 -12 c 0
 291 -12 223 18 176 55 c 1
 46 -52 l 1
 -9 -52 l 1
 147 81 l 1
 109 125 85 181 85 246 c 0
 85 431 271 601 486 601 c 0
 572 601 640 571 687 534 c 1
 801 630 l 1
 858 630 l 1
 714 509 l 1
 749 471 778 415 778 343 c 0
EndSplineSet
EndChar
StartChar: thorn
Encoding: 254 254 191
Width: 714
VWidth: 1533
Flags: W
HStem: 0 21G<69 155.478> 184 35<191 490.082> 538 34<251 534.463> 696 20G<191.48 276>
VStem: 637 110<328.738 468.239>
Fore
357 572 m 2
 656 572 747 511 747 416 c 0
 747 219 506 184 285 184 c 2
 184 184 l 1
 152 0 l 1
 69 0 l 1
 195 716 l 1
 276 716 l 1
 251 572 l 1
 357 572 l 2
294 219 m 2
 482 219 637 257 637 408 c 0
 637 467 591 538 354 538 c 2
 247 538 l 1
 191 219 l 1
 294 219 l 2
EndSplineSet
EndChar
StartChar: Lslash
Encoding: 321 321 193
Width: 657
VWidth: 1533
Flags: W
HStem: 0 37<206 644> 696 20G<237.501 325>
Back
486 497 m 1
 481 475 l 1
 84 314 l 1
 87 336 l 1
 486 497 l 1
115 0 m 1
 241 716 l 1
 325 716 l 1
 205 37 l 1
 650 37 l 1
 644 0 l 1
 115 0 l 1
EndSplineSet
Fore
487 497 m 1
 483 475 l 1
 267 388 l 1
 206 37 l 1
 651 37 l 1
 644 0 l 1
 115 0 l 1
 177 351 l 1
 84 314 l 1
 88 336 l 1
 181 373 l 1
 241 716 l 1
 325 716 l 1
 271 410 l 1
 487 497 l 1
EndSplineSet
EndChar
StartChar: lslash
Encoding: 322 322 194
Width: 280
VWidth: 1533
Flags: W
HStem: 0 21G<103 189.522> 696 20G<225.519 312>
VStem: 103 243<0 512 21.3756 49.9343>
Fore
103 0 m 1
 178 425 l 1
 108 397 l 1
 112 420 l 1
 182 446 l 1
 229 716 l 1
 312 716 l 1
 271 483 l 1
 346 512 l 1
 343 492 l 1
 267 460 l 1
 186 0 l 1
 103 0 l 1
EndSplineSet
EndChar
StartChar: OE
Encoding: 338 338 195
Width: 1278
VWidth: 1533
Flags: W
HStem: -26 29<314.813 540.804> 0 37<813 1265> 366 37<877 1219> 678 38<926 1385> 710 29<435.403 661.018>
VStem: 85 100<167.709 412.327>
Fore
85 283 m 0xa4
 85 535 312 739 555 739 c 0xac
 685 739 780 685 832 612 c 1
 850 716 l 1
 1391 716 l 1
 1385 678 l 1
 926 678 l 1
 877 403 l 1
 1225 403 l 1
 1219 366 l 1
 871 366 l 1
 813 37 l 1
 1272 37 l 1
 1265 0 l 1
 724 0 l 1x74
 742 103 l 1
 663 28 550 -26 418 -26 c 0
 227 -26 85 95 85 283 c 0xa4
424 3 m 256
 672 3 789 251 789 447 c 0
 789 574 738 710 550 710 c 0
 316 710 185 482 185 266 c 0
 185 139 236 3 424 3 c 256
EndSplineSet
EndChar
StartChar: oe
Encoding: 339 339 196
Width: 1042
VWidth: 1533
Flags: W
HStem: -15 38<213.963 361.508 700.418 847.238> 333 38<648 988> 509 38<289.87 474.922 751.534 922.717>
VStem: 62 78<105.656 324.574> 543 64<205.736 332.488> 968 69<108.65 190> 988 79<371 440.122>
Fore
62 208 m 0xfc
 62 371 185 547 389 547 c 0
 488 547 565 502 601 425 c 1
 655 495 745 550 848 550 c 0
 1006 550 1067 450 1067 355 c 0xfa
 1067 348 1067 340 1066 333 c 1
 629 333 l 1
 623 323 607 253 607 205 c 0
 607 108 655 21 768 21 c 0
 850 21 941 91 968 190 c 1
 1037 190 l 1
 1010 66 881 -17 761 -17 c 0
 717 -17 602 -8 547 112 c 1
 460 -6 334 -15 290 -15 c 0
 141 -15 62 84 62 208 c 0xfc
988 371 m 1
 982 432 944 514 838 514 c 0
 740 514 674 435 648 371 c 1
 988 371 l 1
383 509 m 256
 189 509 140 298 140 196 c 0
 140 98 184 23 298 23 c 0
 494 23 543 234 543 338 c 0
 543 428 507 509 383 509 c 256
EndSplineSet
EndChar
StartChar: florin
Encoding: 402 402 202
Width: 716
VWidth: 1533
Flags: W
HStem: -222 33<55.3536 168.989> 468 27<340 430 515 610> 751 39<642.754 745.671>
Fore
68 -146 m 1
 92 -179 107 -189 139 -189 c 0
 201 -189 256 -108 281 -20 c 2
 430 468 l 1
 328 468 l 1
 340 495 l 1
 437 495 l 1
 443 521 l 2
 477 642 582 790 743 790 c 0
 770 790 814 753 825 730 c 1
 741 695 l 1
 737 716 708 751 687 751 c 0
 619 751 572 685 548 599 c 2
 515 495 l 1
 621 495 l 1
 610 468 l 1
 506 468 l 1
 375 28 l 2
 322 -136 192 -222 56 -222 c 0
 25 -222 -3 -194 -11 -163 c 1
 68 -146 l 1
EndSplineSet
EndChar
StartChar: circumflex
Encoding: 710 710 203
Width: 364
VWidth: 1533
Flags: W
HStem: 679 186<303 439 303 303>
VStem: 135 335<679 679 679 679>
Fore
439 679 m 1
 323 800 l 1
 168 679 l 1
 135 679 l 1
 303 865 l 1
 369 865 l 1
 470 679 l 1
 439 679 l 1
EndSplineSet
EndChar
StartChar: caron
Encoding: 711 711 204
Width: 343
VWidth: 1533
Flags: W
HStem: 642 186<148 315 148 148>
VStem: 148 335<828 828 828 828>
Fore
315 642 m 1
 249 642 l 1
 148 828 l 1
 180 828 l 1
 294 707 l 1
 453 828 l 1
 483 828 l 1
 315 642 l 1
EndSplineSet
EndChar
StartChar: breve
Encoding: 728 728 205
Width: 309
VWidth: 1533
Flags: W
HStem: 641 63<200.484 348.763>
VStem: 138 316<722 794 782 817 782 782> 138 27<741.88 799.5 799.5 817>
Fore
277 704 m 256xa0
 320 704 388 711 426 817 c 1
 454 817 l 1
 433 722 365 641 266 641 c 0
 173 641 138 709 138 782 c 0xc0
 138 794 139 805 141 817 c 1
 165 817 l 1
 168 738 204 704 277 704 c 256xa0
EndSplineSet
EndChar
StartChar: dotaccent
Encoding: 729 729 206
Width: 280
VWidth: 1533
Flags: W
HStem: 642 111<225.701 301.977>
VStem: 207 113<660.125 734.139>
Fore
207 689 m 0
 207 720 237 753 273 753 c 256
 302 753 320 732 320 706 c 0
 320 669 285 642 253 642 c 256
 224 642 207 665 207 689 c 0
EndSplineSet
EndChar
StartChar: ring
Encoding: 730 730 207
Width: 280
VWidth: 1533
Flags: W
HStem: 644 37<212.162 315.82> 828 37<231.308 334.563>
VStem: 162 37<695.344 796.259> 347 38<712.853 815.311>
Fore
162 735 m 0
 162 806 229 865 294 865 c 0
 351 865 385 824 385 774 c 0
 385 704 324 644 255 644 c 0
 203 644 162 681 162 735 c 0
261 681 m 256
 309 681 347 724 347 769 c 0
 347 804 322 828 287 828 c 256
 234 828 199 780 199 741 c 0
 199 708 223 681 261 681 c 256
EndSplineSet
EndChar
StartChar: ogonek
Encoding: 731 731 208
Width: 280
VWidth: 1533
Flags: W
HStem: -239 38<31.1377 155.382> 11 4<135.904 245>
VStem: -25 77<-193.493 -102.842>
Fore
247 11 m 1
 206 -3 52 -55 52 -154 c 0
 52 -179 65 -201 106 -201 c 0
 151 -201 224 -153 224 -153 c 1
 233 -176 l 1
 197 -201 127 -239 58 -239 c 0
 4 -239 -25 -208 -25 -165 c 0
 -25 -57 136 -10 245 15 c 1
 247 11 l 1
EndSplineSet
EndChar
StartChar: tilde
Encoding: 732 732 209
Width: 360
VWidth: 1533
Flags: W
HStem: 681 118<120 501 477 477> 681 56<342.759 433.216> 736 55<184.703 277.987>
Fore
222 736 m 0x20
 182 736 157 701 146 681 c 1
 120 681 l 1x80
 137 724 179 791 251 791 c 0x20
 310 791 361 737 400 737 c 0x40
 440 737 467 780 477 799 c 1
 501 799 l 1
 493 776 457 681 365 681 c 0x80
 293 681 277 736 222 736 c 0x20
EndSplineSet
EndChar
StartChar: hungarumlaut
Encoding: 733 733 210
Width: 280
VWidth: 1533
Flags: W
HStem: 650 193<117 282 434 434>
VStem: 84 381<652 815 652 652>
Fore
282 843 m 0
 300 843 313 832 313 815 c 0
 313 793 293 780 266 759 c 2
 117 650 l 1
 84 652 l 1
 246 826 l 2
 257 837 269 843 282 843 c 0
434 843 m 0
 452 843 465 832 465 815 c 0
 465 793 445 780 418 759 c 2
 268 650 l 1
 236 650 l 1
 397 826 l 2
 408 837 421 843 434 843 c 0
EndSplineSet
EndChar
StartChar: uni0E01
Encoding: 3585 3585 212
Width: 717
VWidth: 1533
Flags: W
HStem: 0 21G<92 172.511 549 629.504> 593 31<349.027 552.085>
VStem: 623 75<402.041 411 422 424.996 424.996 438.023 431.51 527.872>
Fore
460 624 m 0
 562 624 702 588 702 452 c 0
 702 439 701 425 698 411 c 2
 626 0 l 1
 549 0 l 1
 623 422 l 2
 625 433 626 444 626 454 c 0
 626 542 555 593 455 593 c 0
 320 593 232 501 212 417 c 1
 312 417 l 1
 306 386 l 1
 238 355 220 292 215 262 c 2
 169 0 l 1
 92 0 l 1
 136 247 l 2
 146 305 180 370 262 391 c 1
 127 391 l 1
 167 547 310 624 460 624 c 0
EndSplineSet
EndChar
StartChar: uni0E02
Encoding: 3586 3586 213
Width: 714
VWidth: 1533
Flags: W
HStem: 0 38<242 553> 293 38<162.397 276.007> 506 38<203.141 298.637> 590 34<252.41 380.858>
VStem: 91 51<350.223 461.49> 319 39<375.062 485.934> 429 70<377.83 537.917>
Fore
91 415 m 0
 91 540 214 624 329 624 c 0
 427 624 499 559 499 467 c 0
 499 363 408 251 272 210 c 1
 242 38 l 1
 553 38 l 1
 654 613 l 1
 730 613 l 1
 622 0 l 1
 158 0 l 1
 197 221 l 1
 370 274 429 364 429 459 c 0
 429 528 391 590 309 590 c 0
 284 590 214 582 179 523 c 1
 203 537 227 544 252 544 c 0
 317 544 358 499 358 441 c 0
 358 365 291 293 208 293 c 0
 125 293 91 351 91 415 c 0
245 506 m 256
 195 506 142 461 142 403 c 0
 142 360 173 331 214 331 c 256
 274 331 319 386 319 433 c 0
 319 473 290 506 245 506 c 256
EndSplineSet
EndChar
StartChar: uni0E03
Encoding: 3587 3587 214
Width: 745
VWidth: 1533
Flags: W
HStem: 0 38<272 583> 287 38<161.579 275.007> 500 38<202.501 297.289> 590 34<222.898 344.967 376.859 466.882>
VStem: 90 51<344.932 456.924> 318 39<368.754 478.496> 486 69<402.703 571.824>
Fore
90 409 m 0
 90 507 171 624 285 624 c 0
 322 624 346 611 360 587 c 1
 381 611 416 624 443 624 c 0
 532 624 555 558 555 498 c 0
 555 353 417 248 302 210 c 1
 272 38 l 1
 583 38 l 1
 684 613 l 1
 761 613 l 1
 653 0 l 1
 189 0 l 1
 228 221 l 1
 420 290 486 386 486 497 c 0
 486 540 473 590 424 590 c 0
 399 590 379 579 356 555 c 1
 342 576 323 590 283 590 c 0
 242 590 194 557 178 517 c 1
 202 531 226 538 251 538 c 0
 317 538 357 493 357 435 c 0
 357 359 290 287 207 287 c 0
 124 287 90 345 90 409 c 0
244 500 m 256
 191 500 141 453 141 396 c 0
 141 355 173 325 213 325 c 256
 273 325 318 379 318 426 c 0
 318 469 286 500 244 500 c 256
EndSplineSet
EndChar
StartChar: uni0E04
Encoding: 3588 3588 215
Width: 758
VWidth: 1533
Flags: W
HStem: 0 21G<95 181.617 590 670.544> 212 38<364.857 477.743> 425 38<390.036 501.895> 593 31<376.993 580.265>
VStem: 521 40<293.369 405.621> 664 76<402.041 412 422 429.523 429.523 435.546 432.535 517.041>
Fore
561 362 m 0
 561 272 481 212 411 212 c 0
 360 212 319 245 310 287 c 1
 172 0 l 1
 95 0 l 1
 107 55 l 2
 109 67 112 79 114 91 c 0
 136 213 123 259 147 396 c 0
 175 557 360 624 489 624 c 0
 608 624 743 575 743 447 c 0
 743 436 742 424 740 412 c 2
 667 0 l 1
 590 0 l 1
 664 422 l 2
 666 432 667 441 667 449 c 0
 667 545 566 593 484 593 c 0
 376 593 248 526 225 399 c 0
 201 259 215 242 188 117 c 1
 303 353 l 2
 328 402 376 463 456 463 c 0
 521 463 561 421 561 362 c 0
449 425 m 256
 399 425 345 378 345 323 c 0
 345 280 377 250 418 250 c 256
 468 250 521 295 521 353 c 0
 521 396 490 425 449 425 c 256
EndSplineSet
EndChar
StartChar: uni0E05
Encoding: 3589 3589 216
Width: 758
VWidth: 1533
Flags: W
HStem: 0 21G<95 181.617 590 670.522> 212 38<364.857 477.965> 425 38<391.255 501.895> 587 39<315.538 444.951 528.892 647.1>
VStem: 521 40<293.369 405.621> 669 79<440.123 448 460 461.996 461.996 479.023 470.51 561.431>
Fore
561 362 m 0
 561 272 482 212 411 212 c 0
 360 212 319 245 310 287 c 1
 172 0 l 1
 95 0 l 1
 102 22 106 45 110 69 c 0
 134 206 118 263 143 400 c 0
 162 508 244 626 372 626 c 0
 430 626 470 607 483 566 c 1
 515 602 555 626 616 626 c 0
 705 626 751 574 751 498 c 0
 751 486 750 473 748 460 c 2
 667 0 l 1
 590 0 l 1
 669 448 l 2
 672 462 673 476 673 489 c 0
 673 543 650 587 588 587 c 0
 543 587 506 560 484 527 c 1
 467 527 l 1
 460 560 430 587 388 587 c 0
 290 587 236 488 221 403 c 0
 202 294 212 253 195 130 c 1
 239 223 309 463 456 463 c 0
 521 463 561 421 561 362 c 0
449 425 m 256
 399 425 345 378 345 323 c 0
 345 280 377 250 418 250 c 256
 468 250 521 295 521 353 c 0
 521 396 490 425 449 425 c 256
EndSplineSet
EndChar
StartChar: uni0E06
Encoding: 3590 3590 217
Width: 821
VWidth: 1533
Flags: W
HStem: -8 42<166.091 277.798> 218 43<199.102 314.679> 287 38<161.579 275.007> 500 38<202.501 297.289> 590 34<222.898 344.967 377.103 472.144>
VStem: 90 51<344.932 456.924> 102 44<53.8152 169.362> 318 39<368.754 478.496> 490 70<462.27 573.74>
Fore
90 409 m 0xfd80
 90 507 171 624 285 624 c 0
 322 624 346 611 360 587 c 1
 382 613 416 624 449 624 c 0
 521 624 560 585 560 521 c 0
 560 510 559 499 557 488 c 0
 537 373 441 403 410 227 c 1
 661 46 l 1
 761 613 l 1
 838 613 l 1
 730 0 l 1
 653 0 l 1
 402 184 l 1
 380 55 340 -8 223 -8 c 0
 160 -8 102 27 102 99 c 0xfb80
 102 204 213 261 285 261 c 0
 304 261 321 257 337 248 c 1
 358 365 490 382 490 511 c 0
 490 546 477 590 424 590 c 0
 399 590 379 579 356 555 c 1
 342 576 323 590 283 590 c 0
 242 590 194 557 178 517 c 1
 202 531 226 538 251 538 c 0
 317 538 357 493 357 435 c 0
 357 359 290 287 207 287 c 0
 124 287 90 345 90 409 c 0xfd80
244 500 m 256
 191 500 141 453 141 396 c 0xfd80
 141 355 173 325 213 325 c 256
 273 325 318 379 318 426 c 0
 318 469 286 500 244 500 c 256
271 218 m 0
 220 218 146 186 146 107 c 0xfb80
 146 64 175 34 222 34 c 256
 284 34 309 92 315 127 c 2
 330 210 l 1
 314 217 299 218 271 218 c 0
EndSplineSet
EndChar
StartChar: uni0E07
Encoding: 3591 3591 218
Width: 625
VWidth: 1533
Flags: W
HStem: 0 38<304 462> 371 38<393.755 506.265> 583 41<416.148 529.528>
VStem: 336 39<428.683 540.066> 550 68<464.077 562.988>
Fore
336 474 m 0
 336 558 409 624 492 624 c 0
 578 624 618 574 618 504 c 0
 618 492 617 480 615 468 c 2
 532 0 l 1
 270 0 l 1
 249 112 151 320 65 366 c 1
 140 414 l 1
 222 358 298 154 304 38 c 1
 462 38 l 1
 525 399 l 1
 502 380 473 371 439 371 c 0
 375 371 336 417 336 474 c 0
477 583 m 256
 422 583 375 534 375 481 c 0
 375 439 405 409 446 409 c 256
 498 409 550 458 550 511 c 0
 550 554 518 583 477 583 c 256
EndSplineSet
EndChar
StartChar: uni0E08
Encoding: 3592 3592 219
Width: 650
VWidth: 1533
Flags: W
HStem: 0 21G<476.063 572.5> 156 39<244.758 358.495> 370 38<267.619 381.37> 593 29<309.362 510.572>
VStem: 69 84<408.598 468.76> 184 41<215.744 326.883> 588 75<333.53 524.62>
Fore
184 258 m 0
 184 343 256 408 334 408 c 0
 381 408 429 391 447 317 c 2
 506 83 l 1
 507 104 l 2
 534 256 588 364 588 448 c 0
 588 538 518 593 415 593 c 0
 296 593 174 513 153 394 c 1
 69 394 l 1
 117 543 268 622 420 622 c 0
 530 622 663 584 663 440 c 0
 663 328 587 166 558 0 c 1
 481 0 l 1
 422 239 l 1
 399 192 345 156 290 156 c 0
 228 156 184 197 184 258 c 0
329 370 m 256
 273 370 225 319 225 267 c 0
 225 228 253 195 298 195 c 256
 350 195 402 243 402 296 c 0
 402 336 374 370 329 370 c 256
EndSplineSet
EndChar
StartChar: uni0E09
Encoding: 3593 3593 220
Width: 788
VWidth: 1533
Flags: W
HStem: -12 32<551.064 667.682> 156 39<121.701 234.77> 368 41<145.196 257.102> 593 31<362.895 610.705>
VStem: 63 40<213.689 326.746> 278 67<238.487 348.007> 490 35<45.6945 143.59> 695 76<417.175 522.284> 721 38<71.6569 187.718>
Fore
219 409 m 0xfe80
 281 409 345 390 345 275 c 0
 345 213 328 171 309 66 c 1
 431 177 565 247 668 285 c 1
 692 422 l 2
 694 434 695 444 695 455 c 0
 695 564 578 593 488 593 c 0
 392 593 256 554 213 437 c 1
 135 437 l 1
 183 577 356 624 493 624 c 0
 629 624 771 588 771 450 c 0xff
 771 437 770 424 767 409 c 2
 744 278 l 1
 715 272 690 262 666 250 c 1
 721 241 759 200 759 144 c 0
 759 60 681 -12 602 -12 c 0
 531 -12 490 38 490 98 c 0
 490 117 495 140 507 164 c 1
 434 118 360 61 299 0 c 1
 221 0 l 1
 253 184 l 1
 230 167 201 156 168 156 c 0
 103 156 63 201 63 259 c 0
 63 335 128 409 219 409 c 0xfe80
641 213 m 0
 588 213 525 163 525 100 c 0
 525 54 561 20 607 20 c 0
 660 20 721 72 721 133 c 0xfe80
 721 177 687 213 641 213 c 0
205 368 m 256
 150 368 103 320 103 266 c 0
 103 227 129 195 174 195 c 256
 233 195 278 250 278 297 c 0
 278 339 245 368 205 368 c 256
EndSplineSet
EndChar
StartChar: uni0E0A
Encoding: 3594 3594 221
Width: 714
VWidth: 1533
Flags: W
HStem: 0 38<242 553> 293 38<162.397 276.007> 506 38<203.141 298.637> 590 34<252.41 380.858>
VStem: 91 51<350.223 461.49> 319 39<375.062 485.934> 429 70<377.83 537.917> 615 75<378.351 450.223>
Fore
91 415 m 0
 91 540 214 624 329 624 c 0
 427 624 499 559 499 467 c 0
 499 363 408 251 272 210 c 1
 242 38 l 1
 553 38 l 1
 612 377 l 2
 614 386 615 395 615 404 c 0
 615 436 601 464 552 488 c 1
 605 513 647 562 665 613 c 1
 758 613 l 1
 747 567 664 509 615 488 c 1
 640 477 690 449 690 395 c 0
 690 390 690 385 689 379 c 2
 622 0 l 1
 158 0 l 1
 197 221 l 1
 370 274 429 364 429 459 c 0
 429 528 391 590 309 590 c 0
 284 590 214 582 179 523 c 1
 203 537 227 544 252 544 c 0
 317 544 358 499 358 441 c 0
 358 365 291 293 208 293 c 0
 125 293 91 351 91 415 c 0
245 506 m 256
 195 506 142 461 142 403 c 0
 142 360 173 331 214 331 c 256
 274 331 319 386 319 433 c 0
 319 473 290 506 245 506 c 256
EndSplineSet
EndChar
StartChar: uni0E0B
Encoding: 3595 3595 222
Width: 745
VWidth: 1533
Flags: W
HStem: 0 38<272 583> 287 38<161.579 275.007> 500 38<202.501 297.289> 590 34<222.898 344.967 376.859 466.882>
VStem: 90 51<344.932 456.924> 318 39<368.754 478.496> 486 69<402.703 571.824> 645 76<378.374 450.194>
Fore
90 409 m 0
 90 507 171 624 285 624 c 0
 322 624 346 611 360 587 c 1
 381 611 416 624 443 624 c 0
 532 624 555 558 555 498 c 0
 555 353 417 248 302 210 c 1
 272 38 l 1
 583 38 l 1
 642 377 l 2
 644 387 645 396 645 405 c 0
 645 438 630 465 583 488 c 1
 633 512 678 559 695 613 c 1
 789 613 l 1
 773 558 678 502 646 488 c 1
 671 477 721 449 721 395 c 0
 721 390 721 385 720 379 c 2
 653 0 l 1
 189 0 l 1
 228 221 l 1
 420 290 486 386 486 497 c 0
 486 540 473 590 424 590 c 0
 399 590 379 579 356 555 c 1
 342 576 323 590 283 590 c 0
 242 590 194 557 178 517 c 1
 202 531 226 538 251 538 c 0
 317 538 357 493 357 435 c 0
 357 359 290 287 207 287 c 0
 124 287 90 345 90 409 c 0
244 500 m 256
 191 500 141 453 141 396 c 0
 141 355 173 325 213 325 c 256
 273 325 318 379 318 426 c 0
 318 469 286 500 244 500 c 256
EndSplineSet
EndChar
StartChar: uni0E0C
Encoding: 3596 3596 223
Width: 1068
VWidth: 1533
Flags: W
HStem: -8 42<202.879 316.53 560.027 678.486> 207 38<226.299 338.594> 593 31<349.027 561.119>
VStem: 115 68<53.3624 152.971> 358 39<75.0941 187.778> 502 40<48.8894 159.206> 622 73<345.534 534.686> 719 40<71.831 152.337 149.023 155.651>
Fore
397 143 m 0
 397 63 329 -8 241 -8 c 0
 155 -8 115 42 115 113 c 0
 115 125 116 137 118 149 c 2
 136 247 l 2
 146 305 180 370 262 391 c 1
 127 391 l 1
 167 547 310 624 460 624 c 0
 622 624 695 575 695 448 c 0
 695 412 685 341 674 270 c 1
 768 219 847 144 912 66 c 1
 1008 613 l 1
 1085 613 l 1
 977 0 l 1
 898 0 l 1
 862 58 811 112 758 156 c 1
 758 152 759 147 759 142 c 0
 759 50 679 -11 608 -11 c 256
 545 -11 502 34 502 93 c 0
 502 164 563 228 638 241 c 1
 596 268 l 1
 606 327 622 404 622 448 c 0
 622 564 551 593 455 593 c 0
 320 593 232 501 212 417 c 1
 312 417 l 1
 306 386 l 1
 235 355 222 298 211 238 c 2
 207 218 l 1
 218 226 244 245 293 245 c 0
 357 245 397 200 397 143 c 0
646 202 m 256
 597 202 542 157 542 100 c 0
 542 58 575 28 615 28 c 256
 670 28 719 79 719 130 c 0
 719 172 686 202 646 202 c 256
286 207 m 256
 234 207 183 159 183 104 c 0
 183 62 215 34 256 34 c 256
 312 34 358 83 358 136 c 0
 358 177 327 207 286 207 c 256
EndSplineSet
EndChar
StartChar: uni0E0D
Encoding: 3597 3597 224
Width: 1068
VWidth: 1533
Flags: W
HStem: -279 49<569.473 724.205> -279 34<687 763.301> -71 40<588.986 699.461> -8 42<202.879 316.53> 0 38<633 907> 207 38<226.299 338.594> 593 31<349.027 552.643>
VStem: 115 68<53.3624 152.971> 358 39<75.0941 187.778> 515 38<-213.23 -107.476> 623 75<402.041 411 422 425.668 425.668 438.023 431.845 528.256> 716 39<-194.336 -87.1882>
Fore
397 143 m 0x2ff0
 397 63 329 -8 241 -8 c 0x37f0
 155 -8 115 42 115 113 c 0
 115 125 116 137 118 149 c 2
 136 247 l 2
 146 305 180 370 262 391 c 1
 127 391 l 1
 167 547 310 624 460 624 c 0
 589 624 702 577 702 454 c 0
 702 440 701 426 698 411 c 2
 633 38 l 1
 907 38 l 1
 1008 613 l 1
 1085 613 l 1
 977 0 l 1
 549 0 l 1
 623 422 l 2
 625 433 626 444 626 454 c 0
 626 542 555 593 455 593 c 0
 320 593 232 501 212 417 c 1
 312 417 l 1
 306 386 l 1
 235 355 221 297 211 236 c 2
 207 218 l 1
 218 226 244 245 293 245 c 0
 357 245 397 200 397 143 c 0x2ff0
755 -128 m 0
 755 -184 714 -225 687 -245 c 1x67f0
 794 -242 875 -140 891 -49 c 1
 965 -49 l 1
 932 -190 785 -279 664 -279 c 0xa7f0
 598 -279 515 -257 515 -175 c 0
 515 -93 584 -31 656 -31 c 256
 716 -31 755 -73 755 -128 c 0
648 -71 m 256
 596 -71 553 -116 553 -166 c 0
 553 -204 581 -230 620 -230 c 256xa7f0
 673 -230 716 -184 716 -137 c 0
 716 -100 690 -71 648 -71 c 256
286 207 m 256
 234 207 183 159 183 104 c 0
 183 62 215 34 256 34 c 256x37f0
 312 34 358 83 358 136 c 0
 358 177 327 207 286 207 c 256
EndSplineSet
Substitution2: "Single Substitution lookup 22 subtable" uni0E0D.alt1
Substitution2: "Single Substitution lookup 22 subtable" uni0E0D.alt1
EndChar
StartChar: uni0E0E
Encoding: 3598 3598 225
Width: 846
VWidth: 1533
Flags: W
HStem: -250 40<170.585 309.068> -89 37<544.31 611.712> -83 39<193.357 403.261> -8 42<92.0143 204.428> 207 38<115.86 229.262> 593 31<478.509 683.522>
VStem: 34 40<52.0116 164.598> 87 69<-194.731 -115.465> 752 74<402.069 411 422 425.891 425.891 438.5 432.195 527.834>
Fore
34 95 m 0xdf80
 34 175 103 245 183 245 c 0
 232 245 252 226 259 218 c 1
 277 316 290 368 397 391 c 1
 256 391 l 1
 309 595 510 624 588 624 c 0
 700 624 830 588 830 454 c 0
 830 441 829 426 826 411 c 2
 711 -245 l 1
 635 -245 l 1
 590 -207 544 -172 489 -143 c 1
 392 -199 340 -250 234 -250 c 0
 177 -250 87 -230 87 -165 c 0
 87 -92 175 -44 285 -44 c 0xbf80
 373 -44 459 -79 497 -97 c 1
 540 -74 584 -59 627 -52 c 1
 620 -89 l 1
 569 -101 552 -108 536 -117 c 1
 556 -128 575 -140 593 -152 c 2
 644 -193 l 1
 752 422 l 2
 754 433 755 444 755 455 c 0
 755 539 688 593 583 593 c 0
 448 593 361 500 341 417 c 1
 440 417 l 1
 434 386 l 1
 381 367 352 328 330 203 c 0
 317 136 317 -8 146 -8 c 0
 83 -8 34 31 34 95 c 0xdf80
176 207 m 256
 121 207 74 157 74 104 c 0
 74 62 104 34 146 34 c 0
 200 34 249 81 249 136 c 0
 249 177 217 207 176 207 c 256
276 -83 m 0
 218 -83 156 -111 156 -160 c 0
 156 -199 210 -210 245 -210 c 0
 282 -210 317 -200 350 -182 c 2
 449 -123 l 1
 388 -94 330 -83 276 -83 c 0
EndSplineSet
Substitution2: "Single Substitution lookup 22 subtable" uni0E0E.alt1
Substitution2: "Single Substitution lookup 22 subtable" uni0E0E.alt1
EndChar
StartChar: uni0E0F
Encoding: 3599 3599 226
Width: 846
VWidth: 1533
Flags: W
HStem: -259 40<110 222.408> -92 38<119.249 251.809> -8 42<92.0143 204.428> 207 38<115.86 229.262> 593 31<478.509 681.56>
VStem: 31 55<-207.779 -123.539> 34 40<52.0116 164.598> 752 74<402.069 411 422 425.218 425.218 438.5 431.859 527.357>
Fore
34 95 m 0xfb
 34 175 103 245 183 245 c 0
 232 245 252 226 259 218 c 1
 277 316 290 368 397 391 c 1
 256 391 l 1
 309 595 510 624 588 624 c 0
 691 624 830 588 830 452 c 0
 830 439 829 426 826 411 c 2
 711 -245 l 1
 635 -245 l 1
 547 -147 l 1
 421 -253 l 1
 400 -215 369 -180 336 -152 c 1
 246 -229 210 -259 138 -259 c 0
 85 -259 31 -235 31 -179 c 0xfd
 31 -115 94 -54 193 -54 c 0
 254 -54 305 -78 345 -104 c 1
 383 -81 415 -68 446 -61 c 1
 440 -98 l 1
 415 -105 393 -115 374 -126 c 1
 408 -159 426 -182 436 -198 c 1
 556 -97 l 1
 644 -193 l 1
 752 422 l 2
 754 433 755 444 755 455 c 0
 755 539 688 593 583 593 c 0
 448 593 361 500 341 417 c 1
 440 417 l 1
 434 386 l 1
 381 367 352 328 330 203 c 0
 317 136 317 -8 146 -8 c 0
 83 -8 34 31 34 95 c 0xfb
176 207 m 256
 121 207 74 157 74 104 c 0xfb
 74 62 104 34 146 34 c 0
 200 34 249 81 249 136 c 0
 249 177 217 207 176 207 c 256
194 -92 m 0
 151 -92 86 -114 86 -172 c 0xfd
 86 -210 128 -219 151 -219 c 0
 217 -219 263 -165 307 -132 c 1
 262 -98 218 -92 194 -92 c 0
EndSplineSet
Substitution2: "Single Substitution lookup 22 subtable" uni0E0F.alt1
Substitution2: "Single Substitution lookup 22 subtable" uni0E0F.alt1
EndChar
StartChar: uni0E10
Encoding: 3600 3600 227
Width: 640
VWidth: 1533
Flags: W
HStem: -262 37<312.441 412.233> -251 41<-4.88752 73.8757> -124 43<7.46122 88.4383> -69 38<393.249 479.493> 0 21G<445.312 533> 113 39<167.934 280.674> 327 38<193.472 305.29> 399 38<187 554> 500 47<464.875 577.108> 569 52<265.834 411.836>
VStem: -74 53<-203.615 -137.959> 109 39<172.703 282.525> 333 41<-168.224 -88.2023> 499 45<-156.748 -77.8018>
Fore
109 216 m 0x3ffc
 109 287 169 365 259 365 c 0
 312 365 353 341 379 279 c 2
 469 69 l 1
 472 87 l 2
 496 219 534 281 554 399 c 1
 85 399 l 1
 105 508 194 621 324 621 c 0
 431 621 453 547 525 547 c 0
 562 547 599 580 605 613 c 1
 695 613 l 1
 675 551 611 500 546 500 c 0
 458 500 423 569 344 569 c 0
 270 569 201 516 187 437 c 1
 641 437 l 1
 637 415 l 2
 614 284 554 136 533 16 c 2
 530 0 l 1
 454 0 l 1
 358 221 l 1
 337 161 280 113 215 113 c 0
 148 113 109 158 109 216 c 0x3ffc
333 -139 m 0
 333 -72 400 -31 453 -31 c 0
 507 -31 544 -64 544 -115 c 0
 544 -197 459 -262 385 -262 c 0xbffc
 324 -262 283 -239 258 -202 c 1
 250 -214 245 -222 205 -256 c 1
 164 -256 l 1
 157 -233 149 -212 138 -195 c 1
 104 -229 59 -251 13 -251 c 0x7ffc
 -18 -251 -74 -237 -74 -183 c 0
 -74 -109 4 -81 46 -81 c 0
 66 -81 110 -84 151 -136 c 1
 170 -112 190 -83 203 -54 c 1
 238 -54 l 1
 223 -95 201 -131 170 -164 c 1
 177 -174 185 -184 196 -219 c 1
 224 -190 247 -158 263 -124 c 1
 272 -158 300 -225 382 -225 c 0xbffc
 390 -225 412 -221 423 -215 c 1
 384 -215 333 -193 333 -139 c 0
253 327 m 256
 201 327 148 279 148 225 c 0
 148 185 177 152 222 152 c 256
 272 152 325 199 325 254 c 0
 325 293 297 327 253 327 c 256
446 -69 m 256
 412 -69 374 -94 374 -133 c 0
 374 -167 409 -176 427 -176 c 256
 452 -176 499 -160 499 -112 c 0
 499 -78 463 -69 446 -69 c 256
42 -124 m 0
 23 -124 -21 -139 -21 -175 c 0
 -21 -205 18 -210 30 -210 c 0x7ffc
 52 -210 78 -205 123 -167 c 1
 103 -144 77 -124 42 -124 c 0
EndSplineSet
Substitution2: "Single Substitution lookup 22 subtable" uni0E10.alt1
Substitution2: "Single Substitution lookup 22 subtable" uni0E10.alt1
EndChar
StartChar: uni0E11
Encoding: 3601 3601 228
Width: 852
VWidth: 1533
Flags: W
HStem: 0 21G<235 329.768 684 763.51> 287 38<161.579 275.007> 500 38<202.501 297.289> 590 34<222.898 344.967 378.094 473.873>
VStem: 90 51<344.932 456.924> 318 39<368.754 478.496> 489 70<429.542 575.576> 771 87<471.847 584.818>
Fore
90 409 m 0
 90 507 171 624 285 624 c 0
 322 624 346 611 360 587 c 1
 383 613 420 624 452 624 c 0
 536 624 559 570 559 516 c 0
 559 404 482 372 387 292 c 0
 367 275 356 257 353 238 c 2
 323 67 l 1
 784 621 l 1
 815 621 858 609 858 563 c 0
 858 558 857 553 856 547 c 2
 760 0 l 1
 684 0 l 1
 689 31 696 62 712 154 c 2
 753 387 l 2
 761 432 771 490 771 510 c 0
 771 514 771 516 770 517 c 2
 754 526 l 1
 313 0 l 1
 235 0 l 1
 274 219 l 2
 285 282 363 302 445 391 c 0
 472 421 489 466 489 513 c 0
 489 553 475 590 424 590 c 0
 399 590 379 579 356 555 c 1
 342 576 323 590 283 590 c 0
 242 590 194 557 178 517 c 1
 202 531 226 538 251 538 c 0
 317 538 357 493 357 435 c 0
 357 359 290 287 207 287 c 0
 124 287 90 345 90 409 c 0
244 500 m 256
 191 500 141 453 141 396 c 0
 141 355 173 325 213 325 c 256
 273 325 318 379 318 426 c 0
 318 469 286 500 244 500 c 256
EndSplineSet
EndChar
StartChar: uni0E12
Encoding: 3602 3602 229
Width: 1094
VWidth: 1533
Flags: W
HStem: -11 39<588.103 701.401> 230 38<352.724 444.451> 443 38<377.534 488.87> 587 39<321.09 441.718 521.904 635.31>
VStem: 294 39<287.837 400.299> 510 46<312.877 421.92> 529 39<49.297 159.451> 660 76<344.497 561.872> 745 40<71.4752 151.736 149.023 154.45>
Fore
736 488 m 0xfd80
 736 423 719 379 700 270 c 1
 794 219 873 144 938 66 c 1
 1034 613 l 1
 1111 613 l 1
 1003 0 l 1
 925 0 l 1
 887 58 837 112 784 156 c 1
 784 152 785 147 785 142 c 0
 785 50 705 -11 634 -11 c 256
 570 -11 529 35 529 93 c 0xfb80
 529 176 605 232 664 241 c 1
 622 268 l 1
 630 310 660 406 660 480 c 0
 660 536 643 587 581 587 c 0
 545 587 513 571 476 527 c 1
 459 527 l 1
 453 561 431 587 388 587 c 0
 285 587 236 460 225 399 c 0
 193 217 220 252 177 38 c 1
 263 69 403 142 462 245 c 1
 439 235 419 230 400 230 c 0
 338 230 294 274 294 333 c 0
 294 414 367 481 444 481 c 0
 513 481 556 433 556 376 c 0
 556 281 435 93 172 0 c 1
 95 0 l 1
 102 23 107 50 111 75 c 0
 135 208 123 263 147 396 c 0
 169 521 261 626 372 626 c 0
 440 626 464 592 476 566 c 1
 508 602 547 626 608 626 c 0
 686 626 736 590 736 488 c 0xfd80
672 202 m 256
 613 202 568 148 568 101 c 0
 568 62 597 28 641 28 c 0
 701 28 745 82 745 130 c 0
 745 169 717 202 672 202 c 256
437 443 m 256
 389 443 333 399 333 340 c 0
 333 298 365 268 406 268 c 256
 457 268 510 315 510 371 c 0xfd80
 510 413 477 443 437 443 c 256
EndSplineSet
EndChar
StartChar: uni0E13
Encoding: 3603 3603 230
Width: 1068
VWidth: 1533
Flags: W
HStem: -12 32<832.494 949.682> -8 42<203.054 316.53> 207 38<225.248 338.594> 593 31<349.027 552.691>
VStem: 115 68<53.4249 152.575> 358 39<75.0941 187.778> 626 74<370.19 526.729> 773 36<43.5761 146.008> 1003 38<73.1499 188.4>
Fore
397 143 m 0xbf80
 397 63 329 -8 241 -8 c 0x7f80
 155 -8 115 42 115 113 c 0
 115 125 116 137 118 149 c 2
 136 247 l 2
 146 305 180 370 262 391 c 1
 127 391 l 1
 167 547 310 624 460 624 c 0
 649 624 700 549 700 435 c 0
 700 340 668 237 642 90 c 1
 727 179 821 244 950 285 c 1
 1008 613 l 1
 1085 613 l 1
 1026 278 l 1
 1001 271 975 262 950 250 c 1
 1004 241 1041 199 1041 143 c 0
 1041 60 963 -12 884 -12 c 0
 814 -12 773 38 773 97 c 0
 773 124 780 146 789 164 c 1
 714 114 660 56 626 0 c 1
 549 0 l 1
 623 422 l 2
 625 433 626 444 626 454 c 0
 626 542 555 593 455 593 c 0
 320 593 232 501 212 417 c 1
 312 417 l 1
 306 386 l 1
 234 353 221 297 211 238 c 2
 207 218 l 1
 218 226 244 245 293 245 c 0
 357 245 397 200 397 143 c 0xbf80
923 213 m 0
 867 213 809 163 809 100 c 0
 809 57 839 20 889 20 c 0xbf80
 942 20 1003 72 1003 133 c 0
 1003 177 969 213 923 213 c 0
286 207 m 256
 227 207 183 152 183 105 c 0
 183 62 216 34 256 34 c 0x7f80
 312 34 358 83 358 136 c 0
 358 177 327 207 286 207 c 256
EndSplineSet
EndChar
StartChar: uni0E14
Encoding: 3604 3604 231
Width: 743
VWidth: 1533
Flags: W
HStem: 0 21G<95 303.5 575 655.544> 230 40<354.508 444.707> 442 39<377.234 488.608> 593 31<369.825 574.581>
VStem: 294 40<289.672 399.609> 509 47<312.118 421.67> 649 76<402.041 412 422 430 430 438.023 434.012 524.25>
Fore
556 376 m 0
 556 281 435 93 172 0 c 1
 95 0 l 1
 102 23 107 50 111 75 c 0
 135 208 123 263 147 396 c 0
 175 555 350 624 481 624 c 256
 670 624 728 535 728 448 c 0
 728 436 727 424 725 412 c 2
 652 0 l 1
 575 0 l 1
 649 422 l 2
 651 433 652 444 652 454 c 0
 652 548 567 593 476 593 c 0
 366 593 248 526 225 399 c 0
 193 217 220 252 177 38 c 1
 263 69 403 142 462 245 c 1
 439 235 419 230 400 230 c 0
 338 230 294 274 294 333 c 0
 294 414 367 481 444 481 c 0
 513 481 556 433 556 376 c 0
437 442 m 256
 382 442 334 392 334 340 c 0
 334 296 370 270 407 270 c 256
 463 270 509 319 509 371 c 0
 509 413 477 442 437 442 c 256
EndSplineSet
EndChar
StartChar: uni0E15
Encoding: 3605 3605 232
Width: 743
VWidth: 1533
Flags: W
HStem: 0 21G<95 303.5 575 655.522> 230 38<353.041 444.451> 443 38<377.624 488.87> 587 39<321.587 440.754 521.559 635.212>
VStem: 294 39<288.273 400.331> 510 46<312.877 421.92> 654 79<440.123 448 460 462.895 462.895 479.454 471.175 563.839>
Fore
556 376 m 0
 556 281 435 93 172 0 c 1
 95 0 l 1
 102 23 107 50 111 75 c 0
 135 208 123 263 147 396 c 0
 166 506 249 626 372 626 c 0
 440 626 464 592 476 566 c 1
 508 602 547 626 608 626 c 0
 709 626 736 560 736 499 c 0
 736 485 735 472 733 460 c 2
 652 0 l 1
 575 0 l 1
 654 448 l 2
 657 462 658 478 658 493 c 0
 658 541 641 587 581 587 c 0
 543 587 509 569 476 527 c 1
 459 527 l 1
 453 561 430 587 388 587 c 0
 285 587 236 462 225 399 c 0
 193 217 220 252 177 38 c 1
 263 69 403 142 462 245 c 1
 439 235 419 230 400 230 c 0
 334 230 294 276 294 333 c 0
 294 407 360 481 444 481 c 0
 513 481 556 433 556 376 c 0
437 443 m 256
 389 443 333 399 333 340 c 0
 333 298 365 268 406 268 c 256
 457 268 510 315 510 371 c 0
 510 413 477 443 437 443 c 256
EndSplineSet
EndChar
StartChar: uni0E16
Encoding: 3606 3606 233
Width: 717
VWidth: 1533
Flags: W
HStem: -8 42<202.879 316.53> 207 38<226.299 338.594> 593 31<349.027 552.643>
VStem: 115 68<53.3624 152.971> 358 39<75.0941 187.778> 623 75<402.041 411 422 425.668 425.668 438.023 431.845 528.256>
Fore
397 143 m 0
 397 63 329 -8 241 -8 c 0
 155 -8 115 42 115 113 c 0
 115 125 116 137 118 149 c 2
 136 247 l 2
 146 305 180 370 262 391 c 1
 127 391 l 1
 167 547 310 624 460 624 c 0
 589 624 702 577 702 454 c 0
 702 440 701 426 698 411 c 2
 626 0 l 1
 549 0 l 1
 623 422 l 2
 625 433 626 444 626 454 c 0
 626 542 555 593 455 593 c 0
 320 593 232 501 212 417 c 1
 312 417 l 1
 306 386 l 1
 235 355 221 297 211 236 c 2
 207 218 l 1
 218 226 244 245 293 245 c 0
 357 245 397 200 397 143 c 0
286 207 m 256
 234 207 183 159 183 104 c 0
 183 62 215 34 256 34 c 256
 312 34 358 83 358 136 c 0
 358 177 327 207 286 207 c 256
EndSplineSet
EndChar
StartChar: uni0E17
Encoding: 3607 3607 234
Width: 801
VWidth: 1533
Flags: W
HStem: 0 21G<221 312.437 633 713.51> 371 38<159.01 254.774> 583 41<181.125 295.028>
VStem: 101 39<428.222 540.638> 316 67<464.077 562.988> 721 87<493.374 584.347>
Fore
101 473 m 0
 101 559 175 624 257 624 c 0
 343 624 383 574 383 504 c 0
 383 492 382 480 380 468 c 2
 310 71 l 1
 730 621 l 1
 764 621 808 609 808 563 c 0
 808 558 807 553 806 547 c 2
 710 0 l 1
 633 0 l 1
 717 476 l 2
 720 492 721 504 721 510 c 0
 721 514 721 516 720 517 c 2
 703 526 l 1
 297 0 l 1
 221 0 l 1
 291 399 l 1
 265 378 233 371 205 371 c 0
 140 371 101 416 101 473 c 0
243 583 m 256
 190 583 140 537 140 480 c 0
 140 439 170 409 212 409 c 256
 264 409 316 458 316 511 c 0
 316 554 284 583 243 583 c 256
EndSplineSet
EndChar
StartChar: uni0E18
Encoding: 3608 3608 235
Width: 677
VWidth: 1533
Flags: W
HStem: 0 38<176 516> 388 38<204 577> 514 44<482.286 591.339> 570 51<287.837 439.149>
Fore
117 388 m 1
 147 508 220 621 358 621 c 0
 446 621 474 558 536 558 c 0
 572 558 598 576 612 613 c 1
 711 613 l 1
 695 550 628 514 569 514 c 0
 495 514 438 570 365 570 c 0
 257 570 214 467 204 426 c 1
 661 426 l 1
 586 0 l 1
 92 0 l 1
 152 342 l 1
 229 342 l 1
 176 38 l 1
 516 38 l 1
 577 388 l 1
 117 388 l 1
EndSplineSet
EndChar
StartChar: uni0E19
Encoding: 3609 3609 236
Width: 786
VWidth: 1533
Flags: W
HStem: -12 32<551.064 667.682> 371 38<159.1 254.774> 583 41<183.514 295.028>
VStem: 101 40<427.651 540.098> 316 67<464.077 562.988> 490 35<45.6945 143.59> 721 38<71.6569 187.718>
Fore
101 473 m 0
 101 559 175 624 257 624 c 0
 343 624 383 574 383 504 c 0
 383 492 382 480 380 468 c 2
 309 66 l 1
 431 177 565 247 668 285 c 1
 726 613 l 1
 803 613 l 1
 744 278 l 1
 717 271 691 262 666 250 c 1
 721 241 759 200 759 144 c 0
 759 60 681 -12 602 -12 c 0
 531 -12 490 38 490 98 c 0
 490 117 495 140 507 164 c 1
 434 118 360 61 299 0 c 1
 221 0 l 1
 291 399 l 1
 265 378 233 371 205 371 c 0
 140 371 101 416 101 473 c 0
641 213 m 0
 588 213 525 163 525 100 c 0
 525 54 561 20 607 20 c 0
 660 20 721 72 721 133 c 0
 721 177 687 213 641 213 c 0
243 583 m 256
 188 583 141 534 141 481 c 0
 141 442 166 409 212 409 c 256
 264 409 316 458 316 511 c 0
 316 554 284 583 243 583 c 256
EndSplineSet
EndChar
StartChar: uni0E1A
Encoding: 3610 3610 237
Width: 786
VWidth: 1533
Flags: W
HStem: 0 38<304 625> 371 38<159.01 254.774> 583 41<181.125 295.028>
VStem: 101 39<428.222 540.638> 316 67<464.077 562.988>
Fore
101 473 m 0
 101 559 175 624 257 624 c 0
 343 624 383 574 383 504 c 0
 383 492 382 480 380 468 c 2
 304 38 l 1
 625 38 l 1
 726 613 l 1
 803 613 l 1
 695 0 l 1
 221 0 l 1
 291 399 l 1
 265 378 233 371 205 371 c 0
 140 371 101 416 101 473 c 0
243 583 m 256
 190 583 140 537 140 480 c 0
 140 439 170 409 212 409 c 256
 264 409 316 458 316 511 c 0
 316 554 284 583 243 583 c 256
EndSplineSet
EndChar
StartChar: uni0E1B
Encoding: 3611 3611 238
Width: 786
VWidth: 1533
Flags: W
HStem: 0 38<304 625> 371 38<159.01 254.774> 583 41<181.125 295.028>
VStem: 101 39<428.222 540.638> 316 67<464.077 562.988>
Fore
101 473 m 0
 101 559 175 624 257 624 c 0
 343 624 383 574 383 504 c 0
 383 492 382 480 380 468 c 2
 304 38 l 1
 625 38 l 1
 759 797 l 1
 836 797 l 1
 695 0 l 1
 221 0 l 1
 291 399 l 1
 265 378 233 371 205 371 c 0
 140 371 101 416 101 473 c 0
243 583 m 256
 190 583 140 537 140 480 c 0
 140 439 170 409 212 409 c 256
 264 409 316 458 316 511 c 0
 316 554 284 583 243 583 c 256
EndSplineSet
EndChar
StartChar: uni0E1C
Encoding: 3612 3612 239
Width: 763
VWidth: 1533
Flags: W
HStem: 0 21G<100 202.188 577.841 675.524> 371 38<263.281 374.365> 583 41<287.117 399.951>
VStem: 419 39<452.855 563.771>
Fore
458 520 m 0
 458 440 385 371 309 371 c 0
 261 371 242 389 234 396 c 1
 229 366 l 2
 202 250 214 208 195 103 c 0
 193 91 190 78 188 66 c 1
 448 353 l 1
 607 66 l 1
 703 613 l 1
 780 613 l 1
 672 0 l 1
 589 0 l 1
 435 276 l 1
 184 0 l 1
 100 0 l 1
 156 313 120 624 346 624 c 0
 410 624 458 584 458 520 c 0
347 583 m 256
 300 583 243 542 243 481 c 0
 243 439 275 409 316 409 c 256
 366 409 419 456 419 511 c 0
 419 554 388 583 347 583 c 256
EndSplineSet
EndChar
StartChar: uni0E1D
Encoding: 3613 3613 240
Width: 763
VWidth: 1533
Flags: W
HStem: 0 21G<100 202.188 577.841 675.538> 371 38<263.281 374.365> 583 41<287.117 399.951>
VStem: 419 39<452.855 563.771>
Fore
458 520 m 0
 458 440 385 371 309 371 c 0
 261 371 242 389 234 396 c 1
 229 366 l 2
 202 250 214 208 195 103 c 0
 193 91 190 78 188 66 c 1
 448 353 l 1
 607 66 l 1
 736 797 l 1
 813 797 l 1
 672 0 l 1
 589 0 l 1
 435 276 l 1
 184 0 l 1
 100 0 l 1
 156 313 120 624 346 624 c 0
 410 624 458 584 458 520 c 0
347 583 m 256
 300 583 243 542 243 481 c 0
 243 439 275 409 316 409 c 256
 366 409 419 456 419 511 c 0
 419 554 388 583 347 583 c 256
EndSplineSet
EndChar
StartChar: uni0E1E
Encoding: 3614 3614 241
Width: 869
VWidth: 1533
Flags: W
HStem: 0 21G<221 330.632 675.443 780.524> 371 38<159.01 254.774> 583 41<181.125 295.028>
VStem: 101 39<428.222 540.638> 316 67<464.077 562.988>
Fore
101 473 m 0
 101 559 175 624 257 624 c 0
 343 624 383 574 383 504 c 0
 383 492 382 480 380 468 c 2
 309 66 l 1
 611 629 l 1
 713 66 l 1
 809 613 l 1
 885 613 l 1
 777 0 l 1
 679 0 l 1
 589 506 l 1
 320 0 l 1
 221 0 l 1
 291 399 l 1
 265 378 233 371 205 371 c 0
 140 371 101 416 101 473 c 0
243 583 m 256
 190 583 140 537 140 480 c 0
 140 439 170 409 212 409 c 256
 264 409 316 458 316 511 c 0
 316 554 284 583 243 583 c 256
EndSplineSet
EndChar
StartChar: uni0E1F
Encoding: 3615 3615 242
Width: 869
VWidth: 1533
Flags: W
HStem: 0 21G<221 330.632 675.443 780.538> 371 38<159.01 254.774> 583 41<181.125 295.028>
VStem: 101 39<428.222 540.638> 316 67<464.077 562.988>
Fore
101 473 m 0
 101 559 175 624 257 624 c 0
 343 624 383 574 383 504 c 0
 383 492 382 480 380 468 c 2
 309 66 l 1
 611 629 l 1
 713 66 l 1
 842 797 l 1
 918 797 l 1
 777 0 l 1
 679 0 l 1
 589 506 l 1
 320 0 l 1
 221 0 l 1
 291 399 l 1
 265 378 233 371 205 371 c 0
 140 371 101 416 101 473 c 0
243 583 m 256
 190 583 140 537 140 480 c 0
 140 439 170 409 212 409 c 256
 264 409 316 458 316 511 c 0
 316 554 284 583 243 583 c 256
EndSplineSet
EndChar
StartChar: uni0E20
Encoding: 3616 3616 243
Width: 846
VWidth: 1533
Flags: W
HStem: -8 42<92.0143 204.428> 207 38<115.86 229.262> 593 31<478.509 683.522>
VStem: 34 40<52.0116 164.598> 752 74<402.041 411 422 425.891 425.891 438.5 432.195 527.834>
Fore
34 95 m 0
 34 175 103 245 183 245 c 0
 232 245 252 226 259 218 c 1
 277 316 290 368 397 391 c 1
 256 391 l 1
 309 595 510 624 588 624 c 0
 700 624 830 588 830 454 c 0
 830 441 829 426 826 411 c 2
 754 0 l 1
 678 0 l 1
 752 422 l 2
 754 433 755 444 755 455 c 0
 755 539 688 593 583 593 c 0
 448 593 361 500 341 417 c 1
 440 417 l 1
 434 386 l 1
 381 367 352 328 330 203 c 0
 317 136 317 -8 146 -8 c 0
 83 -8 34 31 34 95 c 0
176 207 m 256
 121 207 74 157 74 104 c 0
 74 62 104 34 146 34 c 0
 200 34 249 81 249 136 c 0
 249 177 217 207 176 207 c 256
EndSplineSet
EndChar
StartChar: uni0E21
Encoding: 3617 3617 244
Width: 795
VWidth: 1533
Flags: W
HStem: -8 42<139.985 252.112> 218 43<174.179 288.679> 371 38<205.01 300.774> 583 41<228.325 342.062>
VStem: 77 43<54.2457 169.19> 147 39<428.222 541.843> 362 68<454.001 562.958>
Fore
147 473 m 0
 147 557 219 624 303 624 c 0
 395 624 430 574 430 486 c 0
 430 389 396 304 383 227 c 1
 635 46 l 1
 735 613 l 1
 812 613 l 1
 704 0 l 1
 627 0 l 1
 375 184 l 1
 353 56 316 -8 197 -8 c 0
 133 -8 77 28 77 100 c 0
 77 204 188 261 259 261 c 0
 278 261 295 257 311 248 c 1
 337 399 l 1
 311 378 279 371 251 371 c 0
 186 371 147 416 147 473 c 0
289 583 m 256
 236 583 186 537 186 480 c 0
 186 439 216 409 258 409 c 256
 310 409 362 458 362 511 c 0
 362 554 330 583 289 583 c 256
245 218 m 0
 180 218 120 174 120 107 c 0
 120 64 149 34 196 34 c 256
 258 34 283 92 289 127 c 2
 304 210 l 1
 288 217 273 218 245 218 c 0
EndSplineSet
EndChar
StartChar: uni0E22
Encoding: 3618 3618 245
Width: 735
VWidth: 1533
Flags: W
HStem: 0 38<225 574> 354 38<298.568 411.042> 567 54<293.336 434.68>
VStem: 120 67<336.79 494.759> 239 40<411.642 523.894> 456 39<437.476 546.741>
Fore
340 592 m 1
 262 586 187 505 187 410 c 0
 187 333 238 284 321 284 c 0
 355 284 381 291 407 305 c 1
 416 284 l 1
 362 262 l 2
 342 254 256 215 243 143 c 2
 225 38 l 1
 574 38 l 1
 675 613 l 1
 752 613 l 1
 644 0 l 1
 141 0 l 1
 166 141 l 2
 173 184 205 221 271 248 c 1
 231 253 120 280 120 399 c 0
 120 527 219 621 344 621 c 0
 426 621 495 586 495 507 c 0
 495 416 415 354 344 354 c 256
 281 354 239 399 239 457 c 0
 239 504 267 570 340 592 c 1
382 567 m 256
 332 567 279 520 279 465 c 0
 279 426 307 392 351 392 c 256
 399 392 456 438 456 494 c 0
 456 537 423 567 382 567 c 256
EndSplineSet
EndChar
StartChar: uni0E23
Encoding: 3619 3619 246
Width: 643
VWidth: 1533
Flags: W
HStem: -17 38<336.297 453.929> 209 38<361.277 479.171> 388 38<170 543> 514 44<461.551 583.207> 570 51<259.133 419.9>
VStem: 273 39<44.2006 159.562>
Fore
273 92 m 0
 273 176 352 247 430 247 c 0
 487 247 505 224 512 212 c 1
 543 388 l 1
 83 388 l 1
 113 511 186 621 327 621 c 0
 424 621 468 558 521 558 c 0
 549 558 593 572 609 613 c 1
 707 613 l 1
 694 554 619 514 559 514 c 0
 477 514 410 570 331 570 c 0
 250 570 187 493 170 426 c 1
 627 426 l 1
 579 152 l 2
 562 54 485 -17 383 -17 c 0
 320 -17 273 30 273 92 c 0
423 209 m 256
 360 209 312 150 312 99 c 0
 312 54 346 21 390 21 c 256
 449 21 502 74 502 132 c 0
 502 174 471 209 423 209 c 256
EndSplineSet
EndChar
StartChar: uni0E24
Encoding: 3620 3620 247
Width: 717
VWidth: 1533
Flags: W
HStem: -8 42<202.879 316.53> 207 38<226.299 338.594> 593 31<349.027 552.643>
VStem: 115 68<53.3624 152.971> 358 39<75.0941 187.778> 623 75<401.991 411 422 425.668 425.668 438.023 431.845 528.256>
Fore
397 143 m 0
 397 63 329 -8 241 -8 c 0
 155 -8 115 42 115 113 c 0
 115 125 116 137 118 149 c 2
 136 247 l 2
 146 305 180 370 262 391 c 1
 127 391 l 1
 167 547 310 624 460 624 c 0
 589 624 702 577 702 454 c 0
 702 440 701 426 698 411 c 2
 594 -184 l 1
 517 -184 l 1
 623 422 l 2
 625 433 626 444 626 454 c 0
 626 542 555 593 455 593 c 0
 320 593 232 501 212 417 c 1
 312 417 l 1
 306 386 l 1
 235 355 222 298 211 238 c 2
 207 218 l 1
 218 226 244 245 293 245 c 0
 357 245 397 200 397 143 c 0
286 207 m 256
 234 207 183 159 183 104 c 0
 183 62 215 34 256 34 c 256
 312 34 358 83 358 136 c 0
 358 177 327 207 286 207 c 256
EndSplineSet
EndChar
StartChar: uni0E25
Encoding: 3621 3621 248
Width: 760
VWidth: 1533
Flags: W
HStem: -11 39<190.304 307.95> 215 38<215.1 334.585> 399 35<323.389 502.413> 593 31<383.045 581.822>
VStem: 103 64<51.8223 166.621> 357 39<76.7276 192.061> 668 76<417.515 517.592>
Fore
103 135 m 0
 103 300 238 434 422 434 c 0
 460 434 595 429 646 308 c 1
 666 422 l 2
 668 431 668 440 668 448 c 0
 668 539 577 593 485 593 c 0
 388 593 266 528 233 437 c 1
 155 437 l 1
 200 564 366 624 490 624 c 0
 610 624 744 576 744 448 c 0
 744 436 743 425 741 412 c 2
 668 0 l 1
 592 0 l 1
 598 34 l 2
 610 98 619 157 619 208 c 0
 619 272 604 325 557 363 c 0
 528 387 481 399 418 399 c 0
 303 399 209 311 190 218 c 1
 202 230 229 253 286 253 c 0
 349 253 396 206 396 144 c 0
 396 60 318 -11 239 -11 c 0
 143 -11 103 53 103 135 c 0
279 215 m 256
 216 215 167 158 167 106 c 0
 167 63 198 28 246 28 c 256
 304 28 357 81 357 138 c 0
 357 183 323 215 279 215 c 256
EndSplineSet
EndChar
StartChar: uni0E26
Encoding: 3622 3622 249
Width: 846
VWidth: 1533
Flags: W
HStem: -8 42<92.0143 204.428> 207 38<115.86 229.262> 593 31<478.509 683.522>
VStem: 34 40<52.0116 164.598> 752 74<401.991 411 422 425.891 425.891 438.5 432.195 527.834>
Fore
34 95 m 0
 34 175 103 245 183 245 c 0
 232 245 252 226 259 218 c 1
 277 316 290 368 397 391 c 1
 256 391 l 1
 309 595 510 624 588 624 c 0
 700 624 830 588 830 454 c 0
 830 441 829 426 826 411 c 2
 722 -184 l 1
 646 -184 l 1
 752 422 l 2
 754 433 755 444 755 455 c 0
 755 539 688 593 583 593 c 0
 448 593 361 500 341 417 c 1
 440 417 l 1
 434 386 l 1
 381 367 352 328 330 203 c 0
 317 136 317 -8 146 -8 c 0
 83 -8 34 31 34 95 c 0
176 207 m 256
 121 207 74 157 74 104 c 0
 74 62 104 34 146 34 c 0
 200 34 249 81 249 136 c 0
 249 177 217 207 176 207 c 256
EndSplineSet
EndChar
StartChar: uni0E27
Encoding: 3623 3623 250
Width: 636
VWidth: 1533
Flags: W
HStem: -8 39<327.818 445.399> 218 38<352.559 472.599> 593 31<284.718 476.519>
VStem: 267 38<53.3224 168.224> 545 76<418.775 529.713>
Fore
267 101 m 0
 267 185 345 256 424 256 c 0
 479 256 499 233 507 221 c 1
 542 422 l 2
 544 434 545 446 545 457 c 0
 545 551 467 593 384 593 c 0
 276 593 184 522 155 437 c 1
 77 437 l 1
 122 562 257 624 389 624 c 0
 520 624 621 577 621 456 c 0
 621 443 620 428 617 412 c 2
 572 161 l 2
 555 63 480 -8 378 -8 c 0
 312 -8 267 40 267 101 c 0
417 218 m 256
 356 218 305 163 305 107 c 0
 305 65 336 31 384 31 c 256
 445 31 495 87 495 140 c 0
 495 186 462 218 417 218 c 256
EndSplineSet
EndChar
StartChar: uni0E28
Encoding: 3624 3624 251
Width: 758
VWidth: 1533
Flags: W
HStem: 0 21G<95 181.617 590 670.544> 212 38<364.857 477.743> 593 31<376.993 583.87>
VStem: 521 40<293.151 405.632> 664 76<402.041 412 422 429.046 429.046 435.5 432.273 519.314>
Fore
561 362 m 0
 561 271 481 212 411 212 c 0
 360 212 319 245 310 287 c 1
 172 0 l 1
 95 0 l 1
 107 57 l 2
 109 69 112 81 114 92 c 0
 136 214 123 259 147 396 c 0
 175 557 360 624 489 624 c 0
 586 624 626 604 645 593 c 1
 660 606 685 631 708 675 c 1
 791 675 l 1
 767 634 721 596 684 570 c 1
 717 543 743 502 743 446 c 0
 743 436 742 424 740 412 c 2
 667 0 l 1
 590 0 l 1
 664 422 l 2
 666 431 667 440 667 449 c 0
 667 485 652 516 632 535 c 1
 586 507 539 481 489 458 c 1
 523 447 561 418 561 362 c 0
449 425 m 256
 399 425 345 378 345 323 c 0
 345 280 377 250 418 250 c 256
 468 250 521 295 521 353 c 0
 521 396 490 425 449 425 c 256
225 399 m 0
 201 259 215 242 188 117 c 1
 303 353 l 2
 324 395 367 458 445 463 c 1
 535 506 576 536 603 560 c 1
 570 582 530 593 484 593 c 0
 376 593 248 526 225 399 c 0
EndSplineSet
EndChar
StartChar: uni0E29
Encoding: 3625 3625 252
Width: 817
VWidth: 1533
Flags: W
HStem: 0 38<304 640> 178 49<465.973 620.835> 178 34<583 607.25> 371 38<159.01 254.774> 386 40<486.969 596.907> 583 41<181.125 295.028>
VStem: 101 39<428.222 540.638> 316 67<464.077 562.988> 411 39<242.644 349.775> 612 39<263.054 370.271>
Fore
651 330 m 0xcfc0
 651 275 613 232 583 212 c 1
 592 212 624 213 675 238 c 1
 741 613 l 1
 818 613 l 1
 763 301 l 1
 809 350 815 386 819 408 c 1
 892 408 l 1
 887 385 868 314 752 236 c 1
 710 0 l 1
 221 0 l 1
 291 399 l 1
 265 378 233 371 205 371 c 0xb7c0
 140 371 101 416 101 473 c 0
 101 559 175 624 257 624 c 0
 343 624 383 574 383 504 c 0
 383 492 382 480 380 468 c 2
 304 38 l 1
 640 38 l 1
 668 196 l 1
 632 184 596 178 560 178 c 0
 494 178 411 200 411 283 c 0
 411 363 480 426 552 426 c 256
 611 426 651 384 651 330 c 0xcfc0
545 386 m 256xcfc0
 493 386 450 342 450 292 c 0
 450 253 478 227 517 227 c 256
 573 227 612 276 612 322 c 0
 612 358 586 386 545 386 c 256xcfc0
243 583 m 256
 190 583 140 537 140 480 c 0
 140 439 170 409 212 409 c 256x97c0
 264 409 316 458 316 511 c 0
 316 554 284 583 243 583 c 256
EndSplineSet
EndChar
StartChar: uni0E2A
Encoding: 3626 3626 253
Width: 760
VWidth: 1533
Flags: W
HStem: -11 39<190.304 307.95> 215 38<215.1 334.585> 399 35<324.565 424> 593 31<383.045 564.749>
VStem: 103 64<51.8223 166.539> 357 39<76.7276 192.061> 666 75<402.05 412 412 429.523 429.523 433.523 431.523 518.416>
Fore
103 135 m 0
 103 299 236 434 424 434 c 1
 486 469 551 512 605 558 c 1
 577 580 535 593 485 593 c 256
 388 593 266 528 233 437 c 1
 155 437 l 1
 200 564 366 624 490 624 c 0
 530 624 591 619 645 593 c 1
 660 606 685 631 708 675 c 1
 791 675 l 1
 777 651 756 622 685 570 c 1
 702 557 744 519 744 447 c 0
 744 436 743 424 741 412 c 2
 668 0 l 1
 592 0 l 1
 598 34 l 2
 610 98 619 157 619 208 c 0
 619 272 604 325 557 363 c 0
 528 387 481 399 418 399 c 0
 303 399 209 311 190 218 c 1
 202 230 229 253 286 253 c 0
 349 253 396 206 396 144 c 0
 396 60 318 -11 239 -11 c 0
 143 -11 103 53 103 135 c 0
666 422 m 2
 667 430 668 438 668 445 c 0
 668 481 654 512 634 534 c 1
 558 476 506 448 472 431 c 1
 558 418 616 374 646 308 c 1
 666 422 l 2
279 215 m 256
 216 215 167 158 167 106 c 0
 167 63 198 28 246 28 c 256
 304 28 357 81 357 138 c 0
 357 183 323 215 279 215 c 256
EndSplineSet
EndChar
StartChar: uni0E2B
Encoding: 3627 3627 254
Width: 798
VWidth: 1533
Flags: W
HStem: 0 21G<221 300.459 630 710.559> 371 38<159.1 254.774 623.796 672.091> 583 41<187.184 293.163 648.337 759.272>
VStem: 101 40<427.651 540.098> 316 66<453.391 563.524> 564 40<430.832 542.624> 683 74<279.255 281 281 290.523 290.523 307.023 298.773 360.684> 780 43<453.836 565.866>
Fore
564 475 m 0
 564 551 629 624 716 624 c 256
 777 624 823 583 823 522 c 0
 823 448 766 395 719 379 c 1
 742 363 759 336 759 300 c 0
 759 294 758 288 757 281 c 2
 707 0 l 1
 630 0 l 1
 683 299 l 2
 684 305 684 310 684 315 c 0
 684 352 659 373 616 373 c 0
 492 373 341 251 320 133 c 2
 297 0 l 1
 221 0 l 1
 291 399 l 1
 265 378 233 371 205 371 c 0
 140 371 101 416 101 473 c 0
 101 559 175 624 257 624 c 0
 350 624 382 574 382 490 c 0
 382 403 353 316 342 258 c 1
 374 302 448 387 594 402 c 1
 574 421 564 447 564 475 c 0
707 586 m 256
 656 586 604 539 604 482 c 0
 604 441 636 411 676 411 c 256
 726 411 780 456 780 514 c 0
 780 556 748 586 707 586 c 256
243 583 m 256
 188 583 141 534 141 481 c 0
 141 442 166 409 212 409 c 256
 264 409 316 458 316 511 c 0
 316 554 284 583 243 583 c 256
EndSplineSet
EndChar
StartChar: uni0E2C
Encoding: 3628 3628 255
Width: 876
VWidth: 1533
Flags: W
HStem: 0 21G<221 320.074 686.929 780.514> 371 38<159.01 254.774> 432 37<630.072 751.748> 583 41<181.125 295.028> 595 31<646.183 775.14>
VStem: 101 39<428.222 540.638> 316 67<464.077 562.988> 547 68<485.64 566.147> 792 72<511.036 577.261>
Fore
547 514 m 0xf780
 547 585 638 626 719 626 c 0xef80
 758 626 792 618 820 600 c 0
 849 584 864 554 864 511 c 1
 883 519 902 528 951 564 c 1
 977 524 l 1
 957 508 920 483 858 461 c 1
 777 0 l 1
 695 0 l 1
 559 337 l 1
 305 0 l 1
 221 0 l 1
 291 399 l 1
 265 378 233 371 205 371 c 0
 140 371 101 416 101 473 c 0
 101 559 175 624 257 624 c 0
 343 624 383 574 383 504 c 0
 383 492 382 480 380 468 c 2
 310 74 l 1
 575 423 l 1
 714 74 l 1
 778 438 l 1
 756 434 730 432 705 432 c 0
 577 432 547 478 547 514 c 0xf780
714 595 m 0
 673 595 615 569 615 522 c 0
 615 490 651 469 696 469 c 0
 725 469 754 473 786 481 c 1
 790 507 l 2
 791 515 792 522 792 528 c 0
 792 581 748 595 714 595 c 0
243 583 m 256xf780
 190 583 140 537 140 480 c 0
 140 439 170 409 212 409 c 256
 264 409 316 458 316 511 c 0
 316 554 284 583 243 583 c 256xf780
EndSplineSet
Substitution2: "Single Substitution lookup 22 subtable" uni0E2C.alt1
Substitution2: "Single Substitution lookup 22 subtable" uni0E2C.alt1
EndChar
StartChar: uni0E2D
Encoding: 3629 3629 256
Width: 745
VWidth: 1533
Flags: W
HStem: 0 38<183 583> 169 38<246.401 364.22> 394 38<273.414 389.446> 593 31<367.453 566.664>
VStem: 413 39<254.719 370.897> 652 77<417.492 517.146>
Fore
452 323 m 0
 452 249 382 169 295 169 c 0
 240 169 220 192 212 204 c 1
 183 38 l 1
 583 38 l 1
 650 422 l 2
 652 431 652 440 652 448 c 0
 652 539 562 593 470 593 c 0
 372 593 249 527 218 437 c 1
 140 437 l 1
 186 565 350 624 475 624 c 0
 595 624 729 575 729 447 c 0
 729 436 728 424 726 412 c 2
 653 0 l 1
 100 0 l 1
 147 264 l 2
 163 360 239 432 341 432 c 0
 407 432 452 383 452 323 c 0
334 394 m 256
 279 394 224 343 224 285 c 0
 224 239 257 207 302 207 c 256
 366 207 413 265 413 317 c 0
 413 360 382 394 334 394 c 256
EndSplineSet
EndChar
StartChar: uni0E2E
Encoding: 3630 3630 257
Width: 760
VWidth: 1533
Flags: W
HStem: 0 38<183 583> 146 38<241.349 360.097> 371 38<268.586 385.446> 445 32<340.447 564.402> 593 31<303.379 558.696>
VStem: 165 84<499.662 554.788> 409 39<231.933 347.897> 653 76<417.539 480.657>
Fore
448 300 m 0
 448 226 378 146 291 146 c 0
 236 146 216 169 208 181 c 1
 183 38 l 1
 583 38 l 1
 650 422 l 2
 652 432 653 442 653 451 c 0
 653 464 651 476 647 488 c 1
 561 459 478 445 397 445 c 0
 394 445 165 445 165 515 c 0
 165 580 288 624 443 624 c 0
 611 624 666 573 689 550 c 1
 720 570 746 591 769 613 c 1
 807 567 l 1
 790 555 752 534 715 515 c 1
 724 495 729 473 729 448 c 0
 729 437 728 425 726 412 c 2
 653 0 l 1
 100 0 l 1
 142 241 l 2
 159 337 235 409 337 409 c 0
 403 409 448 360 448 300 c 0
249 524 m 0
 249 486 364 477 414 477 c 0
 486 477 558 492 629 521 c 1
 584 576 506 593 438 593 c 0
 347 593 249 565 249 524 c 0
330 371 m 256
 272 371 219 318 219 260 c 0
 219 215 253 184 297 184 c 256
 362 184 409 243 409 294 c 0
 409 337 378 371 330 371 c 256
EndSplineSet
EndChar
StartChar: uni0E2F
Encoding: 3631 3631 258
Width: 647
VWidth: 1533
Flags: W
HStem: 0 21G<478 558.532> 356 36<261.904 402.039> 583 38<192.899 297.026>
VStem: 118 41<447.117 549.393> 312 43<465.95 568.323>
Fore
355 528 m 0
 355 463 301 408 252 399 c 1
 284 392 301 392 307 392 c 0
 410 392 532 474 586 621 c 1
 626 621 655 608 655 571 c 0
 655 566 654 561 653 555 c 2
 555 0 l 1
 478 0 l 1
 569 517 l 1
 531 431 396 356 301 356 c 0
 217 356 118 391 118 483 c 0
 118 560 180 621 255 621 c 256
 313 621 355 584 355 528 c 0
249 583 m 256
 202 583 159 540 159 496 c 0
 159 461 183 432 222 432 c 256
 265 432 312 472 312 520 c 0
 312 557 284 583 249 583 c 256
EndSplineSet
EndChar
StartChar: uni0E30
Encoding: 3632 3632 259
Width: 616
VWidth: 1533
Flags: W
HStem: 0 41<229.711 373.006> 232 38<162.768 266.049> 342 41<289.078 434.645> 573 39<221.121 326.34>
VStem: 87 41<96.9547 198.519> 147 41<438.955 539.9> 282 42<115.461 216.587> 342 42<457.469 557.432>
Fore
344 383 m 0
 451 383 578 484 578 595 c 0
 578 601 577 607 577 613 c 1
 661 613 l 1
 660 601 659 590 657 579 c 0
 632 439 472 342 336 342 c 0
 249 342 147 379 147 473 c 0
 147 558 219 612 284 612 c 0
 340 612 384 575 384 519 c 0
 384 454 328 399 282 389 c 1
 300 385 321 383 344 383 c 0
283 41 m 0
 395 41 518 147 518 255 c 0
 518 260 517 266 517 271 c 1
 601 271 l 1
 600 259 599 248 597 237 c 0
 572 97 413 0 276 0 c 0
 189 0 87 37 87 131 c 0
 87 216 159 270 224 270 c 0
 281 270 324 233 324 176 c 0
 324 114 269 58 221 48 c 1
 240 43 260 41 283 41 c 0
251 423 m 256
 301 423 342 470 342 510 c 0
 342 545 316 573 277 573 c 256
 231 573 188 531 188 485 c 0
 188 449 216 423 251 423 c 256
190 81 m 256
 231 81 282 118 282 168 c 0
 282 206 253 232 217 232 c 256
 172 232 128 191 128 143 c 0
 128 107 155 81 190 81 c 256
EndSplineSet
EndChar
StartChar: uni0E31
Encoding: 3633 3633 260
Width: 0
VWidth: 1533
Flags: W
HStem: 690 35<-117.65 23.712> 897 35<-190.486 -92.0112>
VStem: -261 43<773.275 870.143> -80 44<790.026 885.336>
Fore
-65 725 m 0
 35 725 163 817 163 915 c 0
 163 921 163 928 162 934 c 1
 246 934 l 1
 245 922 243 910 242 899 c 0
 219 771 51 690 -74 690 c 0
 -154 690 -261 720 -261 808 c 0
 -261 884 -194 932 -132 932 c 256
 -84 932 -36 905 -36 849 c 0
 -36 787 -85 743 -130 733 c 1
 -108 728 -86 725 -65 725 c 0
-138 897 m 256
 -178 897 -218 862 -218 818 c 0
 -218 787 -197 762 -162 762 c 256
 -123 762 -80 796 -80 841 c 0
 -80 872 -103 897 -138 897 c 256
EndSplineSet
Substitution2: "Single Substitution lookup 22 subtable" uni0E31.alt1
Substitution2: "Single Substitution lookup 22 subtable" uni0E31.alt1
EndChar
StartChar: uni0E32
Encoding: 3634 3634 261
Width: 604
VWidth: 1533
Flags: W
HStem: 0 21G<435 515.544> 593 31<279.786 462.7>
VStem: 509 76<402.041 412 422 429.009 429.009 436.559 432.784 544.986>
Fore
380 624 m 0
 508 624 590 574 590 461 c 0
 590 446 588 430 585 412 c 2
 512 0 l 1
 435 0 l 1
 509 422 l 2
 512 436 513 451 513 466 c 0
 513 531 483 593 375 593 c 0
 233 593 184 482 169 437 c 1
 91 437 l 1
 131 562 248 624 380 624 c 0
EndSplineSet
EndChar
StartChar: uni0E33
Encoding: 3635 3635 262
Width: 604
VWidth: 1533
Flags: W
HStem: 0 21<435 515.544> 593 31<279.786 462.7> 690 37<-52.7126 59.3559> 895 40<-30.0256 80.8189>
VStem: -110 39<745.535 854.701> 100 39<768.151 876.368> 509 76<402.041 412 422 429.009 429.009 436.559 432.784 544.986>
Back
144 813 m 256
 138 779 121 750 93 726 c 128
 65 702 34 690 0 690 c 0
 -32.6667 690 -59 702 -79 726 c 128
 -99 750 -106 779 -100 813 c 0
 -96.6667 829 -90.3333 844.667 -81 860 c 128
 -71.6667 875.333 -60.6667 888.333 -48 899 c 128
 -35.3333 909.667 -21.1667 918.333 -5.5 925 c 128
 10.1667 931.667 26.3333 935 43 935 c 0
 77 935 103.833 923 123.5 899 c 128
 143.167 875 150 846.333 144 813 c 256
428 0 m 1
 501 422 l 2
 510.333 474.667 503.833 516.333 481.5 547 c 128
 459.167 577.667 420.667 593 366 593 c 0
 316 593 273.667 579.333 239 552 c 128
 204.333 524.667 178.333 486.333 161 437 c 1
 83 437 l 1
 94.3333 469.667 109.833 497.833 129.5 521.5 c 128
 149.167 545.167 171.833 564.667 197.5 580 c 128
 223.167 595.333 250.833 606.5 280.5 613.5 c 128
 310.167 620.5 340.333 624 371 624 c 0
 405.667 624 437.333 620.167 466 612.5 c 128
 494.667 604.833 518.167 592.5 536.5 575.5 c 128
 554.833 558.5 567.667 536.5 575 509.5 c 128
 582.333 482.5 582.667 450 576 412 c 2
 504 0 l 1
 428 0 l 1
106 811 m 0
 110 834.333 105.167 854.167 91.5 870.5 c 128
 77.8333 886.833 59 895 35 895 c 0
 13 895 -7.5 886.833 -26.5 870.5 c 128
 -45.5 854.167 -57 834.333 -61 811 c 0
 -66.3333 787.667 -62.1667 767.833 -48.5 751.5 c 128
 -34.8333 735.167 -16.6667 727 6 727 c 0
 29.3333 727 50.5 735.167 69.5 751.5 c 128
 88.5 767.833 100.667 787.667 106 811 c 0
EndSplineSet
Refer: 261 3634 N 1 0 0 1 0 0 2
Refer: 284 3661 N 1 0 0 1 0 0 2
Substitution2: "Single Substitution lookup 22 subtable" uni0E33.alt1
Substitution2: "Single Substitution lookup 22 subtable" uni0E33.alt1
EndChar
StartChar: uni0E34
Encoding: 3636 3636 263
Width: 0
VWidth: 1533
Flags: W
HStem: 690 26<-454 -46> 842 30<-344.104 -119.794>
VStem: -46 77<716 778.055>
Fore
-537 690 m 1
 -504 823 -343 872 -222 872 c 256
 -102 872 31 827 31 704 c 0
 31 699 30 695 30 690 c 1
 -537 690 l 1
-46 716 m 1
 -46 723 l 2
 -46 806 -143 842 -228 842 c 256
 -313 842 -426 808 -454 716 c 1
 -46 716 l 1
EndSplineSet
Substitution2: "Single Substitution lookup 22 subtable" uni0E34.alt1
Substitution2: "Single Substitution lookup 22 subtable" uni0E34.alt1
EndChar
StartChar: uni0E35
Encoding: 3637 3637 264
Width: 0
VWidth: 1533
Flags: W
HStem: 690 26<-454 -46> 842 30<-344.104 -118.329>
Fore
-222 872 m 0
 -98 872 -46 833 -25 816 c 1
 -6 926 l 1
 71 926 l 1
 30 690 l 1
 -537 690 l 1
 -504 823 -343 872 -222 872 c 0
-46 716 m 1
 -46 723 l 2
 -46 806 -143 842 -228 842 c 256
 -313 842 -426 808 -454 716 c 1
 -46 716 l 1
EndSplineSet
Substitution2: "Single Substitution lookup 22 subtable" uni0E35.alt1
Substitution2: "Single Substitution lookup 22 subtable" uni0E35.alt1
EndChar
StartChar: uni0E36
Encoding: 3638 3638 265
Width: 0
VWidth: 1533
Flags: W
HStem: 690 26<-454 -79> 736 34<-5.26367 57.3228> 842 30<-353.569 -146.68> 898 37<-24.0957 72.3749>
VStem: -79 30<780.021 806> 82 36<794.26 887.696>
Fore
118 853 m 0
 118 798 72 736 -6 736 c 1
 -5 726 -3 716 -3 704 c 0
 -3 700 -3 695 -4 690 c 1
 -537 690 l 1
 -511 824 -341 872 -238 872 c 256
 -141 872 -95 844 -82 837 c 1
 -73 890 -20 935 35 935 c 256
 83 935 118 899 118 853 c 0
28 898 m 256
 -9 898 -49 865 -49 823 c 0
 -49 792 -25 770 6 770 c 256
 47 770 82 806 82 846 c 0
 82 877 58 898 28 898 c 256
-79 716 m 1
 -76 806 -166 842 -244 842 c 0
 -363 842 -434 778 -454 716 c 1
 -79 716 l 1
EndSplineSet
Substitution2: "Single Substitution lookup 22 subtable" uni0E36.alt1
Substitution2: "Single Substitution lookup 22 subtable" uni0E36.alt1
EndChar
StartChar: uni0E37
Encoding: 3639 3639 266
Width: 0
VWidth: 1533
Flags: W
HStem: 690 26<-454 -46> 842 28<-343.875 -148.459>
Fore
-537 690 m 1
 -508 809 -376 870 -213 870 c 0
 -186 870 -161 868 -138 865 c 1
 -128 926 l 1
 -52 926 l 1
 -67 842 l 1
 -54 836 -33 822 -25 816 c 1
 -6 926 l 1
 71 926 l 1
 30 690 l 1
 -537 690 l 1
-46 716 m 1
 -46 723 l 2
 -46 806 -143 842 -228 842 c 256
 -313 842 -426 808 -454 716 c 1
 -46 716 l 1
EndSplineSet
Substitution2: "Single Substitution lookup 22 subtable" uni0E37.alt1
Substitution2: "Single Substitution lookup 22 subtable" uni0E37.alt1
EndChar
StartChar: uni0E38
Encoding: 3640 3640 267
Width: 0
VWidth: 1533
Flags: W
HStem: -274 36<-323.573 -237.184> -86 40<-306.18 -200.38>
VStem: -377 38<-222.538 -118.548> -185 63<-192.486 -101.344>
Fore
-377 -181 m 0
 -377 -111 -317 -46 -230 -46 c 0
 -145 -46 -122 -102 -122 -154 c 0
 -122 -165 -123 -176 -125 -187 c 2
 -158 -377 l 1
 -235 -377 l 1
 -214 -255 l 1
 -237 -268 -260 -274 -283 -274 c 0
 -338 -274 -377 -234 -377 -181 c 0
-250 -86 m 256
 -291 -86 -339 -122 -339 -175 c 0
 -339 -211 -312 -238 -277 -238 c 256
 -231 -238 -185 -195 -185 -149 c 0
 -185 -114 -211 -86 -250 -86 c 256
EndSplineSet
Substitution2: "Single Substitution lookup 21 subtable" a
Substitution2: "Single Substitution lookup 22 subtable" uni0E38.alt1
Substitution2: "Single Substitution lookup 21 subtable" a
Substitution2: "Single Substitution lookup 22 subtable" uni0E38.alt1
EndChar
StartChar: uni0E39
Encoding: 3641 3641 268
Width: 0
VWidth: 1533
Flags: W
HStem: -362 38<-325 -226> -274 36<-499.573 -413.184> -86 40<-481.206 -376.847>
VStem: -553 38<-223.72 -119.962> -361 62<-202.735 -102.04>
Fore
-299 -159 m 0
 -299 -209 -304 -209 -325 -324 c 1
 -226 -324 l 1
 -177 -46 l 1
 -100 -46 l 1
 -156 -362 l 1
 -409 -362 l 1
 -390 -255 l 1
 -413 -268 -436 -274 -459 -274 c 0
 -514 -274 -553 -234 -553 -181 c 0
 -553 -108 -489 -46 -407 -46 c 0
 -341 -46 -299 -74 -299 -159 c 0
-426 -86 m 256
 -474 -86 -515 -129 -515 -175 c 0
 -515 -212 -488 -238 -453 -238 c 0
 -407 -238 -361 -195 -361 -149 c 0
 -361 -114 -387 -86 -426 -86 c 256
EndSplineSet
Substitution2: "Single Substitution lookup 21 subtable" b
Substitution2: "Single Substitution lookup 22 subtable" uni0E39.alt1
Substitution2: "Single Substitution lookup 21 subtable" b
Substitution2: "Single Substitution lookup 22 subtable" uni0E39.alt1
EndChar
StartChar: uni0E3A
Encoding: 3642 3642 269
Width: 0
VWidth: 1533
Flags: W
HStem: -169 123<-189.733 -108.875>
VStem: -212 125<-147.375 -68.1237>
Fore
-212 -118 m 0
 -212 -88 -187 -46 -138 -46 c 256
 -106 -46 -87 -67 -87 -95 c 0
 -87 -136 -121 -169 -160 -169 c 256
 -193 -169 -212 -146 -212 -118 c 0
EndSplineSet
Substitution2: "Single Substitution lookup 21 subtable" c
Substitution2: "Single Substitution lookup 22 subtable" uni0E3A.alt1
Substitution2: "Single Substitution lookup 21 subtable" c
Substitution2: "Single Substitution lookup 22 subtable" uni0E3A.alt1
EndChar
StartChar: uni0E3F
Encoding: 3647 3647 270
Width: 807
VWidth: 1533
Flags: W
HStem: 0 37<163 250 312 386 447 591.505> 365 38<227 314 376 450> 678 38<276 370 431 506 566 653.022>
VStem: 719 98<138.174 291.569> 719 90<503.13 626.983>
Fore
809 578 m 0xe8
 809 450 648 392 543 386 c 1
 720 373 817 320 817 224 c 0xf0
 817 134 758 12 440 0 c 1
 421 -106 l 1
 367 -106 l 1
 386 0 l 1
 305 0 l 1
 286 -106 l 1
 231 -106 l 1
 250 0 l 1
 74 0 l 1
 200 716 l 1
 376 716 l 1
 391 800 l 1
 446 800 l 1
 431 716 l 1
 512 716 l 1
 527 800 l 1
 581 800 l 1
 566 716 l 1
 670 716 809 687 809 578 c 0xe8
447 37 m 1
 673 37 719 145 719 222 c 0
 719 310 646 353 504 363 c 1
 447 37 l 1
512 406 m 1
 568 411 719 442 719 568 c 0xe8
 719 657 622 670 559 676 c 1
 512 406 l 1
163 37 m 1
 257 37 l 1
 314 365 l 1
 220 365 l 1
 163 37 l 1
369 365 m 1
 312 37 l 1
 393 37 l 1
 450 365 l 1
 369 365 l 1
227 403 m 1
 321 403 l 1
 370 678 l 1
 276 678 l 1
 227 403 l 1
376 403 m 1
 457 403 l 1
 506 678 l 1
 425 678 l 1
 376 403 l 1
EndSplineSet
EndChar
StartChar: uni0E40
Encoding: 3648 3648 271
Width: 450
VWidth: 1533
Flags: W
HStem: -11 42<231.292 345.126> 204 38<255.553 367.965> 593 20G<227.488 307>
VStem: 145 67<50.3576 148.684> 388 40<73.5399 184.539>
Fore
428 140 m 0
 428 64 363 -11 271 -11 c 0
 186 -11 145 39 145 108 c 0
 145 120 147 133 149 146 c 2
 231 613 l 1
 307 613 l 1
 237 215 l 1
 247 223 275 242 324 242 c 0
 388 242 428 197 428 140 c 0
317 204 m 256
 259 204 212 152 212 100 c 0
 212 58 246 31 286 31 c 256
 334 31 388 74 388 132 c 0
 388 173 357 204 317 204 c 256
EndSplineSet
EndChar
StartChar: uni0E41
Encoding: 3649 3649 272
Width: 794
VWidth: 1533
Flags: W
HStem: -11 42<231.292 345.126 576.32 690.409> 204 38<255.553 367.965 599.504 711.408> 593 20G<227.488 307 570.488 651>
VStem: 145 67<50.3576 148.684> 388 40<73.5399 184.539> 488 69<49.471 149.902> 732 39<72.4495 184.483>
Fore
771 140 m 0
 771 62 704 -11 614 -11 c 0
 529 -11 488 39 488 108 c 0
 488 120 490 133 492 146 c 2
 574 613 l 1
 651 613 l 1
 581 215 l 1
 591 223 618 242 667 242 c 0
 731 242 771 197 771 140 c 0
428 140 m 0
 428 64 363 -11 271 -11 c 0
 186 -11 145 39 145 108 c 0
 145 120 147 133 149 146 c 2
 231 613 l 1
 307 613 l 1
 237 215 l 1
 247 223 275 242 324 242 c 0
 388 242 428 197 428 140 c 0
660 204 m 256
 610 204 557 159 557 101 c 0
 557 59 588 31 629 31 c 256
 681 31 732 76 732 131 c 0
 732 173 701 204 660 204 c 256
317 204 m 256
 259 204 212 152 212 100 c 0
 212 58 246 31 286 31 c 256
 334 31 388 74 388 132 c 0
 388 173 357 204 317 204 c 256
EndSplineSet
EndChar
StartChar: uni0E42
Encoding: 3650 3650 273
Width: 466
VWidth: 1533
Flags: W
HStem: -11 42<248.32 362.852> 204 38<271.504 383.408> 854 38<136 289> 949 45<368.658 471.378> 998 51<196.04 340.462>
VStem: 160 69<49.471 149.902> 404 39<71.2839 184.483>
Fore
443 140 m 0
 443 64 378 -11 286 -11 c 0
 201 -11 160 39 160 108 c 0
 160 120 162 133 164 146 c 2
 289 854 l 1
 50 854 l 1
 66 932 120 1049 262 1049 c 0
 342 1049 368 994 419 994 c 0
 456 994 480 1017 493 1049 c 1
 591 1049 l 1
 570 981 501 949 452 949 c 0
 382 949 341 998 271 998 c 0
 201 998 156 956 136 892 c 1
 372 892 l 1
 253 215 l 1
 263 223 290 242 339 242 c 0
 403 242 443 197 443 140 c 0
332 204 m 256
 282 204 229 159 229 101 c 0
 229 59 260 31 301 31 c 256
 353 31 404 76 404 131 c 0
 404 173 373 204 332 204 c 256
EndSplineSet
EndChar
StartChar: uni0E43
Encoding: 3651 3651 274
Width: 466
VWidth: 1533
Flags: W
HStem: -11 42<248.32 362.852> 204 38<271.504 383.408> 741 38<148.123 260.168> 954 38<189.321 283.815> 1038 34<238.41 375.514>
VStem: 77 50<799.437 910.13> 160 69<49.471 149.902> 304 40<821.525 933.76> 404 39<71.2839 184.483> 420 66<851.25 995.529>
Fore
77 863 m 0xff40
 77 990 200 1072 315 1072 c 256
 404 1072 486 1024 486 931 c 0xff40
 486 796 354 790 336 688 c 2
 253 215 l 1
 263 223 290 242 339 242 c 0
 403 242 443 197 443 140 c 0xff80
 443 64 378 -11 286 -11 c 0
 201 -11 160 39 160 108 c 0
 160 120 162 133 164 146 c 2
 255 662 l 2
 273 766 420 786 420 932 c 0
 420 1005 361 1038 295 1038 c 0
 270 1038 200 1030 165 971 c 1
 189 985 213 992 238 992 c 0
 301 992 344 947 344 888 c 0
 344 807 270 741 194 741 c 0
 110 741 77 801 77 863 c 0xff40
231 954 m 256
 178 954 127 906 127 851 c 0
 127 809 160 779 200 779 c 256
 250 779 304 824 304 882 c 0
 304 924 272 954 231 954 c 256
332 204 m 256
 282 204 229 159 229 101 c 0
 229 59 260 31 301 31 c 256
 353 31 404 76 404 131 c 0xff80
 404 173 373 204 332 204 c 256
EndSplineSet
EndChar
StartChar: uni0E44
Encoding: 3652 3652 275
Width: 466
VWidth: 1533
Flags: W
HStem: -11 42<248.32 362.852> 204 38<271.504 383.408>
VStem: 160 69<49.471 149.902> 404 39<71.2839 184.483>
Fore
443 140 m 0
 443 64 378 -11 286 -11 c 0
 201 -11 160 39 160 108 c 0
 160 120 162 133 164 146 c 2
 305 949 l 1
 187 845 l 1
 164 907 105 980 20 1007 c 1
 94 1053 l 1
 155 1024 188 962 199 902 c 1
 311 1000 l 1
 391 1000 l 1
 253 215 l 1
 263 223 290 242 339 242 c 0
 403 242 443 197 443 140 c 0
332 204 m 256
 282 204 229 159 229 101 c 0
 229 59 260 31 301 31 c 256
 353 31 404 76 404 131 c 0
 404 173 373 204 332 204 c 256
EndSplineSet
EndChar
StartChar: uni0E45
Encoding: 3653 3653 276
Width: 604
VWidth: 1533
Flags: W
HStem: 593 31<279.786 462.7>
VStem: 509 76<401.991 412 422 429.009 429.009 436.559 432.784 544.986>
Fore
380 624 m 0
 508 624 590 574 590 461 c 0
 590 446 588 430 585 412 c 2
 480 -184 l 1
 403 -184 l 1
 509 422 l 2
 512 436 513 451 513 466 c 0
 513 531 483 593 375 593 c 0
 233 593 184 482 169 437 c 1
 91 437 l 1
 131 562 248 624 380 624 c 0
EndSplineSet
EndChar
StartChar: uni0E46
Encoding: 3654 3654 277
Width: 674
VWidth: 1533
Flags: W
HStem: 262 35<220.302 330.942> 465 35<240.414 354.603> 586 38<268.434 378.833 474.406 576.003>
VStem: 137 64<315.598 463.82> 372 34<337.979 447.988> 587 79<449.126 460 469 477.611 477.611 487.977 482.794 571.975>
Fore
137 404 m 0
 137 544 242 624 335 624 c 0
 356 624 417 617 429 564 c 1
 447 585 486 624 555 624 c 0
 645 624 669 565 669 507 c 0
 669 494 668 481 666 469 c 2
 551 -184 l 1
 474 -184 l 1
 587 460 l 2
 590 479 592 495 592 509 c 0
 592 566 566 586 526 586 c 0
 483 586 450 558 430 526 c 1
 413 526 l 1
 407 559 381 586 339 586 c 0
 253 586 219 513 212 472 c 2
 209 454 l 1
 232 483 271 500 307 500 c 0
 366 500 406 458 406 404 c 0
 406 329 336 262 262 262 c 0
 163 262 137 337 137 404 c 0
301 465 m 256
 248 465 201 420 201 367 c 0
 201 326 231 297 271 297 c 256
 325 297 372 344 372 397 c 0
 372 436 345 465 301 465 c 256
EndSplineSet
EndChar
StartChar: uni0E47
Encoding: 3655 3655 278
Width: 0
VWidth: 1533
Flags: W
HStem: 690 38<-377.463 -287.09> 690 29<-202.289 -57.7527> 741 26<-120.37 -54.9118> 862 26<-111.017 -26.4271> 905 27<-245.082 -54.1875>
VStem: -457 71<735.899 827.358> -158 34<771.438 848.404> -21 38<782.462 856.236> -17 77<955.697 1010>
Fore
17 820 m 0x7f
 17 744 -60 690 -137 690 c 0x7f
 -202 690 -226 711 -247 747 c 1
 -290 703 -316 690 -355 690 c 0
 -402 690 -457 708 -457 776 c 0
 -457 784 -456 793 -454 803 c 0
 -442 875 -399 932 -250 932 c 2
 -191 932 l 2
 -78 932 -28 948 -17 1010 c 1
 60 1010 l 1
 49 947 8 905 -155 905 c 2
 -183 905 l 2
 -222 905 -292 902 -342 872 c 0
 -370 856 -386 822 -386 785 c 0
 -386 758 -375 728 -335 728 c 0xbe80
 -312 728 -271 744 -260 779 c 1
 -222 779 l 1
 -221 732 -162 719 -135 719 c 0
 -98 719 -63 729 -45 754 c 1
 -56 747 -69 741 -85 741 c 0
 -116 741 -158 759 -158 802 c 0
 -158 862 -93 888 -58 888 c 0
 -11 888 17 860 17 820 c 0x7f
-64 862 m 0
 -96 862 -124 837 -124 805 c 0
 -124 781 -104 767 -81 767 c 0
 -57 767 -21 789 -21 821 c 0
 -21 846 -44 862 -64 862 c 0
EndSplineSet
Substitution2: "Single Substitution lookup 22 subtable" uni0E47.alt1
Substitution2: "Single Substitution lookup 22 subtable" uni0E47.alt1
EndChar
StartChar: uni0E48
Encoding: 3656 3656 279
Width: 0
VWidth: 1533
Flags: W
HStem: 972 175<33 79 2 110 33 33>
Fore
2 972 m 1
 33 1147 l 1
 110 1147 l 1
 79 972 l 1
 2 972 l 1
EndSplineSet
Substitution2: "Single Substitution lookup 22 subtable" uni0E48.alt2
Substitution2: "Single Substitution lookup 22 subtable" uni0E48.alt2
EndChar
StartChar: uni0E49
Encoding: 3657 3657 280
Width: 0
VWidth: 1533
Flags: W
HStem: 1052 26<-126.836 -58.6763> 1176 28<-115.986 -34.0619>
VStem: -164 34<1081.93 1162.27> -30 36<1093.31 1170.94>
Fore
-164 1113 m 0
 -164 1168 -112 1204 -66 1204 c 0
 -21 1204 6 1176 6 1134 c 0
 6 1099 -17 1042 -53 1004 c 1
 32 1039 93 1097 131 1179 c 1
 214 1179 l 1
 171 1059 -18 974 -127 966 c 1
 -78 1014 -57 1043 -47 1064 c 1
 -63 1056 -79 1052 -94 1052 c 0
 -128 1052 -164 1073 -164 1113 c 0
-72 1176 m 256
 -104 1176 -130 1149 -130 1116 c 0
 -130 1093 -115 1078 -89 1078 c 0
 -61 1078 -30 1103 -30 1136 c 0
 -30 1160 -48 1176 -72 1176 c 256
EndSplineSet
Substitution2: "Single Substitution lookup 22 subtable" uni0E49.alt2
Substitution2: "Single Substitution lookup 22 subtable" uni0E49.alt2
EndChar
StartChar: uni0E4A
Encoding: 3658 3658 281
Width: 0
VWidth: 1533
Flags: W
HStem: 966 31<-128.191 -43.4875> 1095 26<-104.927 -35.329> 1164 29<-100.508 0.49588 42.0967 117.081>
VStem: -191 58<1001.5 1105.95> -31 27<1009.39 1090.36> 124 59<1052.61 1158.08>
Fore
-191 1056 m 0
 -191 1156 -106 1193 -46 1193 c 0
 -9 1193 4 1183 18 1165 c 1
 44 1183 65 1193 93 1193 c 0
 153 1193 183 1162 183 1112 c 0
 183 1089 176 1050 150 998 c 1
 198 1006 220 1048 229 1098 c 2
 238 1151 l 2
 241 1166 248 1179 261 1190 c 1
 322 1190 l 1
 299 1171 294 1153 288 1118 c 2
 283 1091 l 2
 274 1036 261 974 89 974 c 1
 82 984 l 1
 122 1027 124 1108 124 1108 c 1
 124 1151 105 1164 76 1164 c 0
 56 1164 48 1159 21 1136 c 1
 5 1136 l 1
 -9 1157 -22 1164 -43 1164 c 0
 -82 1164 -122 1136 -129 1095 c 1
 -113 1112 -91 1121 -66 1121 c 0
 -26 1121 -4 1091 -4 1055 c 0
 -4 998 -58 966 -101 966 c 0
 -162 966 -191 1005 -191 1056 c 0
-72 1095 m 0
 -103 1095 -133 1069 -133 1036 c 0
 -133 1013 -116 997 -89 997 c 256
 -54 997 -31 1024 -31 1055 c 0
 -31 1078 -49 1095 -72 1095 c 0
EndSplineSet
Substitution2: "Single Substitution lookup 22 subtable" uni0E4A.alt2
Substitution2: "Single Substitution lookup 22 subtable" uni0E4A.alt2
EndChar
StartChar: uni0E4B
Encoding: 3659 3659 282
Width: 0
VWidth: 1533
Flags: W
HStem: 974 226<51 80> 1070 34<-73 28 103 203 -79 209 -73 -73>
Fore
97 1070 m 1x40
 80 974 l 1
 11 974 l 1x80
 28 1070 l 1
 -79 1070 l 1
 -73 1104 l 1
 34 1104 l 1x40
 51 1200 l 1
 120 1200 l 1x80
 103 1104 l 1
 209 1104 l 1
 203 1070 l 1
 97 1070 l 1x40
EndSplineSet
Substitution2: "Single Substitution lookup 22 subtable" uni0E4B.alt2
Substitution2: "Single Substitution lookup 22 subtable" uni0E4B.alt2
EndChar
StartChar: uni0E4C
Encoding: 3660 3660 283
Width: 0
VWidth: 1533
Flags: W
HStem: 908 30<-70.0019 23.9027>
VStem: -121 43<945.826 1020.61> 47 39<960.592 1050.5> 126 75<1151.53 1197.35>
Fore
86 1016 m 0
 86 958 33 908 -33 908 c 0
 -82 908 -121 937 -121 985 c 0
 -121 991 -120 997 -119 1003 c 0
 -94 1144 107 1097 126 1200 c 1
 201 1184 l 1
 190 1122 94 1110 33 1087 c 1
 63 1078 86 1051 86 1016 c 0
-6 1059 m 256
 -46 1059 -78 1028 -78 988 c 0
 -78 960 -60 938 -28 938 c 256
 7 938 47 967 47 1011 c 0
 47 1040 25 1059 -6 1059 c 256
EndSplineSet
Substitution2: "Single Substitution lookup 22 subtable" uni0E4C.alt2
Substitution2: "Single Substitution lookup 22 subtable" uni0E4C.alt2
EndChar
StartChar: uni0E4D
Encoding: 3661 3661 284
Width: 0
VWidth: 1533
Flags: W
HStem: 690 37<-52.7126 59.3559> 895 40<-30.0256 80.8189>
VStem: -110 39<745.535 854.701> 100 39<768.151 876.368>
Fore
-110 792 m 0
 -110 864 -43 935 36 935 c 256
 97 935 139 891 139 835 c 0
 139 762 73 690 -7 690 c 256
 -65 690 -110 732 -110 792 c 0
29 895 m 256
 -25 895 -71 847 -71 795 c 0
 -71 755 -41 727 -1 727 c 256
 55 727 100 777 100 826 c 0
 100 868 68 895 29 895 c 256
EndSplineSet
Substitution2: "Single Substitution lookup 22 subtable" uni0E4D.alt1
Substitution2: "Single Substitution lookup 22 subtable" uni0E4D.alt1
EndChar
StartChar: uni0E4E
Encoding: 3662 3662 285
Width: 0
VWidth: 1533
Flags: W
HStem: 676 36<-152.237 -99.1228 -104.617 -93.6285 -93.6285 -84> 978 39<-53.6093 28.1225 26.3989 29.8461 29.8461 48>
VStem: -233 64<718.366 774.071> -131 53<871.414 928.674>
Fore
-233 730 m 0
 -233 748 -225 842 -93 859 c 1
 -111 865 -131 881 -131 910 c 0
 -131 932 -120 1017 1 1017 c 0
 26 1017 48 1015 68 1010 c 1
 48 975 l 1
 41 977 33 978 11 978 c 0
 -68 978 -78 921 -78 902 c 0
 -78 887 -70 867 -21 863 c 1
 -36 839 l 1
 -152 827 -169 764 -169 745 c 0
 -169 717 -132 712 -105 712 c 0
 -93 712 -82 713 -66 713 c 1
 -84 681 l 1
 -105 678 -126 676 -146 676 c 0
 -189 676 -233 687 -233 730 c 0
EndSplineSet
Substitution2: "Single Substitution lookup 22 subtable" uni0E4E.alt1
Substitution2: "Single Substitution lookup 22 subtable" uni0E4E.alt1
EndChar
StartChar: uni0E4F
Encoding: 3663 3663 286
Width: 781
VWidth: 1533
Flags: W
HStem: -8 46<297.986 502.375> 115 54<352.454 499.374> 445 53<394.262 537.964> 575 46<385.67 589.97>
VStem: 126 47<163.356 365.25> 250 55<215.208 358.825> 585 55<256.429 399.89> 717 47<246.234 448.832>
Fore
126 252 m 0
 126 444 303 621 500 621 c 256
 653 621 764 511 764 362 c 0
 764 164 580 -8 390 -8 c 256
 239 -8 126 101 126 252 c 0
492 575 m 256
 329 575 173 425 173 260 c 0
 173 131 270 38 398 38 c 256
 558 38 717 184 717 353 c 0
 717 478 623 575 492 575 c 256
469 445 m 256
 384 445 305 369 305 283 c 0
 305 219 352 169 421 169 c 256
 506 169 585 244 585 331 c 0
 585 395 539 445 469 445 c 256
250 275 m 0
 250 380 353 498 479 498 c 0
 575 498 640 425 640 339 c 0
 640 218 522 115 411 115 c 0
 316 115 250 186 250 275 c 0
EndSplineSet
EndChar
StartChar: uni0E50
Encoding: 3664 3664 287
Width: 735
VWidth: 1533
Flags: W
HStem: -11 37<277.112 478.111> 434 37<344.536 543.149>
VStem: 111 78<109.411 285.935> 627 79<172.649 352.791>
Fore
111 189 m 0
 111 367 290 471 451 471 c 256
 575 471 706 406 706 270 c 0
 706 109 544 -11 366 -11 c 256
 241 -11 111 54 111 189 c 0
445 434 m 0
 301 434 189 321 189 191 c 0
 189 91 266 26 373 26 c 0
 526 26 627 147 627 269 c 0
 627 369 554 434 445 434 c 0
EndSplineSet
EndChar
StartChar: uni0E51
Encoding: 3665 3665 288
Width: 735
VWidth: 1533
Flags: W
HStem: -51 23<381.547 474.75> 0 38<241.051 384.183> 63 35<300.846 410.597> 265 36<324.79 436.613> 434 37<339.524 537.797>
VStem: 111 77<94.107 281.172> 249 35<115.012 223.615> 455 41<137.461 247.219> 627 79<170.81 349.479>
Fore
111 187 m 0
 111 372 296 471 451 471 c 256
 575 471 706 406 706 270 c 0
 706 142 598 -7 387 -51 c 1
 351 -28 l 1
 526 10 627 148 627 265 c 0
 627 368 551 434 445 434 c 256
 303 434 188 323 188 181 c 0
 188 97 234 38 312 38 c 0
 347 38 392 55 414 86 c 1
 382 70 373 63 348 63 c 0
 289 63 249 105 249 159 c 0
 249 228 311 301 390 301 c 0
 460 301 496 259 496 199 c 0
 496 110 424 0 291 0 c 0
 177 0 111 86 111 187 c 0
384 265 m 256
 329 265 284 215 284 166 c 0
 284 127 311 98 354 98 c 256
 409 98 455 143 455 196 c 0
 455 235 428 265 384 265 c 256
EndSplineSet
EndChar
StartChar: uni0E52
Encoding: 3666 3666 289
Width: 735
VWidth: 1533
Flags: W
HStem: 0 38<127 623> 101 35<317.325 427.608> 304 35<337.982 452.375> 432 39<372.312 487.635 562.383 658.959> 602 20G<115.381 167.5>
VStem: 131 84<513.059 561.833> 234 65<154.62 307.263> 469 35<177.117 286.815> 670 79<296.25 307 316 324.611 324.611 331.234 327.923 417.523>
Fore
234 239 m 0
 234 389 333 471 434 471 c 0
 485 471 511 449 520 411 c 1
 552 451 591 471 638 471 c 256
 727 471 753 413 753 355 c 0
 753 342 751 329 749 316 c 2
 693 0 l 1
 43 0 l 1
 130 495 l 2
 131 501 131 506 131 511 c 0
 131 547 108 572 74 580 c 1
 153 622 l 1
 182 615 215 591 215 548 c 0
 215 542 214 536 213 530 c 2
 127 38 l 1
 623 38 l 1
 670 307 l 2
 673 326 675 342 675 356 c 0
 675 411 649 432 610 432 c 0
 578 432 548 417 521 373 c 1
 504 373 l 1
 495 419 468 432 438 432 c 0
 363 432 316 357 310 321 c 0
 308 314 308 305 307 293 c 1
 329 322 369 339 405 339 c 0
 465 339 504 297 504 242 c 0
 504 157 421 101 360 101 c 0
 269 101 234 160 234 239 c 0
399 304 m 256
 345 304 299 258 299 205 c 0
 299 164 329 136 369 136 c 0
 415 136 469 177 469 236 c 0
 469 275 442 304 399 304 c 256
EndSplineSet
EndChar
StartChar: uni0E53
Encoding: 3667 3667 290
Width: 735
VWidth: 1533
Flags: W
HStem: -11 39<197.333 314.506> 215 38<222.809 339.797> 432 39<285.355 406.219 486.94 600.276>
VStem: 102 71<53.104 215.454> 363 39<77.2038 192.247> 619 79<285.231 293 305 307.559 307.559 324.454 316.006 408.797>
Fore
102 153 m 0
 102 334 213 471 338 471 c 0
 406 471 429 440 440 411 c 1
 473 447 513 471 574 471 c 0
 674 471 701 405 701 344 c 0
 701 330 700 317 698 305 c 2
 644 0 l 1
 567 0 l 1
 619 293 l 2
 622 307 623 322 623 337 c 0
 623 386 605 432 545 432 c 0
 497 432 465 403 442 373 c 1
 425 373 l 1
 418 399 402 432 352 432 c 0
 276 432 208 354 189 244 c 0
 187 233 185 220 183 205 c 1
 211 237 250 253 292 253 c 0
 357 253 402 206 402 145 c 0
 402 69 336 -11 243 -11 c 0
 183 -11 102 15 102 153 c 0
285 215 m 256
 231 215 173 165 173 106 c 0
 173 60 208 28 252 28 c 256
 310 28 363 81 363 138 c 0
 363 183 329 215 285 215 c 256
EndSplineSet
EndChar
StartChar: uni0E54
Encoding: 3668 3668 291
Width: 735
VWidth: 1533
Flags: W
HStem: -11 40<239.122 413.764> 21 19<553.045 647.877> 112 37<458.478 569.491> 311 37<481.834 589.968> 593 20G<750 827>
VStem: 94 84<87.3594 212.867> 390 53<137.982 269.521> 608 39<187.489 293.569>
Fore
647 252 m 0xbf
 647 181 583 112 504 112 c 0
 474 112 454 121 444 141 c 1
 475 64 607 43 698 40 c 1
 661 -6 l 1
 627 9 585 21 536 21 c 0x7f
 438 21 400 -11 302 -11 c 0
 199 -11 94 26 94 163 c 0
 94 202 103 352 229 416 c 0
 388 497 616 408 717 522 c 0
 742 551 750 599 750 613 c 1
 827 613 l 1
 826 601 825 587 822 572 c 0
 772 287 244 573 184 230 c 0
 180 211 178 192 178 173 c 0
 178 96 214 29 335 29 c 0
 362 29 388 32 411 36 c 2
 487 52 l 1
 427 63 390 123 390 187 c 0
 390 257 438 348 544 348 c 0
 603 348 647 310 647 252 c 0xbf
539 311 m 256
 489 311 443 268 443 214 c 0
 443 174 473 149 510 149 c 256
 567 149 608 200 608 243 c 0
 608 281 581 311 539 311 c 256
EndSplineSet
EndChar
StartChar: uni0E55
Encoding: 3669 3669 292
Width: 735
VWidth: 1533
Flags: W
HStem: -11 40<242.45 413.764> 21 19<553.045 647.877> 112 37<458.478 569.491> 311 37<481.834 589.968> 604 34<412.219 527.784>
VStem: 95 84<90.1527 284.302> 328 52<481.218 573.427> 390 53<137.982 269.521> 541 51<490.347 590.078> 608 39<187.489 293.569>
Fore
592 549 m 0xbfc0
 592 507 568 477 544 460 c 1
 556 460 l 2
 646 460 731 499 748 597 c 0
 749 602 749 607 750 613 c 1
 827 613 l 1
 820 559 817 514 771 480 c 0
 630 378 402 473 251 358 c 0
 198 317 179 241 179 177 c 0
 179 99 214 29 335 29 c 0xbfc0
 362 29 388 32 411 36 c 2
 487 52 l 1
 427 63 390 123 390 187 c 0
 390 257 438 348 544 348 c 0
 603 348 647 310 647 252 c 0
 647 181 583 112 504 112 c 0
 474 112 454 121 444 141 c 1
 475 64 607 43 698 40 c 1
 661 -6 l 1
 627 9 585 21 536 21 c 0x7fc0
 438 21 400 -11 302 -11 c 0
 166 -11 95 51 95 167 c 0
 95 241 123 428 354 455 c 1
 337 470 328 490 328 513 c 0
 328 591 409 638 478 638 c 256
 525 638 592 612 592 549 c 0xbfc0
473 604 m 256
 425 604 380 570 380 518 c 0
 380 480 409 460 447 460 c 256
 497 460 541 494 541 546 c 0
 541 583 512 604 473 604 c 256
539 311 m 256
 489 311 443 268 443 214 c 0
 443 174 473 149 510 149 c 256
 567 149 608 200 608 243 c 0
 608 281 581 311 539 311 c 256
EndSplineSet
EndChar
StartChar: uni0E56
Encoding: 3670 3670 293
Width: 735
VWidth: 1533
Flags: W
HStem: -11 39<265.249 482.688> 73 31<229.808 309.441> 267 37<220.712 331.342> 432 39<344.001 543.422> 604 20G<123.5 186>
VStem: 138 46<122.403 230.558> 209 35<407 434.696> 348 42<142.151 250.309> 636 79<175.789 345.809>
Fore
376 28 m 0
 539 28 636 154 636 266 c 0
 636 367 552 432 441 432 c 0
 359 432 283 402 227 340 c 1
 209 340 l 1
 207 423 147 546 85 584 c 1
 162 624 l 1
 210 586 244 478 244 407 c 2
 244 394 l 1
 303 452 419 471 459 471 c 0
 591 471 715 413 715 278 c 0
 715 126 579 -11 371 -11 c 0
 265 -11 138 34 138 150 c 0
 138 237 206 304 282 304 c 0
 340 304 390 261 390 203 c 0
 390 135 328 73 246 73 c 0
 241 73 235 73 229 74 c 1
 245 60 283 28 376 28 c 0
280 267 m 256
 226 267 184 220 184 171 c 0
 184 132 212 104 251 104 c 256
 301 104 348 149 348 200 c 0
 348 237 323 267 280 267 c 256
EndSplineSet
EndChar
StartChar: uni0E57
Encoding: 3671 3671 294
Width: 735
VWidth: 1533
Flags: W
HStem: -11 39<127.72 245.506> 215 38<153.809 270.797> 432 39<216.904 337.219 416.728 521.71> 602 20G<798.5 855.39>
VStem: 34 70<54.7448 221.512> 294 39<77.2038 192.247> 547 77<166.495 406.051>
Fore
34 160 m 0
 34 338 147 471 269 471 c 0
 337 471 360 440 371 411 c 1
 406 451 447 471 495 471 c 0
 596 471 624 385 624 307 c 0
 624 253 599 106 548 29 c 1
 639 42 687 179 700 258 c 0
 716 346 711 389 726 477 c 0
 736 534 766 612 831 622 c 1
 881 581 l 1
 777 557 797 391 775 264 c 0
 757 163 694 0 552 0 c 2
 474 0 l 1
 465 12 l 1
 508 74 547 218 547 316 c 0
 547 376 531 432 473 432 c 0
 437 432 412 420 373 373 c 1
 356 373 l 1
 349 399 333 432 283 432 c 0
 188 432 131 320 118 245 c 0
 116 233 116 229 114 205 c 1
 142 237 181 253 223 253 c 0
 288 253 333 206 333 145 c 0
 333 69 267 -11 174 -11 c 0
 65 -11 34 73 34 160 c 0
216 215 m 256
 162 215 104 165 104 106 c 0
 104 60 139 28 183 28 c 256
 241 28 294 81 294 138 c 0
 294 183 260 215 216 215 c 256
EndSplineSet
EndChar
StartChar: uni0E58
Encoding: 3672 3672 295
Width: 735
VWidth: 1533
Flags: W
HStem: -11 37<205.597 311.604 438.987 586.695> 66 37<518.356 629.392> 265 37<540.288 650.662> 593 20G<735 812>
VStem: 93 80<55.0626 190.643> 462 40<119.974 226.585> 667 48<142.504 248.103> 735 77<544.095 613>
Fore
715 198 m 0
 715 104 634 -11 512 -11 c 0
 445 -11 400 17 375 74 c 1
 332 11 284 -11 234 -11 c 0
 125 -11 93 65 93 148 c 0
 93 195 104 422 328 460 c 0
 364 465 400 468 437 470 c 2
 543 472 l 2
 710 478 735 567 735 613 c 1
 812 613 l 1
 807 548 796 454 614 443 c 2
 509 437 l 2
 350 428 214 404 181 213 c 0
 176 188 173 161 173 136 c 0
 173 77 192 26 266 26 c 0
 320 26 358 84 371 113 c 1
 388 113 l 1
 402 60 454 23 508 23 c 0
 563 23 606 47 638 95 c 1
 631 87 612 66 564 66 c 0
 505 66 462 108 462 164 c 0
 462 234 525 302 606 302 c 0
 677 302 715 260 715 198 c 0
599 265 m 256
 545 265 502 217 502 169 c 0
 502 130 531 103 570 103 c 256
 622 103 667 149 667 200 c 0
 667 238 638 265 599 265 c 256
EndSplineSet
EndChar
StartChar: uni0E59
Encoding: 3673 3673 296
Width: 766
VWidth: 1533
Flags: W
HStem: -8 39<167.786 311.461> 55 35<226.299 316.566> 258 35<248.561 361.849> 409 46<651.864 743.672> 434 37<244.607 421.51> 593 20G<847 924>
VStem: 36 79<89.7575 287.993> 175 33<108.546 217.813> 380 41<129.924 239.42>
Fore
36 184 m 0xef80
 36 319 141 471 348 471 c 0xef80
 474 471 542 408 566 313 c 1
 588 436 656 455 701 455 c 0
 718 455 743 455 781 417 c 1
 818 456 847 536 847 600 c 2
 847 613 l 1
 924 613 l 1
 916 515 834 397 773 366 c 1
 765 387 739 409 711 409 c 0xf780
 643 409 597 341 597 236 c 0
 597 164 615 61 661 0 c 1
 573 0 l 1
 502 130 545 434 342 434 c 0
 174 434 115 281 115 184 c 0
 115 109 147 31 237 31 c 0
 272 31 317 47 339 78 c 1
 296 55 286 55 274 55 c 0
 215 55 175 97 175 151 c 0
 175 227 244 293 316 293 c 0
 385 293 421 250 421 192 c 0
 421 109 355 -8 217 -8 c 0
 102 -8 36 79 36 184 c 0xef80
309 258 m 256
 249 258 208 205 208 157 c 0
 208 119 237 90 280 90 c 256
 341 90 380 144 380 188 c 0
 380 230 350 258 309 258 c 256
EndSplineSet
EndChar
StartChar: uni0E5A
Encoding: 3674 3674 297
Width: 820
VWidth: 1533
Flags: W
HStem: 0 21G<471 550.551 673 753.532> 356 36<255.731 394.253> 583 38<184.679 289.971>
VStem: 110 41<447.301 549.23> 305 42<465.846 568.37>
Fore
347 528 m 0
 347 464 292 408 245 399 c 1
 256 397 277 392 299 392 c 0
 425 392 533 501 578 621 c 1
 617 621 648 610 648 555 c 0
 648 510 633 484 622 425 c 1
 701 469 757 554 781 621 c 1
 840 621 849 592 849 571 c 0
 849 565 849 559 848 555 c 2
 750 0 l 1
 673 0 l 1
 764 517 l 1
 735 454 657 404 615 383 c 1
 547 0 l 1
 471 0 l 1
 562 517 l 1
 521 429 387 356 293 356 c 0
 227 356 110 382 110 482 c 0
 110 560 171 621 247 621 c 256
 305 621 347 584 347 528 c 0
214 432 m 256
 257 432 305 470 305 521 c 0
 305 557 277 583 241 583 c 256
 194 583 151 540 151 496 c 0
 151 461 175 432 214 432 c 256
EndSplineSet
EndChar
StartChar: uni0E5B
Encoding: 3675 3675 298
Width: 1289
VWidth: 1533
Flags: W
HStem: 32 39<250.827 431.209> 161 38<324.953 441.862> 212 36<1045 1070.73 1070.73 1183.5> 386 39<350.881 468.613> 538 38<307.006 466.38>
VStem: 95 83<154.736 365.112> 263 38<223.139 336.869> 515 60<385.887 488.439>
Fore
263 269 m 0
 263 353 341 425 420 425 c 0
 459 425 493 408 509 376 c 1
 513 395 l 2
 514 403 515 412 515 420 c 0
 515 491 458 538 400 538 c 0
 204 538 178 305 178 246 c 0
 178 149 226 71 338 71 c 0
 528 71 649 286 676 438 c 1
 724 405 773 275 776 212 c 1
 819 425 l 1
 867 379 903 308 921 232 c 1
 949 411 l 1
 987 391 1036 314 1045 248 c 1
 1086 248 1065 247 1096 247 c 0
 1134 247 1194 253 1290 274 c 1
 1284 267 l 1
 1239 243 1130 216 1031 212 c 1
 1025 238 1003 294 964 327 c 1
 925 175 l 1
 915 172 l 1
 905 204 877 272 829 316 c 1
 776 133 l 1
 764 130 l 1
 752 206 718 272 677 314 c 1
 634 191 491 32 331 32 c 0
 202 32 95 114 95 252 c 0
 95 402 216 576 407 576 c 0
 525 576 575 489 575 389 c 0
 575 370 574 350 570 330 c 0
 554 241 461 161 373 161 c 0
 308 161 263 208 263 269 c 0
413 386 m 256
 355 386 301 333 301 276 c 0
 301 232 336 199 380 199 c 256
 434 199 491 249 491 309 c 0
 491 354 457 386 413 386 c 256
EndSplineSet
EndChar
StartChar: zerowidthnonjoiner
Encoding: 8204 8204 299
Width: 0
VWidth: 1533
Flags: W
VStem: -120 223<-454 353 -454 -454>
Fore
-120 -454 m 1
 21 353 l 1
 103 353 l 1
 -38 -454 l 1
 -120 -454 l 1
EndSplineSet
EndChar
StartChar: zerowidthjoiner
Encoding: 8205 8205 300
Width: 0
VWidth: 1533
Flags: W
VStem: -120 287<-454 340 -454 -454>
Fore
-74 190 m 1
 14 265 l 1
 -46 340 l 1
 -9 373 l 1
 52 297 l 1
 140 373 l 1
 167 340 l 1
 78 265 l 1
 140 190 l 1
 103 158 l 1
 75 192 l 1
 -38 -454 l 1
 -120 -454 l 1
 -5 193 l 1
 -46 158 l 1
 -74 190 l 1
40 233 m 1
 40 233 l 1
EndSplineSet
EndChar
StartChar: lefttorightmark
Encoding: 8206 8206 301
Width: 0
VWidth: 1533
Flags: W
HStem: 301 52<94 233>
VStem: -120 451<-454 327 -454 -454>
Fore
204 218 m 1
 175 251 l 1
 233 301 l 1
 94 301 l 1
 -38 -454 l 1
 -120 -454 l 1
 21 353 l 1
 241 353 l 1
 202 400 l 1
 241 434 l 1
 331 327 l 1
 204 218 l 1
EndSplineSet
EndChar
StartChar: righttoleftmark
Encoding: 8207 8207 302
Width: 0
VWidth: 1533
Flags: W
HStem: 301 52<-117 11>
VStem: -216 317<327 353 327 327>
Fore
-216 327 m 1
 -89 434 l 1
 -60 400 l 1
 -117 353 l 1
 101 353 l 1
 -40 -454 l 1
 -121 -454 l 1
 11 301 l 1
 -127 301 l 1
 -87 251 l 1
 -126 218 l 1
 -216 327 l 1
EndSplineSet
EndChar
StartChar: endash
Encoding: 8211 8211 303
Width: 550
VWidth: 1533
Flags: W
HStem: 265 51<55 596>
Fore
55 316 m 1
 606 316 l 1
 596 265 l 1
 46 265 l 1
 55 316 l 1
EndSplineSet
EndChar
StartChar: emdash
Encoding: 8212 8212 304
Width: 1110
VWidth: 1533
Flags: W
HStem: 265 51<55 1156>
Fore
55 316 m 1
 1165 316 l 1
 1156 265 l 1
 46 265 l 1
 55 316 l 1
EndSplineSet
EndChar
StartChar: quoteleft
Encoding: 8216 8216 305
Width: 136
VWidth: 1533
Flags: W
HStem: 507 105<154.494 197.698>
VStem: 110 41<607 641.127>
Fore
217 571 m 0
 217 536 181 507 152 507 c 256
 134 507 110 515 110 558 c 0
 110 634 167 710 223 741 c 1
 224 733 l 1
 200 714 151 657 151 607 c 1
 157 610 164 612 174 612 c 0
 197 612 217 596 217 571 c 0
EndSplineSet
EndChar
StartChar: quoteright
Encoding: 8217 8217 306
Width: 137
VWidth: 1533
Flags: W
HStem: 636 105<159.405 204.335>
VStem: 207 41<604.801 641>
Fore
140 678 m 0
 140 712 176 741 206 741 c 256
 225 741 248 732 248 688 c 0
 248 615 194 541 137 507 c 1
 132 514 l 1
 173 545 207 602 207 641 c 1
 203 638 195 636 184 636 c 0
 163 636 140 653 140 678 c 0
EndSplineSet
EndChar
StartChar: quotesinglbase
Encoding: 8218 8218 307
Width: 136
VWidth: 1533
Flags: W
HStem: -8 103<43.7689 88.8906>
VStem: 91 44<-36.7188 -3>
Fore
27 33 m 0
 27 64 56 95 91 95 c 256
 110 95 135 86 135 44 c 0
 135 -27 78 -108 22 -135 c 1
 18 -129 l 1
 47 -106 91 -53 91 -3 c 1
 88 -6 81 -8 70 -8 c 0
 47 -8 27 8 27 33 c 0
EndSplineSet
EndChar
StartChar: quotedblleft
Encoding: 8220 8220 308
Width: 323
VWidth: 1533
Flags: W
HStem: 507 105<174.5 219.375 342.388 384.698>
VStem: 130 41<607 640.473> 296 43<607 642.862>
Fore
404 571 m 0
 404 536 368 507 339 507 c 256
 320 507 296 516 296 559 c 0
 296 632 351 709 407 741 c 1
 411 733 l 1
 389 715 339 663 339 607 c 1
 345 610 351 612 359 612 c 0
 383 612 404 596 404 571 c 0
238 571 m 0
 238 542 210 507 173 507 c 256
 154 507 130 517 130 560 c 0
 130 632 185 709 243 741 c 1
 247 733 l 1
 229 719 171 663 171 607 c 1
 177 610 184 612 195 612 c 0
 218 612 238 596 238 571 c 0
EndSplineSet
EndChar
StartChar: quotedblright
Encoding: 8221 8221 309
Width: 323
VWidth: 1533
Flags: W
HStem: 636 105<159.405 204.335 325.213 369.592>
VStem: 206 42<604.439 634.5 634.5 641> 373 42<606.844 634.5 634.5 641>
Fore
140 678 m 0
 140 712 176 741 206 741 c 256
 225 741 248 732 248 688 c 0
 248 615 194 541 137 507 c 1
 132 514 l 1
 160 535 198 582 206 628 c 0
 206 632 207 637 207 641 c 1
 203 638 195 636 184 636 c 0
 163 636 140 653 140 678 c 0
307 676 m 0
 307 705 334 741 370 741 c 0
 388 741 415 733 415 687 c 0
 415 615 358 539 302 507 c 1
 298 514 l 1
 326 535 365 582 373 628 c 0
 373 632 373 637 374 641 c 1
 366 638 359 636 351 636 c 0
 324 636 307 653 307 676 c 0
EndSplineSet
EndChar
StartChar: quotedblbase
Encoding: 8222 8222 310
Width: 321
VWidth: 1533
Flags: W
HStem: -8 103<43.7689 88.8906 207.552 253.884>
VStem: 91 44<-36.7188 -3> 257 42<-35.6338 -3>
Fore
27 33 m 0
 27 64 56 95 91 95 c 256
 110 95 135 86 135 44 c 0
 135 -27 78 -108 22 -135 c 1
 18 -129 l 1
 47 -106 91 -53 91 -3 c 1
 88 -6 81 -8 70 -8 c 0
 47 -8 27 8 27 33 c 0
191 33 m 0
 191 69 224 95 256 95 c 0
 275 95 299 88 299 46 c 0
 299 -32 238 -110 186 -135 c 1
 181 -129 l 1
 232 -92 257 -31 257 -3 c 1
 252 -6 244 -8 235 -8 c 0
 212 -8 191 7 191 33 c 0
EndSplineSet
EndChar
StartChar: dagger
Encoding: 8224 8224 311
Width: 613
VWidth: 1533
Flags: W
HStem: 405 63<143 342 433 632> 696 20G<393.532 476>
Fore
354 468 m 1
 397 716 l 1
 476 716 l 1
 433 468 l 1
 644 468 l 1
 632 405 l 1
 421 405 l 1
 325 -143 l 1
 246 -143 l 1
 342 405 l 1
 131 405 l 1
 143 468 l 1
 354 468 l 1
EndSplineSet
EndChar
StartChar: daggerdbl
Encoding: 8225 8225 312
Width: 613
VWidth: 1533
Flags: W
HStem: 109 54<89 290 368 569> 415 53<143 344 422 623> 698 20G<394.48 466>
Fore
300 163 m 1
 344 415 l 1
 133 415 l 1
 143 468 l 1
 354 468 l 1
 398 718 l 1
 466 718 l 1
 422 468 l 1
 633 468 l 1
 623 415 l 1
 412 415 l 1
 368 163 l 1
 579 163 l 1
 569 109 l 1
 358 109 l 1
 314 -141 l 1
 246 -141 l 1
 290 109 l 1
 79 109 l 1
 89 163 l 1
 300 163 l 1
EndSplineSet
EndChar
StartChar: bullet
Encoding: 8226 8226 313
Width: 553
VWidth: 1533
Flags: W
HStem: 176 362<282.454 392.777>
VStem: 155 369<305.914 411.393>
Fore
524 389 m 0
 524 282 421 176 307 176 c 0
 217 176 155 245 155 327 c 0
 155 430 251 538 371 538 c 0
 467 538 524 470 524 389 c 0
EndSplineSet
EndChar
StartChar: ellipsis
Encoding: 8230 8230 314
Width: 1110
VWidth: 1533
Flags: W
HStem: -14 108<147.374 220.552 524.772 598.265 897.801 971.471>
VStem: 130 108<3.15323 76.6264> 507 108<2.92554 75.842> 880 109<3.36255 75.842>
Fore
130 31 m 0
 130 66 163 94 193 94 c 256
 221 94 238 75 238 50 c 0
 238 15 207 -14 174 -14 c 256
 149 -14 130 4 130 31 c 0
507 32 m 0
 507 69 545 94 572 94 c 256
 597 94 615 77 615 52 c 0
 615 16 586 -14 553 -14 c 256
 528 -14 507 5 507 32 c 0
880 32 m 0
 880 69 918 94 946 94 c 256
 973 94 989 75 989 51 c 0
 989 22 964 -14 927 -14 c 256
 904 -14 880 4 880 32 c 0
EndSplineSet
EndChar
StartChar: perthousand
Encoding: 8240 8240 315
Width: 1117
VWidth: 1533
Flags: W
HStem: -2 30<516.15 620.425 891.945 994.514> 301 29<193.89 295.448> 356 30<565.858 671.039 941.992 1046> 658 30<246.34 348.084>
VStem: 109 60<364.269 553.594> 373 59<438.594 622.927> 431 58<65.0194 250.061> 698 57<135.107 321.71> 807 58<64.7211 251.019> 1071 58<134.901 321.566>
Fore
807 154 m 0xf9c0
 807 269 899 386 1003 386 c 0
 1095 386 1129 299 1129 228 c 0
 1129 120 1037 -2 935 -2 c 0
 854 -2 807 71 807 154 c 0xf9c0
431 155 m 0xfbc0
 431 264 521 386 628 386 c 256
 710 386 755 313 755 232 c 0
 755 123 665 -2 560 -2 c 256
 477 -2 431 73 431 155 c 0xfbc0
175 -17 m 1
 135 -17 l 1
 687 705 l 1
 727 705 l 1
 175 -17 l 1
109 455 m 0
 109 567 199 688 303 688 c 256
 391 688 432 611 432 533 c 0xfdc0
 432 428 345 301 237 301 c 256
 154 301 109 373 109 455 c 0
998 356 m 256
 915 356 865 231 865 142 c 0
 865 87 882 28 940 28 c 0
 1019 28 1071 148 1071 243 c 0
 1071 296 1056 356 998 356 c 256
565 28 m 0
 652 28 698 164 698 243 c 0
 698 295 683 356 624 356 c 256
 537 356 489 230 489 141 c 0xfbc0
 489 86 506 28 565 28 c 0
300 658 m 256
 221 658 169 539 169 444 c 0
 169 389 184 330 242 330 c 256
 321 330 373 450 373 545 c 0xfdc0
 373 598 358 658 300 658 c 256
EndSplineSet
EndChar
StartChar: minute
Encoding: 8242 8242 316
Width: 223
VWidth: 1533
Flags: W
HStem: 497 290
VStem: 132 197<497 762 497 497>
Fore
300 787 m 256
 324 787 329 772 329 762 c 0
 329 750 321 734 319 731 c 2
 165 497 l 1
 132 497 l 1
 256 756 l 2
 263 772 277 787 300 787 c 256
EndSplineSet
EndChar
StartChar: second
Encoding: 8243 8243 317
Width: 351
VWidth: 1533
Flags: W
HStem: 497 290<277 297>
VStem: 132 329<497 762 497 497>
Fore
300 787 m 256
 324 787 329 772 329 762 c 0
 329 750 321 734 319 731 c 2
 165 497 l 1
 132 497 l 1
 256 756 l 2
 263 772 277 787 300 787 c 256
432 787 m 256
 456 787 461 772 461 762 c 0
 461 750 453 734 451 731 c 2
 297 497 l 1
 264 497 l 1
 388 756 l 2
 395 772 409 787 432 787 c 256
EndSplineSet
EndChar
StartChar: guilsinglleft
Encoding: 8249 8249 318
Width: 275
VWidth: 1533
Flags: W
HStem: 72 391<209 277 277 277>
VStem: 75 265<267 463 267 267>
Fore
209 72 m 1
 75 267 l 1
 277 463 l 1
 340 463 l 1
 139 267 l 1
 272 72 l 1
 209 72 l 1
EndSplineSet
EndChar
StartChar: guilsinglright
Encoding: 8250 8250 319
Width: 275
VWidth: 1533
Flags: W
HStem: 72 391<93 97 97 97>
VStem: 30 264<72 267 72 72>
Fore
93 72 m 1
 30 72 l 1
 229 267 l 1
 97 463 l 1
 162 463 l 1
 294 267 l 1
 93 72 l 1
EndSplineSet
EndChar
StartChar: fraction
Encoding: 8260 8260 320
Width: 177
VWidth: 1533
Flags: W
HStem: -20 21G<-190 -126.759> 685 20G<419.703 481>
Fore
481 705 m 1
 -144 -20 l 1
 -190 -20 l 1
 437 705 l 1
 481 705 l 1
EndSplineSet
EndChar
StartChar: Euro
Encoding: 8364 8364 321
Width: 732
VWidth: 1533
Flags: W
HStem: -18 26<370.647 552.966> 255 38<104 163 273 589> 396 38<129 185 302 660> 538 21G<730 828> 684 21<479.768 671.486>
VStem: 163 106<147.386 244 244 255 293 323.393> 739 89<538 606.878>
Fore
198 434 m 1
 273 623 439 705 584 705 c 0
 758 705 809 623 828 538 c 1
 739 538 l 1
 721 671 642 684 582 684 c 0
 440 684 349 582 302 434 c 1
 683 434 l 1
 660 396 l 1
 291 396 l 1
 288 387 286 378 284 368 c 2
 276 324 l 2
 274 311 273 301 273 293 c 1
 612 293 l 1
 589 255 l 1
 270 255 l 1
 270 248 269 240 269 233 c 0
 269 110 318 8 469 8 c 0
 564 8 645 89 674 141 c 1
 716 86 l 1
 677 46 605 -18 466 -18 c 0
 288 -18 164 86 163 255 c 1
 82 255 l 1
 104 293 l 1
 164 293 l 1
 169 335 171 357 185 396 c 1
 107 396 l 1
 129 434 l 1
 198 434 l 1
EndSplineSet
EndChar
StartChar: uni2113
Encoding: 8467 8467 322
Width: 492
VWidth: 1533
Flags: W
HStem: -18 41<249.761 373.593> 722 26<342.459 421.83>
VStem: 135 88<51.7961 180.218> 432 59<548.206 715.347> 440 66<71.099 140>
Fore
235 242 m 2xf0
 230 214 223 174 223 136 c 0
 223 77 240 23 308 23 c 0
 375 23 426 86 440 140 c 1
 506 127 l 1xe8
 481 56 401 -18 273 -18 c 0
 169 -18 135 49 135 124 c 0
 135 161 145 223 150 247 c 1
 59 202 l 1
 54 222 l 1
 85 239 116 255 156 281 c 1
 164 330 166 354 175 404 c 0
 222 669 302 748 402 748 c 0
 466 748 491 703 491 647 c 0
 491 579 458 448 246 307 c 1
 235 242 l 2xf0
254 350 m 1
 351 431 432 526 432 644 c 0xf0
 432 680 424 722 391 722 c 0
 325 722 304 636 294 578 c 2
 254 350 l 1
EndSplineSet
EndChar
StartChar: trademark
Encoding: 8482 8482 323
Width: 1090
VWidth: 1533
Flags: W
HStem: 681 35<155 313 379 543>
Fore
982 265 m 1
 1048 641 l 1
 782 256 l 1
 766 256 l 1
 645 627 l 1
 581 265 l 1
 538 265 l 1
 617 716 l 1
 695 716 l 1
 806 351 l 1
 1057 716 l 1
 1129 716 l 1
 1050 265 l 1
 982 265 l 1
379 681 m 1
 306 265 l 1
 240 265 l 1
 313 681 l 1
 149 681 l 1
 155 716 l 1
 549 716 l 1
 543 681 l 1
 379 681 l 1
EndSplineSet
EndChar
StartChar: Ohm
Encoding: 8486 8486 324
Width: 941
VWidth: 1533
Flags: W
HStem: 0 66<74 325 641 868> 672 35<474.299 700.072>
VStem: 160 110<227.121 440.333> 807 111<369.102 542.745>
Fore
918 442 m 0
 918 217 694 95 641 66 c 1
 895 66 l 1
 868 0 l 1
 570 0 l 1
 564 17 l 1
 650 104 l 2
 802 260 807 424 807 462 c 0
 807 567 759 672 589 672 c 0
 334 672 270 437 270 300 c 0
 270 228 289 168 328 104 c 2
 385 17 l 1
 373 0 l 1
 74 0 l 1
 70 66 l 1
 325 66 l 1
 258 109 160 195 160 331 c 0
 160 535 350 707 596 707 c 256
 776 707 918 610 918 442 c 0
EndSplineSet
EndChar
StartChar: estimated
Encoding: 8494 8494 325
Width: 533
VWidth: 1533
Flags: W
HStem: -18 36<216.871 360.809> 366 37<200 494> 567 34<303.851 436.223>
VStem: 74 83<109.132 301.743> 470 72<112.676 202> 494 83<403 497.237>
Fore
185 366 m 1xf4
 169 338 157 249 157 198 c 0
 157 47 233 18 290 18 c 0
 390 18 448 127 470 202 c 1
 542 202 l 1xf8
 518 96 417 -18 284 -18 c 0
 139 -18 74 100 74 223 c 0
 74 383 191 601 382 601 c 0
 521 601 577 501 577 391 c 0
 577 383 577 374 576 366 c 1
 185 366 l 1xf4
494 403 m 1xf4
 492 467 468 567 371 567 c 0
 286 567 224 477 200 403 c 1
 494 403 l 1xf4
EndSplineSet
EndChar
StartChar: partialdiff
Encoding: 8706 8706 326
Width: 648
VWidth: 1533
Flags: W
HStem: -18 39<222.817 365.856> 403 46<320.994 441.541> 741 42<343.679 520.724>
VStem: 84 101<64.343 239.904> 592 85<439.628 620.851>
Fore
562 366 m 1
 590 459 592 505 592 540 c 0
 592 659 541 741 450 741 c 0
 347 741 298 697 262 655 c 1
 184 678 l 1
 235 749 337 783 426 783 c 0
 587 783 677 658 677 491 c 0
 677 277 524 -18 278 -18 c 0
 153 -18 84 48 84 157 c 0
 84 347 262 449 399 449 c 0
 421 449 505 447 562 366 c 1
411 403 m 0
 230 403 185 195 185 134 c 0
 185 82 207 21 289 21 c 0
 404 21 497 164 545 325 c 1
 505 398 437 403 411 403 c 0
EndSplineSet
EndChar
StartChar: Delta
Encoding: 8710 8710 327
Width: 657
VWidth: 1533
Flags: W
HStem: 0 55<85 540>
Fore
0 0 m 1
 438 745 l 1
 658 0 l 1
 0 0 l 1
391 575 m 1
 85 55 l 1
 540 55 l 1
 391 575 l 1
EndSplineSet
EndChar
StartChar: product
Encoding: 8719 8719 328
Width: 728
VWidth: 1533
Flags: W
HStem: 667 38<300 664>
Fore
531 -86 m 1
 664 667 l 1
 300 667 l 1
 167 -86 l 1
 74 -86 l 1
 213 705 l 1
 765 705 l 1
 626 -86 l 1
 531 -86 l 1
EndSplineSet
EndChar
StartChar: summation
Encoding: 8721 8721 329
Width: 679
VWidth: 1533
Flags: W
HStem: -87 81<123 589> 665 39<289 723>
Fore
589 -87 m 1
 17 -87 l 1
 21 -60 l 1
 357 296 l 1
 160 678 l 1
 164 704 l 1
 727 704 l 1
 723 665 l 1
 289 665 l 1
 452 347 l 1
 123 -6 l 1
 625 -6 l 1
 589 -87 l 1
EndSplineSet
EndChar
StartChar: minus
Encoding: 8722 8722 330
Width: 662
VWidth: 1533
Flags: W
HStem: 259 65<103 662>
Fore
103 324 m 1
 673 324 l 1
 662 259 l 1
 92 259 l 1
 103 324 l 1
EndSplineSet
EndChar
StartChar: radical
Encoding: 8730 8730 331
Width: 645
VWidth: 1533
Flags: W
Fore
389 -149 m 1
 224 420 l 1
 113 366 l 1
 104 394 l 1
 297 484 l 1
 425 14 l 1
 434 14 l 1
 754 914 l 1
 789 905 l 1
 410 -138 l 1
 389 -149 l 1
EndSplineSet
EndChar
StartChar: infinity
Encoding: 8734 8734 332
Width: 1002
VWidth: 1533
Flags: W
HStem: 213 52<241.228 395.84 707.717 862.655> 541 54<285.49 432.799 753.788 899.555>
VStem: 99 99<308.043 453.778> 947 100<353.365 494.098>
Fore
99 370 m 0
 99 505 216 595 369 595 c 0
 464 595 538 526 581 454 c 1
 623 495 727 595 844 595 c 0
 930 595 1047 564 1047 442 c 0
 1047 293 904 213 782 213 c 0
 733 213 649 223 562 350 c 1
 424 221 345 213 297 213 c 0
 200 213 99 264 99 370 c 0
791 265 m 0
 877 265 947 352 947 426 c 0
 947 491 898 541 834 541 c 0
 719 541 628 413 618 402 c 1
 640 345 685 265 791 265 c 0
359 541 m 0
 281 541 198 467 198 380 c 0
 198 324 233 265 306 265 c 0
 424 265 503 369 526 402 c 1
 492 482 435 541 359 541 c 0
EndSplineSet
EndChar
StartChar: integral
Encoding: 8747 8747 333
Width: 423
VWidth: 1533
Flags: W
HStem: -210 37<43.9975 133.167> 834 38<411.511 481.581>
Fore
102 -173 m 0
 201 -173 208 236 254 501 c 0
 277 628 325 872 484 872 c 0
 502 872 534 866 562 803 c 1
 495 771 l 1
 487 831 458 834 440 834 c 0
 271 834 399 -210 60 -210 c 0
 7 -210 -14 -150 -17 -141 c 1
 48 -110 l 1
 57 -168 81 -173 102 -173 c 0
EndSplineSet
EndChar
StartChar: approxequal
Encoding: 8776 8776 334
Width: 659
VWidth: 1533
Flags: W
HStem: 115 54<408.433 550.996> 199 54<171.796 323.161> 314 56<443.084 586.103> 399 55<208.34 358.167>
Fore
275 399 m 0
 215 399 163 345 142 320 c 1
 113 354 l 1
 129 376 197 454 296 454 c 0
 400 454 426 370 516 370 c 0
 587 370 638 434 649 449 c 1
 680 412 l 1
 640 365 571 314 510 314 c 0
 393 314 386 399 275 399 c 0
240 199 m 0
 180 199 128 146 107 121 c 1
 78 155 l 1
 96 179 162 253 261 253 c 0
 365 253 391 169 481 169 c 0
 543 169 591 218 614 248 c 1
 645 213 l 1
 605 166 536 115 475 115 c 0
 360 115 350 199 240 199 c 0
EndSplineSet
EndChar
StartChar: notequal
Encoding: 8800 8800 335
Width: 659
VWidth: 1533
Flags: W
HStem: 143 55<93 260 348 626> 366 56<132 404 493 666>
Fore
563 532 m 1
 493 422 l 1
 675 422 l 1
 666 366 l 1
 456 366 l 1
 348 198 l 1
 636 198 l 1
 626 143 l 1
 312 143 l 1
 227 11 l 1
 186 31 l 1
 260 143 l 1
 83 143 l 1
 93 198 l 1
 294 198 l 1
 404 366 l 1
 123 366 l 1
 132 422 l 1
 437 422 l 1
 522 552 l 1
 563 532 l 1
EndSplineSet
EndChar
StartChar: lessequal
Encoding: 8804 8804 336
Width: 659
VWidth: 1533
Flags: W
HStem: 0 49<53 615>
Fore
189 377 m 1
 188 370 l 1
 624 163 l 1
 613 101 l 1
 123 343 l 1
 134 405 l 1
 710 644 l 1
 699 584 l 1
 189 377 l 1
44 0 m 1
 53 49 l 1
 624 49 l 1
 615 0 l 1
 44 0 l 1
EndSplineSet
EndChar
StartChar: greaterequal
Encoding: 8805 8805 337
Width: 659
VWidth: 1533
Flags: W
HStem: 0 49<53 615>
Fore
82 101 m 1
 93 163 l 1
 602 370 l 1
 603 377 l 1
 166 584 l 1
 177 644 l 1
 667 405 l 1
 656 343 l 1
 82 101 l 1
44 0 m 1
 53 49 l 1
 624 49 l 1
 615 0 l 1
 44 0 l 1
EndSplineSet
EndChar
StartChar: lozenge
Encoding: 9674 9674 338
Width: 668
VWidth: 1533
Flags: W
Fore
359 -81 m 1
 288 -81 l 1
 114 333 l 1
 436 751 l 1
 505 751 l 1
 677 333 l 1
 359 -81 l 1
465 698 m 1
 456 698 l 1
 179 337 l 1
 326 -26 l 1
 338 -26 l 1
 612 337 l 1
 465 698 l 1
EndSplineSet
EndChar
StartChar: dottedcircle
Encoding: 9676 9676 339
Width: 625
VWidth: 1533
Flags: W
HStem: 35 57<295.583 348.039> 57 55<202.417 254.552 401.513 451.094> 110 57<128.795 181.415 490.576 542.717> 195 56<88.417 141.05 560.417 614.256> 293 57<85.1665 138.327 599.836 652.751> 389 57<122.928 175.026 595.217 647.947> 475 55<192.685 246.344 552.666 607.486> 530 56<285.549 337.885 482.72 533.815> 549 57<387.124 439.84>
VStem: 86 57<212.609 231.801 296.886 346.926> 126 58<129.025 145.884 409.703 428.391> 293 58<38.4632 89.1094> 384 58<551.929 603.165> 597 58<305.062 344.965 410.052 427.686>
Fore
609 509 m 0x1e1c
 609 494 603 475 578 475 c 0
 560 475 550 481 550 494 c 0
 550 504 555 530 587 530 c 0
 601 530 609 523 609 509 c 0x1e1c
536 566 m 0
 536 552 530 530 504 530 c 0
 488 530 480 537 480 550 c 0
 480 562 487 586 514 586 c 0x1e1c
 528 586 536 579 536 566 c 0
651 427 m 0
 651 414 644 389 616 389 c 0
 601 389 593 396 593 410 c 0
 593 426 600 446 628 446 c 0
 643 446 651 439 651 427 c 0
340 566 m 0
 340 551 334 530 306 530 c 256
 291 530 283 537 283 550 c 0
 283 563 290 586 316 586 c 256x1e1c
 332 586 340 579 340 566 c 0
616 229 m 0
 616 214 609 195 581 195 c 0
 566 195 558 202 558 215 c 0
 558 229 565 251 591 251 c 0
 607 251 616 244 616 229 c 0
248 509 m 0
 248 493 241 475 214 475 c 0
 198 475 190 481 190 494 c 0
 190 506 197 530 223 530 c 0
 239 530 248 523 248 509 c 0
545 147 m 0
 545 137 542 110 513 110 c 0
 497 110 488 117 488 131 c 0
 488 144 495 167 523 167 c 0x3e1c
 537 167 545 160 545 147 c 0
453 91 m 0
 453 77 446 57 421 57 c 256
 407 57 399 64 399 76 c 0
 399 89 406 112 431 112 c 256x5e1c
 445 112 453 105 453 91 c 0
178 427 m 0
 178 415 172 389 146 389 c 0
 130 389 121 396 121 411 c 0
 121 427 128 446 154 446 c 256
 170 446 178 439 178 427 c 0
143 230 m 0x1e5c
 143 214 136 195 109 195 c 256
 94 195 86 202 86 215 c 0
 86 229 93 251 119 251 c 256
 135 251 143 244 143 230 c 0x1e5c
257 93 m 0
 257 79 250 57 223 57 c 256
 208 57 200 64 200 76 c 0
 200 90 207 112 233 112 c 256x5e1c
 249 112 257 105 257 93 c 0
184 146 m 0x3e3c
 184 135 179 110 149 110 c 0
 134 110 126 117 126 130 c 0
 126 143 133 167 159 167 c 0
 175 167 184 160 184 146 c 0x3e3c
442 581 m 0
 442 562 422 549 408 549 c 256
 397 549 384 559 384 572 c 0
 384 587 400 606 418 606 c 256x1e9c
 431 606 442 596 442 581 c 0
327 92 m 256x9e1c
 340 92 351 82 351 68 c 0
 351 51 331 35 317 35 c 256
 303 35 293 49 293 60 c 0
 293 75 310 92 327 92 c 256x9e1c
655 326 m 0
 655 306 635 293 622 293 c 0
 606 293 597 306 597 317 c 0
 597 330 611 350 632 350 c 0
 645 350 655 340 655 326 c 0
141 327 m 0
 141 307 121 293 107 293 c 256
 92 293 82 307 82 317 c 0
 82 329 96 350 117 350 c 256
 130 350 141 341 141 327 c 0
EndSplineSet
EndChar
StartChar: uni0E10.alt1
Encoding: 63232 63232 340
Width: 640
VWidth: 1533
Flags: W
HStem: 0 21G<445.312 533> 113 39<167.934 280.674> 327 38<193.472 305.29> 399 38<187 554> 500 47<464.875 577.108> 569 52<265.834 411.836>
VStem: 109 39<172.703 282.525>
Fore
109 216 m 0
 109 287 169 365 259 365 c 0
 312 365 353 341 379 279 c 2
 469 69 l 1
 472 87 l 2
 496 219 534 281 554 399 c 1
 85 399 l 1
 105 508 194 621 324 621 c 0
 431 621 453 547 525 547 c 0
 562 547 599 580 605 613 c 1
 695 613 l 1
 675 551 611 500 546 500 c 0
 458 500 423 569 344 569 c 0
 270 569 201 516 187 437 c 1
 641 437 l 1
 637 415 l 2
 614 284 554 136 533 16 c 2
 530 0 l 1
 454 0 l 1
 358 221 l 1
 337 161 280 113 215 113 c 0
 148 113 109 158 109 216 c 0
253 327 m 256
 201 327 148 279 148 225 c 0
 148 185 177 152 222 152 c 256
 272 152 325 199 325 254 c 0
 325 293 297 327 253 327 c 256
EndSplineSet
EndChar
StartChar: uni0E48.alt2
Encoding: 63242 63242 350
Width: 0
VWidth: 1533
Flags: W
HStem: 690 221<-8 30 -47 69 -8 -8>
Fore
-47 690 m 1
 -8 911 l 1
 69 911 l 1
 30 690 l 1
 -47 690 l 1
EndSplineSet
Substitution2: "Single Substitution lookup 20 subtable" uni0E48.alt3
Substitution2: "Single Substitution lookup 21 subtable" uni0E48
Substitution2: "Single Substitution lookup 22 subtable" uni0E48.alt1
Substitution2: "Single Substitution lookup 20 subtable" uni0E48.alt3
Substitution2: "Single Substitution lookup 21 subtable" uni0E48
Substitution2: "Single Substitution lookup 22 subtable" uni0E48.alt1
EndChar
StartChar: uni0E49.alt2
Encoding: 63243 63243 351
Width: 0
VWidth: 1533
Flags: W
HStem: 733 21G<-132 -102.5> 785 29<-227.008 -156.191> 923 31<-215.03 -130.997>
VStem: -271 37<821.196 905.249> -124 41<831.355 916.73>
Fore
-271 853 m 0
 -271 913 -213 954 -162 954 c 0
 -110 954 -83 917 -83 875 c 0
 -83 831 -115 765 -149 733 c 1
 -56 772 12 836 57 926 c 1
 149 926 l 1
 103 797 -103 698 -231 690 c 1
 -169 747 -150 781 -141 799 c 1
 -151 795 -173 785 -193 785 c 0
 -229 785 -271 806 -271 853 c 0
-168 923 m 0
 -207 923 -234 888 -234 860 c 0
 -234 833 -212 814 -187 814 c 256
 -160 814 -124 839 -124 877 c 0
 -124 901 -142 923 -168 923 c 0
EndSplineSet
Substitution2: "Single Substitution lookup 20 subtable" uni0E49.alt3
Substitution2: "Single Substitution lookup 21 subtable" uni0E49
Substitution2: "Single Substitution lookup 22 subtable" uni0E49.alt1
Substitution2: "Single Substitution lookup 20 subtable" uni0E49.alt3
Substitution2: "Single Substitution lookup 21 subtable" uni0E49
Substitution2: "Single Substitution lookup 22 subtable" uni0E49.alt1
EndChar
StartChar: uni0E4A.alt2
Encoding: 63244 63244 352
Width: 0
VWidth: 1533
Flags: W
HStem: 681 33<-379.03 -292.744> 716 21G<-56.5 -29> 823 29<-367.155 -279.664> 900 34<-346.381 -248.099 -191.401 -110.146>
VStem: -451 66<720.303 831.591> -272 29<734.085 815.078> -99 65<808.186 890.18>
Fore
-451 783 m 0
 -451 882 -362 934 -289 934 c 256
 -266 934 -248 934 -218 903 c 1
 -191 924 -163 934 -134 934 c 0
 -69 934 -34 900 -34 843 c 0
 -34 818 -41 781 -72 716 c 1
 14 733 19 842 26 886 c 0
 30 905 38 919 51 929 c 1
 120 929 l 1
 95 910 89 891 82 852 c 2
 77 824 l 2
 66 759 50 690 -139 690 c 1
 -147 701 l 1
 -113 743 -99 806 -99 836 c 0
 -99 865 -108 900 -154 900 c 0
 -176 900 -191 895 -215 869 c 1
 -233 869 l 1
 -242 890 -262 900 -286 900 c 0
 -327 900 -373 871 -382 823 c 1
 -365 842 -341 852 -313 852 c 0
 -268 852 -243 822 -243 782 c 0
 -243 717 -302 681 -351 681 c 0
 -423 681 -451 728 -451 783 c 0
-320 823 m 256
 -347 823 -385 798 -385 759 c 0
 -385 732 -366 714 -339 714 c 0
 -304 714 -272 749 -272 778 c 0
 -272 802 -293 823 -320 823 c 256
EndSplineSet
Substitution2: "Single Substitution lookup 20 subtable" uni0E4A.alt3
Substitution2: "Single Substitution lookup 21 subtable" uni0E4A
Substitution2: "Single Substitution lookup 22 subtable" uni0E4A.alt1
Substitution2: "Single Substitution lookup 20 subtable" uni0E4A.alt3
Substitution2: "Single Substitution lookup 21 subtable" uni0E4A
Substitution2: "Single Substitution lookup 22 subtable" uni0E4A.alt1
EndChar
StartChar: uni0E4B.alt2
Encoding: 63245 63245 353
Width: 0
VWidth: 1533
Flags: W
HStem: 690 251<-121 -88> 797 37<-258 -146 -63 49 -264 55 -258 -258>
Fore
-69 797 m 1x40
 -88 690 l 1
 -165 690 l 1x80
 -146 797 l 1
 -264 797 l 1
 -258 834 l 1
 -140 834 l 1x40
 -121 941 l 1
 -44 941 l 1x80
 -63 834 l 1
 55 834 l 1
 49 797 l 1
 -69 797 l 1x40
EndSplineSet
Substitution2: "Single Substitution lookup 20 subtable" uni0E4B.alt3
Substitution2: "Single Substitution lookup 21 subtable" uni0E4B
Substitution2: "Single Substitution lookup 22 subtable" uni0E4B.alt1
Substitution2: "Single Substitution lookup 20 subtable" uni0E4B.alt3
Substitution2: "Single Substitution lookup 21 subtable" uni0E4B
Substitution2: "Single Substitution lookup 22 subtable" uni0E4B.alt1
EndChar
StartChar: uni0E4C.alt2
Encoding: 63246 63246 354
Width: 0
VWidth: 1533
Flags: W
HStem: 690 34<-134.088 -38.0718>
VStem: -195 48<736.277 811.304> -10 44<751.396 844.8> 77 83<958.296 1007.89>
Fore
34 809 m 0
 34 736 -35 690 -97 690 c 256
 -147 690 -195 720 -195 775 c 0
 -195 781 -194 787 -193 794 c 0
 -165 950 57 897 77 1012 c 1
 160 994 l 1
 148 922 26 911 -25 888 c 1
 10 879 34 848 34 809 c 0
-68 857 m 0
 -111 857 -147 815 -147 781 c 0
 -147 749 -121 724 -91 724 c 0
 -55 724 -10 756 -10 802 c 0
 -10 835 -37 857 -68 857 c 0
EndSplineSet
Substitution2: "Single Substitution lookup 20 subtable" uni0E4C.alt3
Substitution2: "Single Substitution lookup 21 subtable" uni0E4C
Substitution2: "Single Substitution lookup 22 subtable" uni0E4C.alt1
Substitution2: "Single Substitution lookup 20 subtable" uni0E4C.alt3
Substitution2: "Single Substitution lookup 21 subtable" uni0E4C
Substitution2: "Single Substitution lookup 22 subtable" uni0E4C.alt1
EndChar
StartChar: uni0E0D.alt1
Encoding: 63247 63247 355
Width: 1068
VWidth: 1533
Flags: W
HStem: -8 42<202.879 316.53> 0 38<633 907> 207 38<226.299 338.594> 593 31<349.027 552.643>
VStem: 115 68<53.3624 152.971> 358 39<75.0941 187.778> 623 75<402.041 411 422 425.668 425.668 438.023 431.845 528.256>
Fore
397 143 m 0x7e
 397 63 329 -8 241 -8 c 0xbe
 155 -8 115 42 115 113 c 0
 115 125 116 137 118 149 c 2
 136 247 l 2
 146 305 180 370 262 391 c 1
 127 391 l 1
 167 547 310 624 460 624 c 0
 589 624 702 577 702 454 c 0
 702 440 701 426 698 411 c 2
 633 38 l 1
 907 38 l 1
 1008 613 l 1
 1085 613 l 1
 977 0 l 1
 549 0 l 1
 623 422 l 2
 625 433 626 444 626 454 c 0
 626 542 555 593 455 593 c 0
 320 593 232 501 212 417 c 1
 312 417 l 1
 306 386 l 1
 235 355 221 297 211 236 c 2
 207 218 l 1
 218 226 244 245 293 245 c 0
 357 245 397 200 397 143 c 0x7e
286 207 m 256
 234 207 183 159 183 104 c 0
 183 62 215 34 256 34 c 256
 312 34 358 83 358 136 c 0
 358 177 327 207 286 207 c 256
EndSplineSet
EndChar
StartChar: uni0E0E.alt1
Encoding: 63259 63259 367
Width: 846
VWidth: 1533
Flags: W
HStem: -250 40<170.585 309.068> -89 37<544.31 611.712> -83 39<193.357 403.261> -8 42<92.0143 204.428> 207 38<115.86 229.262> 593 31<478.509 683.522>
VStem: 34 40<52.0116 164.598> 87 69<-194.731 -115.465> 752 74<402.069 411 422 425.891 425.891 438.5 432.195 527.834>
Fore
34 95 m 0xdf80
 34 175 103 245 183 245 c 0
 232 245 252 226 259 218 c 1
 277 316 290 368 397 391 c 1
 256 391 l 1
 309 595 510 624 588 624 c 0
 700 624 830 588 830 454 c 0
 830 441 829 426 826 411 c 2
 711 -245 l 1
 635 -245 l 1
 590 -207 544 -172 489 -143 c 1
 392 -199 340 -250 234 -250 c 0
 177 -250 87 -230 87 -165 c 0
 87 -92 175 -44 285 -44 c 0xbf80
 373 -44 459 -79 497 -97 c 1
 540 -74 584 -59 627 -52 c 1
 620 -89 l 1
 569 -101 552 -108 536 -117 c 1
 556 -128 575 -140 593 -152 c 2
 644 -193 l 1
 752 422 l 2
 754 433 755 444 755 455 c 0
 755 539 688 593 583 593 c 0
 448 593 361 500 341 417 c 1
 440 417 l 1
 434 386 l 1
 381 367 352 328 330 203 c 0
 317 136 317 -8 146 -8 c 0
 83 -8 34 31 34 95 c 0xdf80
176 207 m 256
 121 207 74 157 74 104 c 0
 74 62 104 34 146 34 c 0
 200 34 249 81 249 136 c 0
 249 177 217 207 176 207 c 256
276 -83 m 0
 218 -83 156 -111 156 -160 c 0
 156 -199 210 -210 245 -210 c 0
 282 -210 317 -200 350 -182 c 2
 449 -123 l 1
 388 -94 330 -83 276 -83 c 0
EndSplineSet
EndChar
StartChar: uni0E0F.alt1
Encoding: 63260 63260 368
Width: 846
VWidth: 1533
Flags: W
HStem: -259 40<110 222.408> -92 38<119.249 251.809> -8 42<92.0143 204.428> 207 38<115.86 229.262> 593 31<478.509 681.56>
VStem: 31 55<-207.779 -123.539> 34 40<52.0116 164.598> 752 74<402.069 411 422 425.218 425.218 438.5 431.859 527.357>
Fore
34 95 m 0xfb
 34 175 103 245 183 245 c 0
 232 245 252 226 259 218 c 1
 277 316 290 368 397 391 c 1
 256 391 l 1
 309 595 510 624 588 624 c 0
 691 624 830 588 830 452 c 0
 830 439 829 426 826 411 c 2
 711 -245 l 1
 635 -245 l 1
 547 -147 l 1
 421 -253 l 1
 400 -215 369 -180 336 -152 c 1
 246 -229 210 -259 138 -259 c 0
 85 -259 31 -235 31 -179 c 0xfd
 31 -115 94 -54 193 -54 c 0
 254 -54 305 -78 345 -104 c 1
 383 -81 415 -68 446 -61 c 1
 440 -98 l 1
 415 -105 393 -115 374 -126 c 1
 408 -159 426 -182 436 -198 c 1
 556 -97 l 1
 644 -193 l 1
 752 422 l 2
 754 433 755 444 755 455 c 0
 755 539 688 593 583 593 c 0
 448 593 361 500 341 417 c 1
 440 417 l 1
 434 386 l 1
 381 367 352 328 330 203 c 0
 317 136 317 -8 146 -8 c 0
 83 -8 34 31 34 95 c 0xfb
176 207 m 256
 121 207 74 157 74 104 c 0xfb
 74 62 104 34 146 34 c 0
 200 34 249 81 249 136 c 0
 249 177 217 207 176 207 c 256
194 -92 m 0
 151 -92 86 -114 86 -172 c 0xfd
 86 -210 128 -219 151 -219 c 0
 217 -219 263 -165 307 -132 c 1
 262 -98 218 -92 194 -92 c 0
EndSplineSet
EndChar
StartChar: uni0E2C.alt1
Encoding: 63261 63261 369
Width: 876
VWidth: 1533
Flags: W
HStem: 0 21G<221 320.074 686.929 780.514> 371 38<159.01 254.774> 432 37<630.072 751.748> 583 41<181.125 295.028> 595 31<646.183 775.14>
VStem: 101 39<428.222 540.638> 316 67<464.077 562.988> 547 68<485.64 566.147> 792 72<511.036 577.261>
Fore
547 514 m 0xf780
 547 585 638 626 719 626 c 0xef80
 758 626 792 618 820 600 c 0
 849 584 864 554 864 511 c 1
 883 519 902 528 951 564 c 1
 977 524 l 1
 957 508 920 483 858 461 c 1
 777 0 l 1
 695 0 l 1
 559 337 l 1
 305 0 l 1
 221 0 l 1
 291 399 l 1
 265 378 233 371 205 371 c 0
 140 371 101 416 101 473 c 0
 101 559 175 624 257 624 c 0
 343 624 383 574 383 504 c 0
 383 492 382 480 380 468 c 2
 310 74 l 1
 575 423 l 1
 714 74 l 1
 778 438 l 1
 756 434 730 432 705 432 c 0
 577 432 547 478 547 514 c 0xf780
714 595 m 0
 673 595 615 569 615 522 c 0
 615 490 651 469 696 469 c 0
 725 469 754 473 786 481 c 1
 790 507 l 2
 791 515 792 522 792 528 c 0
 792 581 748 595 714 595 c 0
243 583 m 256xf780
 190 583 140 537 140 480 c 0
 140 439 170 409 212 409 c 256
 264 409 316 458 316 511 c 0
 316 554 284 583 243 583 c 256xf780
EndSplineSet
EndChar
StartChar: uni0E4F.liga
Encoding: 63616 63616 370
Width: 766
VWidth: 1533
Flags: W
HStem: -8 46<289.986 495.083> 115 54<342.996 490.992> 445 53<386.759 530.965> 575 46<377.67 583.499>
VStem: 118 47<163.356 365.25> 243 54<214.509 356.238> 428 79<943.906 997.496> 577 55<255.602 398.835> 598 79<943.906 997.496> 710 47<250.453 450.625>
Fore
507 970 m 0xfe40
 507 949 493 878 436 695 c 1
 410 695 l 1
 412 819 415 885 428 957 c 0
 431 978 444 1006 476 1006 c 256
 500 1006 507 988 507 970 c 0xfe40
118 252 m 0
 118 444 295 621 492 621 c 256
 651 621 757 506 757 361 c 0
 757 163 573 -8 382 -8 c 256
 231 -8 118 101 118 252 c 0
484 575 m 256
 321 575 165 425 165 260 c 0
 165 131 262 38 390 38 c 256
 552 38 710 186 710 353 c 0
 710 478 616 575 484 575 c 256
461 445 m 256
 377 445 297 368 297 282 c 0
 297 217 346 169 413 169 c 256
 498 169 577 244 577 331 c 0xff40
 577 395 531 445 461 445 c 256
243 274 m 0
 243 382 346 498 471 498 c 0
 572 498 632 421 632 338 c 0
 632 227 524 115 403 115 c 0
 313 115 243 181 243 274 c 0
677 970 m 0xfec0
 677 949 663 878 606 695 c 1
 580 695 l 1
 586 878 586 891 598 957 c 0
 601 978 614 1006 646 1006 c 256
 670 1006 677 988 677 970 c 0xfec0
EndSplineSet
LCarets2: 1 0 
Ligature2: "'liga' Standard Ligatures in Latin lookup 19 subtable" uni0E4F quotedbl
EndChar
StartChar: uni0E24.liga
Encoding: 63617 63617 371
Width: 1087
VWidth: 1533
Flags: W
HStem: -8 42<202.879 316.53> 207 38<226.299 338.594> 593 31<349.027 552.9 782.677 960.728>
VStem: 115 68<53.3624 152.971> 358 39<75.0941 187.778> 623 75<401.991 411 422 425.105 425.105 438.023 431.564 506.739> 1008 75<401.991 412 422 429.282 429.282 436.559 432.92 544.938>
Fore
397 143 m 0
 397 63 329 -8 241 -8 c 0
 155 -8 115 42 115 113 c 0
 115 125 116 137 118 149 c 2
 136 247 l 2
 146 305 180 370 262 391 c 1
 127 391 l 1
 167 547 310 624 460 624 c 0
 607 624 655 570 672 546 c 1
 733 601 821 624 878 624 c 0
 982 624 1088 590 1088 462 c 0
 1088 447 1086 430 1083 412 c 2
 978 -184 l 1
 902 -184 l 1
 1008 422 l 2
 1011 436 1012 451 1012 466 c 0
 1012 531 982 593 873 593 c 0
 805 593 734 556 695 498 c 1
 700 483 702 468 702 451 c 0
 702 439 701 426 698 411 c 2
 594 -184 l 1
 517 -184 l 1
 623 422 l 2
 625 433 626 444 626 454 c 0
 626 542 555 593 455 593 c 0
 320 593 232 501 212 417 c 1
 312 417 l 1
 306 386 l 1
 234 353 221 297 211 238 c 2
 207 218 l 1
 218 226 244 245 293 245 c 0
 357 245 397 200 397 143 c 0
286 207 m 256
 234 207 183 159 183 104 c 0
 183 62 215 34 256 34 c 256
 312 34 358 83 358 136 c 0
 358 177 327 207 286 207 c 256
EndSplineSet
LCarets2: 1 0 
Ligature2: "'liga' Standard Ligatures in Latin lookup 19 subtable" uni0E24 uni0E45
Ligature2: "'liga' Standard Ligatures in Latin lookup 19 subtable" uni0E24 uni0E32
EndChar
StartChar: uni0E26.liga
Encoding: 63618 63618 372
Width: 1221
VWidth: 1533
Flags: W
HStem: -8 42<92.0143 206.984> 207 38<115.86 229.262> 593 31<478.509 682.33 896.779 1086.5>
VStem: 34 40<52.0116 164.598> 752 74<401.991 411 422 424.996 424.996 438.5 431.748 507.835> 1143 75<401.991 412 422 427.562 427.562 437.071 432.317 535.474>
Fore
34 95 m 0
 34 175 103 245 183 245 c 0
 232 245 252 226 259 218 c 1
 277 316 290 368 397 391 c 1
 256 391 l 1
 309 595 510 624 588 624 c 0
 728 624 775 576 794 553 c 1
 856 606 946 624 998 624 c 0
 1100 624 1222 590 1222 457 c 0
 1222 443 1221 428 1218 412 c 2
 1113 -184 l 1
 1037 -184 l 1
 1143 422 l 2
 1145 435 1147 448 1147 460 c 0
 1147 543 1090 593 993 593 c 0
 926 593 855 560 819 514 c 1
 826 497 830 476 830 452 c 0
 830 439 829 425 826 411 c 2
 722 -184 l 1
 646 -184 l 1
 752 422 l 2
 754 433 755 444 755 455 c 0
 755 539 688 593 583 593 c 0
 448 593 361 500 341 417 c 1
 440 417 l 1
 434 386 l 1
 373 364 349 318 325 182 c 0
 323 171 323 164 322 160 c 0
 297 17 227 -8 146 -8 c 0
 83 -8 34 31 34 95 c 0
176 207 m 256
 121 207 74 157 74 104 c 0
 74 62 104 34 146 34 c 0
 200 34 249 81 249 136 c 0
 249 177 217 207 176 207 c 256
EndSplineSet
LCarets2: 1 0 
Ligature2: "'liga' Standard Ligatures in Latin lookup 19 subtable" uni0E26 uni0E45
Ligature2: "'liga' Standard Ligatures in Latin lookup 19 subtable" uni0E26 uni0E32
EndChar
StartChar: fi
Encoding: 64257 64257 373
Width: 573
VWidth: 1533
Flags: W
HStem: 0 21G<115 190.547 368 441.536> 468 39<132 198 276 451 109 528 132 132> 682 60<348.15 450.977>
Fore
407 682 m 0
 351 682 301 648 291 590 c 2
 276 507 l 1
 528 509 l 1
 438 0 l 1
 368 0 l 1
 451 468 l 1
 270 468 l 1
 187 0 l 1
 115 0 l 1
 198 468 l 1
 109 468 l 1
 132 507 l 1
 204 507 l 1
 220 594 286 742 445 742 c 0
 456 742 466 741 476 741 c 1
 463 668 l 1
 443 677 424 682 407 682 c 0
EndSplineSet
LCarets2: 1 0 
Ligature2: "'liga' Standard Ligatures in Latin lookup 19 subtable" f i
EndChar
StartChar: fl
Encoding: 64258 64258 374
Width: 573
VWidth: 1533
Flags: W
HStem: 0 21G<115 190.547 363 437.531> 468 274<310 356 109 565 455 455> 468 39<132 198 276 356> 682 60<357.562 407 407 483>
Fore
204 507 m 1xa0
 225 626 310 742 455 742 c 2
 565 742 l 1xc0
 434 0 l 1
 363 0 l 1
 483 681 l 1
 473 682 l 1
 407 682 l 2
 351 682 301 648 291 590 c 2
 276 507 l 1
 379 507 l 1xb0
 356 468 l 1
 270 468 l 1
 187 0 l 1
 115 0 l 1
 198 468 l 1
 109 468 l 1xc0
 132 507 l 1
 204 507 l 1xa0
EndSplineSet
LCarets2: 1 0 
Ligature2: "'liga' Standard Ligatures in Latin lookup 19 subtable" f l
EndChar
StartChar: franc
Encoding: 8355 8355 467
Width: 562
VWidth: 1533
Flags: W
HStem: 0 21G<94 189.265> 147 49<14 118 219 389> 359 50<258 553> 695 50<307 636>
Fore
5 147 m 1
 14 196 l 1
 127 196 l 1
 224 745 l 1
 645 745 l 1
 636 695 l 1
 307 695 l 1
 258 409 l 1
 563 409 l 1
 553 359 l 1
 248 359 l 1
 219 196 l 1
 399 196 l 1
 389 147 l 1
 210 147 l 1
 186 0 l 1
 94 0 l 1
 118 147 l 1
 5 147 l 1
EndSplineSet
EndChar
StartChar: dong
Encoding: 8363 8363 468
Width: 659
VWidth: 1533
Flags: W
HStem: -159 55<34 568> -17 38<241.528 382.305> 515 37<319.462 491.714> 624 40<569 636 713 809>
VStem: 70 85<114.127 325.471>
Fore
70 213 m 0
 70 374 197 552 401 552 c 0
 459 552 569 537 601 423 c 1
 636 624 l 1
 562 624 l 1
 569 664 l 1
 643 664 l 1
 657 742 l 1
 727 742 l 1
 713 664 l 1
 816 664 l 1
 809 624 l 1
 706 624 l 1
 596 -2 l 1
 526 -2 l 1
 543 97 l 1
 460 -12 338 -17 301 -17 c 0
 168 -17 70 78 70 213 c 0
24 -159 m 1
 34 -104 l 1
 578 -104 l 1
 568 -159 l 1
 24 -159 l 1
413 515 m 0
 258 515 155 349 155 214 c 0
 155 115 208 21 326 21 c 0
 471 21 578 181 578 316 c 0
 578 421 519 515 413 515 c 0
EndSplineSet
EndChar
StartChar: Dcroat
Encoding: 272 272 475
Width: 878
VWidth: 1533
Flags: W
HStem: 0 37<193 537.62> 366 37<88 168 257 457> 678 38<306 660.445>
VStem: 815 100<306.594 546.932>
Fore
363 0 m 2
 103 0 l 1
 168 366 l 1
 82 366 l 1
 88 403 l 1
 174 403 l 1
 229 716 l 1
 483 716 l 2
 699 716 915 659 915 444 c 0
 915 319 859 0 363 0 c 2
815 451 m 0
 815 616 688 678 499 678 c 2
 306 678 l 1
 257 403 l 1
 463 403 l 1
 457 366 l 1
 251 366 l 1
 193 37 l 1
 386 37 l 2
 756 37 815 309 815 451 c 0
EndSplineSet
EndChar
StartChar: dcroat
Encoding: 273 273 476
Width: 659
VWidth: 1533
Flags: W
HStem: -17 38<242.811 382.002> 515 37<319.307 490.925> 626 38<569 636 713 809>
VStem: 70 85<114.09 326.359>
Fore
70 216 m 0
 70 374 196 552 401 552 c 0
 456 552 568 539 601 425 c 1
 636 626 l 1
 562 626 l 1
 569 664 l 1
 643 664 l 1
 657 742 l 1
 727 742 l 1
 713 664 l 1
 816 664 l 1
 809 626 l 1
 706 626 l 1
 596 0 l 1
 526 0 l 1
 543 97 l 1
 459 -12 337 -17 301 -17 c 0
 158 -17 70 87 70 216 c 0
413 515 m 0
 258 515 155 350 155 214 c 0
 155 115 208 21 326 21 c 0
 471 21 578 181 578 316 c 0
 578 421 519 515 413 515 c 0
EndSplineSet
EndChar
StartChar: Idotaccent
Encoding: 304 304 481
Width: 248
VWidth: 1533
Flags: W
HStem: 0 21G<94 158.517> 828 113<243.511 322.268>
VStem: 224 117<847.093 922.021>
Fore
94 0 m 1
 225 745 l 1
 286 745 l 1
 155 0 l 1
 94 0 l 1
341 894 m 0
 341 854 305 828 270 828 c 0
 247 828 224 846 224 873 c 0
 224 910 257 941 290 941 c 0
 321 941 341 922 341 894 c 0
EndSplineSet
EndChar
StartChar: dotlessi
Encoding: 305 305 482
Width: 248
VWidth: 1533
Flags: W
HStem: 0 21G<94 156.534>
VStem: 94 153<0 532 1.53064e-18 1.53064e-18>
Fore
94 0 m 1
 188 532 l 1
 247 532 l 1
 153 0 l 1
 94 0 l 1
EndSplineSet
EndChar
StartChar: Ohorn
Encoding: 416 416 487
Width: 898
VWidth: 1533
Flags: W
HStem: -26 29<336.193 567.602> 710 29<454.192 684.549>
VStem: 86 100<176.193 410.479> 832 101<296.532 536.156> 966 83<680.499 768>
Back
1049 768 m 1
 1038.33 712.667 1014.67 669 978 637 c 128
 941.333 605 895.333 585.333 840 578 c 1
 845 603 l 1
 865 607 882.167 614.5 896.5 625.5 c 128
 910.833 636.5 922.667 649.667 932 665 c 128
 941.333 680.333 948.5 697 953.5 715 c 128
 958.5 733 962.667 750.667 966 768 c 1
 1049 768 l 1
928 357 m 0
 917.333 299.667 896.167 247.5 864.5 200.5 c 128
 832.833 153.5 794.833 113.167 750.5 79.5 c 128
 706.167 45.8333 657.167 19.8333 603.5 1.5 c 128
 549.833 -16.8333 496 -26 442 -26 c 256
 387.333 -26 336.5 -16.8333 289.5 1.5 c 128
 242.5 19.8333 202.667 45.8333 170 79.5 c 128
 137.333 113.167 113.333 153.5 98 200.5 c 128
 82.6667 247.5 80 299.333 90 356 c 256
 100.667 412 121.833 463.5 153.5 510.5 c 128
 185.167 557.5 223.5 597.833 268.5 631.5 c 128
 313.5 665.167 362.833 691.5 416.5 710.5 c 128
 470.167 729.5 523.333 739 576 739 c 256
 629.333 739 679.5 729.833 726.5 711.5 c 128
 773.5 693.167 813.667 667.167 847 633.5 c 128
 880.333 599.833 904.667 559.5 920 512.5 c 128
 935.333 465.5 938 413.667 928 357 c 0
825 357 m 0
 833 404.333 833.667 449.5 827 492.5 c 128
 820.333 535.5 806.5 573 785.5 605 c 128
 764.5 637 736.167 662.5 700.5 681.5 c 128
 664.833 700.5 622 710 572 710 c 0
 520.667 710 473.833 700.5 431.5 681.5 c 128
 389.167 662.5 351.667 637 319 605 c 128
 286.333 573 259 535.5 237 492.5 c 128
 215 449.5 200 404 192 356 c 256
 183.333 308 182.333 262.667 189 220 c 128
 195.667 177.333 209.5 140 230.5 108 c 128
 251.5 76 280 50.5 316 31.5 c 128
 352 12.5 395.333 3 446 3 c 0
 496 3 542.5 12.5 585.5 31.5 c 128
 628.5 50.5 666.333 76.3333 699 109 c 128
 731.667 141.667 758.833 179.167 780.5 221.5 c 128
 802.167 263.833 817 309 825 357 c 0
EndSplineSet
Fore
573 710 m 0
 335 710 186 487 186 276 c 0
 186 115 281 3 447 3 c 0
 675 3 832 216 832 437 c 0
 832 599 736 710 573 710 c 0
86 290 m 0
 86 553 352 739 578 739 c 0
 700 739 806 690 869 610 c 1
 925 632 952 689 966 768 c 1
 1049 768 l 1
 1028 649 947 604 886 587 c 1
 916 539 933 482 933 419 c 0
 933 175 691 -26 441 -26 c 0
 247 -26 86 98 86 290 c 0
EndSplineSet
EndChar
StartChar: ohorn
Encoding: 417 417 488
Width: 679
VWidth: 1533
Flags: W
HStem: -15 38<248.549 450.683> 511 38<326.392 532.121>
VStem: 80 87<115.082 328.29> 611 85<206.247 383.538> 743 83<472.925 557>
Back
826 557 m 1
 817.333 504.333 795.333 463 760 433 c 128
 724.667 403 681 385 629 379 c 1
 633 406 l 1
 651.667 410 667.333 417 680 427 c 128
 692.667 437 703.333 448.833 712 462.5 c 128
 720.667 476.167 727.333 491.167 732 507.5 c 128
 736.667 523.833 740.667 540.333 744 557 c 1
 826 557 l 1
690 267 m 0
 682 223.667 667 184.667 645 150 c 128
 623 115.333 596.167 85.8333 564.5 61.5 c 128
 532.833 37.1667 497.5 18.3333 458.5 5 c 128
 419.5 -8.33333 379 -15 337 -15 c 256
 295 -15 257 -8.33333 223 5 c 128
 189 18.3333 160.5 37.1667 137.5 61.5 c 128
 114.5 85.8333 97.8333 115.333 87.5 150 c 128
 77.1667 184.667 76 223.667 84 267 c 0
 91.3333 309.667 106.333 348.333 129 383 c 128
 151.667 417.667 178.833 447.333 210.5 472 c 128
 242.167 496.667 277.667 515.667 317 529 c 128
 356.333 542.333 396.667 549 438 549 c 0
 481.333 549 520.167 542.333 554.5 529 c 128
 588.833 515.667 617.167 496.667 639.5 472 c 128
 661.833 447.333 677.667 417.667 687 383 c 128
 696.333 348.333 697.333 309.667 690 267 c 0
604 267 m 0
 610 301.667 611.5 333.833 608.5 363.5 c 128
 605.5 393.167 597.167 419 583.5 441 c 128
 569.833 463 550.5 480.167 525.5 492.5 c 128
 500.5 504.833 469 511 431 511 c 0
 354.333 511 295 488 253 442 c 128
 211 396 184 337.667 172 267 c 0
 166 232.333 164.5 200.167 167.5 170.5 c 128
 170.5 140.833 178.833 115 192.5 93 c 128
 206.167 71 225.5 53.8333 250.5 41.5 c 128
 275.5 29.1667 307.667 23 347 23 c 0
 422.333 23 481 46 523 92 c 128
 565 138 592 196.333 604 267 c 0
EndSplineSet
Fore
432 511 m 0
 220 511 167 311 167 200 c 0
 167 94 222 23 347 23 c 0
 558 23 611 224 611 334 c 0
 611 440 557 511 432 511 c 0
80 214 m 0
 80 398 241 549 439 549 c 0
 552 549 636 501 674 422 c 1
 704 441 729 479 743 557 c 1
 826 557 l 1
 811 469 759 415 686 391 c 1
 693 370 696 348 696 323 c 0
 696 134 534 -15 337 -15 c 0
 186 -15 80 75 80 214 c 0
EndSplineSet
EndChar
